<svg width="14" height="14" viewBox="0 0 14 14" fill="none" xmlns="http://www.w3.org/2000/svg">
<path d="M0.583334 13.3949H13.4167C13.7388 13.3949 14 13.1524 14 12.8527V10.4813C14 10.1816 13.7388 9.93905 13.4167 9.93905C13.0945 9.93905 12.8333 10.1816 12.8333 10.4813V12.3104H1.16667V1.46514H12.8333V3.29422C12.8333 3.59394 13.0945 3.83648 13.4167 3.83648C13.7388 3.83648 14 3.59394 14 3.29422V0.922878C14 0.623151 13.7388 0.380615 13.4167 0.380615H0.583334C0.26119 0.380615 0 0.623151 0 0.922878V12.8527C0 13.1524 0.26119 13.3949 0.583334 13.3949Z" fill="#AAAAAA"/>
<path d="M11.044 9.63553C11.1933 9.63553 11.3425 9.58258 11.4565 9.47667L13.8291 7.27108C14.057 7.05926 14.057 6.71611 13.8291 6.50429L11.4565 4.2987C11.2286 4.08688 10.8595 4.08688 10.6316 4.2987C10.4037 4.51052 10.4037 4.85367 10.6316 5.06549L12.5918 6.88768L10.6316 8.70988C10.4037 8.9217 10.4037 9.26485 10.6316 9.47667C10.7455 9.58258 10.8948 9.63553 11.044 9.63553Z" fill="#AAAAAA"/>
<path d="M3.79171 7.43011H13.4167C13.7388 7.43011 14 7.18757 14 6.88784C14 6.58812 13.7388 6.34558 13.4167 6.34558H3.79171C3.46956 6.34558 3.20837 6.58812 3.20837 6.88784C3.20837 7.18757 3.46956 7.43011 3.79171 7.43011Z" fill="#AAAAAA"/>
</svg>
