<svg width="90" height="25" viewBox="0 0 90 25" fill="none" xmlns="http://www.w3.org/2000/svg">
<path d="M3.61567 12.1091H1.43604V0.121091H9.04745V1.98935H3.61567V12.1091Z" fill="#434343"/>
<path d="M22.7593 12.1091C22.5979 11.6362 22.4307 11.1692 22.2577 10.7079C22.0847 10.2466 21.9175 9.77374 21.756 9.28938H16.7048C16.5434 9.77374 16.3761 10.2523 16.2031 10.7252C16.0417 11.1865 15.8802 11.6478 15.7188 12.1091H13.4527C13.9024 10.829 14.3291 9.64689 14.7328 8.56284C15.1364 7.47879 15.5285 6.4524 15.9091 5.48368C16.3012 4.51495 16.6875 3.59236 17.0681 2.71589C17.4487 1.83942 17.8408 0.974492 18.2444 0.121091H20.3029C20.7066 0.974492 21.0987 1.83942 21.4792 2.71589C21.8598 3.59236 22.2404 4.51495 22.6209 5.48368C23.0131 6.4524 23.4109 7.47879 23.8146 8.56284C24.2297 9.64689 24.6622 10.829 25.112 12.1091H22.7593ZM19.2304 2.43911C18.9652 3.05033 18.6596 3.79417 18.3136 4.67064C17.9791 5.5471 17.6274 6.49853 17.2584 7.52492H21.2025C20.8334 6.49853 20.4759 5.54134 20.1299 4.65334C19.784 3.76534 19.4841 3.02727 19.2304 2.43911Z" fill="#434343"/>
<path d="M35.2073 0C36.9487 0 38.2807 0.317142 39.2033 0.951426C40.1375 1.58571 40.6045 2.5775 40.6045 3.9268C40.6045 4.63028 40.4777 5.23573 40.224 5.74316C39.9818 6.23905 39.6243 6.64845 39.1514 6.97136C38.6786 7.28274 38.102 7.51339 37.4216 7.66331C36.7412 7.81323 35.9627 7.88819 35.0863 7.88819H33.9964V12.1091H31.8168V0.294078C32.3242 0.178753 32.8836 0.103792 33.4948 0.0691948C34.1175 0.0230649 34.6884 0 35.2073 0ZM35.363 1.88555C34.8095 1.88555 34.3539 1.90285 33.9964 1.93745V6.01993H35.0517C36.1011 6.01993 36.9084 5.87578 37.4735 5.58747C38.0386 5.28762 38.3211 4.7283 38.3211 3.9095C38.3211 3.51739 38.2461 3.18872 38.0962 2.92347C37.9463 2.65823 37.7387 2.45064 37.4735 2.30072C37.2082 2.1508 36.8911 2.04701 36.522 1.98935C36.1645 1.92015 35.7782 1.88555 35.363 1.88555Z" fill="#434343"/>
<path d="M54.9646 12.1091C54.8031 11.6362 54.6359 11.1692 54.4629 10.7079C54.2899 10.2466 54.1227 9.77374 53.9613 9.28938H48.91C48.7486 9.77374 48.5814 10.2523 48.4084 10.7252C48.2469 11.1865 48.0855 11.6478 47.924 12.1091H45.6579C46.1077 10.829 46.5344 9.64689 46.938 8.56284C47.3416 7.47879 47.7337 6.4524 48.1143 5.48368C48.5064 4.51495 48.8927 3.59236 49.2733 2.71589C49.6539 1.83942 50.046 0.974492 50.4496 0.121091H52.5082C52.9118 0.974492 53.3039 1.83942 53.6845 2.71589C54.0651 3.59236 54.4456 4.51495 54.8262 5.48368C55.2183 6.4524 55.6162 7.47879 56.0198 8.56284C56.435 9.64689 56.8674 10.829 57.3172 12.1091H54.9646ZM51.4356 2.43911C51.1704 3.05033 50.8648 3.79417 50.5188 4.67064C50.1844 5.5471 49.8326 6.49853 49.4636 7.52492H53.4077C53.0387 6.49853 52.6812 5.54134 52.3352 4.65334C51.9892 3.76534 51.6894 3.02727 51.4356 2.43911Z" fill="#434343"/>
<path d="M71.4086 0.121091H73.5882V12.1091H71.4086V6.79837H66.2017V12.1091H64.0221V0.121091H66.2017V4.91282H71.4086V0.121091Z" fill="#434343"/>
<path d="M90.0003 0.121091V2.00664H86.3157V12.1091H84.1188V2.00664H80.4342V0.121091H90.0003Z" fill="#434343"/>
<path d="M3.75726 22.9293C3.69208 22.7384 3.62457 22.5498 3.55473 22.3636C3.48489 22.1774 3.41738 21.9865 3.3522 21.7909H1.31295C1.24776 21.9865 1.18025 22.1797 1.11042 22.3706C1.04523 22.5568 0.980053 22.743 0.914872 22.9293H0C0.181578 22.4125 0.353843 21.9353 0.516798 21.4976C0.679752 21.06 0.83805 20.6456 0.991693 20.2545C1.14999 19.8634 1.30596 19.4909 1.4596 19.1371C1.61325 18.7833 1.77155 18.4341 1.9345 18.0895H2.76557C2.92852 18.4341 3.08682 18.7833 3.24046 19.1371C3.3941 19.4909 3.54775 19.8634 3.70139 20.2545C3.85969 20.6456 4.02031 21.06 4.18327 21.4976C4.35088 21.9353 4.52547 22.4125 4.70705 22.9293H3.75726ZM2.33257 19.0254C2.22549 19.2721 2.10211 19.5724 1.96243 19.9263C1.82742 20.2801 1.68541 20.6642 1.53643 21.0786H3.12872C2.97973 20.6642 2.8354 20.2778 2.69573 19.9193C2.55605 19.5608 2.435 19.2628 2.33257 19.0254Z" fill="#A6A6A6"/>
<path d="M10.2703 22.9851C10.0142 22.9851 9.75579 22.9758 9.49507 22.9572C9.23434 22.9432 9.0062 22.9107 8.81066 22.8594V18.1594C8.91309 18.1408 9.0225 18.1245 9.13889 18.1105C9.25529 18.0919 9.37401 18.0779 9.49507 18.0686C9.61612 18.0593 9.73484 18.0523 9.85124 18.0476C9.97229 18.043 10.0864 18.0407 10.1934 18.0407C10.4868 18.0407 10.7591 18.0639 11.0105 18.1105C11.262 18.1524 11.4785 18.2246 11.66 18.327C11.8463 18.4294 11.9906 18.5644 12.093 18.732C12.1954 18.8997 12.2467 19.1068 12.2467 19.3536C12.2467 19.5817 12.1908 19.7773 12.0791 19.9402C11.972 20.1032 11.8207 20.2336 11.6251 20.3313C11.9184 20.4291 12.1349 20.5734 12.2746 20.7643C12.4143 20.9552 12.4841 21.1973 12.4841 21.4906C12.4841 21.9888 12.3025 22.3636 11.9394 22.615C11.5762 22.8618 11.0199 22.9851 10.2703 22.9851ZM9.67664 20.7503V22.2239C9.77442 22.2332 9.87917 22.2402 9.99091 22.2449C10.1027 22.2495 10.2051 22.2519 10.2982 22.2519C10.4798 22.2519 10.6474 22.2402 10.801 22.2169C10.9593 22.1937 11.0943 22.1541 11.2061 22.0982C11.3225 22.0377 11.4133 21.9585 11.4785 21.8608C11.5483 21.763 11.5832 21.6373 11.5832 21.4836C11.5832 21.2089 11.4831 21.0181 11.2829 20.911C11.0827 20.8039 10.8057 20.7503 10.4518 20.7503H9.67664ZM9.67664 20.059H10.2982C10.6334 20.059 10.8965 20.0124 11.0874 19.9193C11.2782 19.8215 11.3737 19.6492 11.3737 19.4025C11.3737 19.1697 11.2736 19.0044 11.0734 18.9066C10.8778 18.8089 10.6218 18.76 10.3052 18.76C10.1702 18.76 10.0491 18.7623 9.94203 18.767C9.8396 18.7716 9.75114 18.7786 9.67664 18.7879V20.059Z" fill="#A6A6A6"/>
<path d="M20.2656 18.0895V18.8508H18.7781V22.9293H17.8911V18.8508H16.4036V18.0895H20.2656Z" fill="#A6A6A6"/>
<path d="M24.9774 20.5059C24.9774 20.7713 25.01 21.0134 25.0752 21.2322C25.1404 21.4464 25.2335 21.6303 25.3546 21.7839C25.4803 21.9329 25.6316 22.0493 25.8085 22.1331C25.9854 22.2169 26.1856 22.2588 26.4091 22.2588C26.6279 22.2588 26.8258 22.2169 27.0027 22.1331C27.1797 22.0493 27.3286 21.9329 27.4497 21.7839C27.5754 21.6303 27.6708 21.4464 27.736 21.2322C27.8012 21.0134 27.8338 20.7713 27.8338 20.5059C27.8338 20.2405 27.8012 20.0008 27.736 19.7866C27.6708 19.5678 27.5754 19.3839 27.4497 19.2349C27.3286 19.0812 27.1797 18.9625 27.0027 18.8787C26.8258 18.7949 26.6279 18.753 26.4091 18.753C26.1856 18.753 25.9854 18.7949 25.8085 18.8787C25.6316 18.9625 25.4803 19.0812 25.3546 19.2349C25.2335 19.3885 25.1404 19.5724 25.0752 19.7866C25.01 20.0008 24.9774 20.2405 24.9774 20.5059ZM28.7557 20.5059C28.7557 20.9203 28.6928 21.2858 28.5671 21.6024C28.446 21.919 28.2784 22.1843 28.0643 22.3985C27.8547 22.608 27.608 22.7663 27.324 22.8734C27.04 22.9805 26.7373 23.034 26.4161 23.034C26.0948 23.034 25.7899 22.9805 25.5012 22.8734C25.2172 22.7663 24.9681 22.608 24.754 22.3985C24.5445 22.1843 24.3768 21.919 24.2511 21.6024C24.1254 21.2858 24.0626 20.9203 24.0626 20.5059C24.0626 20.0915 24.1254 19.7284 24.2511 19.4165C24.3768 19.0999 24.5468 18.8345 24.7609 18.6203C24.9798 18.4061 25.2312 18.2455 25.5152 18.1384C25.7992 18.0313 26.0995 17.9778 26.4161 17.9778C26.7327 17.9778 27.033 18.0313 27.317 18.1384C27.601 18.2455 27.8478 18.4061 28.0573 18.6203C28.2714 18.8345 28.4414 19.0999 28.5671 19.4165C28.6928 19.7284 28.7557 20.0915 28.7557 20.5059Z" fill="#A6A6A6"/>
<path d="M34.9202 18.8438C34.9062 19.1604 34.8899 19.484 34.8713 19.8145C34.8527 20.1404 34.8177 20.457 34.7665 20.7643C34.72 21.0669 34.6501 21.3533 34.557 21.6233C34.4639 21.8934 34.3359 22.1308 34.1729 22.3357C34.01 22.5359 33.8051 22.6965 33.5583 22.8175C33.3162 22.9386 33.0183 23.0038 32.6644 23.0131L32.5667 22.2449C32.7343 22.2262 32.8809 22.1937 33.0066 22.1471C33.1323 22.1005 33.2417 22.04 33.3349 21.9655C33.428 21.8864 33.5095 21.7909 33.5793 21.6792C33.6491 21.5628 33.7097 21.4278 33.7609 21.2741C33.8866 20.911 33.9704 20.457 34.0123 19.9123C34.0542 19.3676 34.0751 18.76 34.0751 18.0895H37.0991V22.9293H36.2122V18.8438H34.9202Z" fill="#A6A6A6"/>
<path d="M42.4709 20.5059C42.4709 20.7713 42.5035 21.0134 42.5687 21.2322C42.6339 21.4464 42.727 21.6303 42.848 21.7839C42.9738 21.9329 43.1251 22.0493 43.302 22.1331C43.4789 22.2169 43.6791 22.2588 43.9026 22.2588C44.1214 22.2588 44.3193 22.2169 44.4962 22.1331C44.6731 22.0493 44.8221 21.9329 44.9432 21.7839C45.0689 21.6303 45.1643 21.4464 45.2295 21.2322C45.2947 21.0134 45.3273 20.7713 45.3273 20.5059C45.3273 20.2405 45.2947 20.0008 45.2295 19.7866C45.1643 19.5678 45.0689 19.3839 44.9432 19.2349C44.8221 19.0812 44.6731 18.9625 44.4962 18.8787C44.3193 18.7949 44.1214 18.753 43.9026 18.753C43.6791 18.753 43.4789 18.7949 43.302 18.8787C43.1251 18.9625 42.9738 19.0812 42.848 19.2349C42.727 19.3885 42.6339 19.5724 42.5687 19.7866C42.5035 20.0008 42.4709 20.2405 42.4709 20.5059ZM46.2491 20.5059C46.2491 20.9203 46.1863 21.2858 46.0606 21.6024C45.9395 21.919 45.7719 22.1843 45.5577 22.3985C45.3482 22.608 45.1015 22.7663 44.8175 22.8734C44.5335 22.9805 44.2308 23.034 43.9096 23.034C43.5883 23.034 43.2834 22.9805 42.9947 22.8734C42.7107 22.7663 42.4616 22.608 42.2474 22.3985C42.0379 22.1843 41.8703 21.919 41.7446 21.6024C41.6189 21.2858 41.556 20.9203 41.556 20.5059C41.556 20.0915 41.6189 19.7284 41.7446 19.4165C41.8703 19.0999 42.0403 18.8345 42.2544 18.6203C42.4733 18.4061 42.7247 18.2455 43.0087 18.1384C43.2927 18.0313 43.593 17.9778 43.9096 17.9778C44.2262 17.9778 44.5265 18.0313 44.8105 18.1384C45.0945 18.2455 45.3412 18.4061 45.5508 18.6203C45.7649 18.8345 45.9349 19.0999 46.0606 19.4165C46.1863 19.7284 46.2491 20.0915 46.2491 20.5059Z" fill="#A6A6A6"/>
<path d="M51.7609 18.0895C51.8633 18.2665 51.9774 18.483 52.1031 18.739C52.2288 18.9951 52.3568 19.2651 52.4872 19.5491C52.6176 19.8285 52.7456 20.1148 52.8713 20.4081C53.0017 20.6968 53.1204 20.9645 53.2275 21.2113C53.3346 20.9645 53.451 20.6968 53.5767 20.4081C53.7024 20.1148 53.8304 19.8285 53.9608 19.5491C54.0911 19.2651 54.2192 18.9951 54.3449 18.739C54.4706 18.483 54.5847 18.2665 54.6871 18.0895H55.4832C55.5251 18.4434 55.5647 18.8205 55.602 19.2209C55.6392 19.6167 55.6718 20.024 55.6997 20.4431C55.7323 20.8574 55.7603 21.2765 55.7835 21.7001C55.8115 22.1192 55.8348 22.5289 55.8534 22.9293H54.9874C54.9688 22.3659 54.9455 21.7863 54.9175 21.1903C54.8943 20.5944 54.857 20.0171 54.8058 19.4584C54.7546 19.5654 54.6941 19.6935 54.6242 19.8425C54.5544 19.9914 54.4799 20.1544 54.4008 20.3313C54.3216 20.5036 54.2401 20.6828 54.1563 20.8691C54.0772 21.0553 53.998 21.2369 53.9189 21.4138C53.8444 21.5861 53.7745 21.749 53.7094 21.9027C53.6442 22.0517 53.5883 22.1797 53.5418 22.2868H52.8853C52.8387 22.1797 52.7829 22.0493 52.7177 21.8957C52.6525 21.742 52.5803 21.5791 52.5012 21.4068C52.4267 21.2299 52.3475 21.0483 52.2637 20.8621C52.1846 20.6759 52.1054 20.4966 52.0263 20.3243C51.9471 20.1521 51.8726 19.9914 51.8028 19.8425C51.733 19.6888 51.6724 19.5608 51.6212 19.4584C51.57 20.0171 51.5304 20.5944 51.5025 21.1903C51.4792 21.7863 51.4583 22.3659 51.4396 22.9293H50.5737C50.5923 22.5289 50.6132 22.1145 50.6365 21.6862C50.6644 21.2578 50.6924 20.8342 50.7203 20.4151C50.7529 19.9914 50.7878 19.5817 50.8251 19.186C50.8623 18.7902 50.9019 18.4248 50.9438 18.0895H51.7609Z" fill="#A6A6A6"/>
<path d="M61.2294 18.8368V19.8564H61.7043C62.0535 19.8564 62.3654 19.8844 62.6401 19.9402C62.9148 19.9961 63.1476 20.0869 63.3385 20.2126C63.5294 20.3337 63.6737 20.4943 63.7715 20.6945C63.8739 20.89 63.9251 21.1298 63.9251 21.4138C63.9251 21.9399 63.7342 22.3333 63.3525 22.5941C62.9753 22.8501 62.4353 22.9782 61.7322 22.9782C61.5367 22.9782 61.3155 22.9665 61.0688 22.9432C60.822 22.9246 60.5892 22.8897 60.3704 22.8385V18.0895H63.4712V18.8368H61.2294ZM61.5367 22.2169C61.5879 22.2169 61.6461 22.2169 61.7113 22.2169C61.7764 22.2169 61.8486 22.2146 61.9278 22.21C62.0721 22.2053 62.2094 22.189 62.3398 22.1611C62.4748 22.1331 62.5912 22.0889 62.689 22.0284C62.7914 21.9678 62.8706 21.8887 62.9264 21.7909C62.987 21.6932 63.0172 21.5698 63.0172 21.4208C63.0172 21.2532 62.987 21.1158 62.9264 21.0087C62.8659 20.9017 62.7775 20.8179 62.6611 20.7573C62.5447 20.6922 62.4027 20.6479 62.235 20.6246C62.0721 20.5967 61.8859 20.5827 61.6763 20.5827H61.2294V22.203C61.2713 22.2076 61.3155 22.2123 61.3621 22.2169C61.4133 22.2169 61.4715 22.2169 61.5367 22.2169Z" fill="#A6A6A6"/>
<path d="M71.4669 22.9293C71.4017 22.7384 71.3342 22.5498 71.2644 22.3636C71.1945 22.1774 71.127 21.9865 71.0619 21.7909H69.0226C68.9574 21.9865 68.8899 22.1797 68.8201 22.3706C68.7549 22.5568 68.6897 22.743 68.6245 22.9293H67.7097C67.8912 22.4125 68.0635 21.9353 68.2264 21.4976C68.3894 21.06 68.5477 20.6456 68.7013 20.2545C68.8596 19.8634 69.0156 19.4909 69.1693 19.1371C69.3229 18.7833 69.4812 18.4341 69.6441 18.0895H70.4752C70.6382 18.4341 70.7965 18.7833 70.9501 19.1371C71.1038 19.4909 71.2574 19.8634 71.411 20.2545C71.5693 20.6456 71.73 21.06 71.8929 21.4976C72.0605 21.9353 72.2351 22.4125 72.4167 22.9293H71.4669ZM70.0422 19.0254C69.9352 19.2721 69.8118 19.5724 69.6721 19.9263C69.5371 20.2801 69.3951 20.6642 69.2461 21.0786H70.8384C70.6894 20.6642 70.5451 20.2778 70.4054 19.9193C70.2657 19.5608 70.1447 19.2628 70.0422 19.0254Z" fill="#A6A6A6"/>
<path d="M77.8891 18.0407C78.5922 18.0407 79.1299 18.1687 79.5024 18.4248C79.8795 18.6808 80.0681 19.0812 80.0681 19.626C80.0681 19.91 80.0168 20.1544 79.9144 20.3593C79.8166 20.5595 79.6723 20.7247 79.4814 20.8551C79.2905 20.9808 79.0577 21.0739 78.783 21.1345C78.5084 21.195 78.1941 21.2252 77.8402 21.2252H77.4003V22.9293H76.5203V18.1594C76.7252 18.1128 76.951 18.0826 77.1977 18.0686C77.4492 18.05 77.6796 18.0407 77.8891 18.0407ZM77.952 18.8019C77.7285 18.8019 77.5446 18.8089 77.4003 18.8228V20.471H77.8263C78.25 20.471 78.5759 20.4128 78.804 20.2964C79.0321 20.1754 79.1462 19.9495 79.1462 19.619C79.1462 19.4607 79.1159 19.328 79.0554 19.2209C78.9949 19.1138 78.9111 19.03 78.804 18.9695C78.6969 18.909 78.5689 18.8671 78.4199 18.8438C78.2756 18.8158 78.1196 18.8019 77.952 18.8019Z" fill="#A6A6A6"/>
<path d="M83.4312 22.182H84.0318C84.2413 21.8934 84.402 21.5907 84.5137 21.2741C84.6301 20.9529 84.7139 20.6223 84.7651 20.2824C84.821 19.9379 84.8536 19.5841 84.8629 19.2209C84.8722 18.8531 84.8769 18.476 84.8769 18.0895H87.845V22.182H88.5643V24.2213H87.7193V22.9293H84.2763V24.2213H83.4312V22.182ZM85.7219 18.8438C85.7079 19.1231 85.6916 19.4095 85.673 19.7028C85.6544 19.9961 85.6195 20.2871 85.5683 20.5758C85.5217 20.8598 85.4542 21.1391 85.3657 21.4138C85.2773 21.6838 85.1562 21.9399 85.0026 22.182H86.979V18.8438H85.7219Z" fill="#A6A6A6"/>
</svg>
