<svg width="16" height="17" viewBox="0 0 16 17" fill="none" xmlns="http://www.w3.org/2000/svg">
<path d="M8 0.731934C6.41775 0.731934 4.87103 1.20113 3.55544 2.08018C2.23985 2.95923 1.21447 4.20866 0.608967 5.67046C0.00346623 7.13227 -0.15496 8.74081 0.153721 10.2927C0.462403 11.8445 1.22433 13.27 2.34315 14.3888C3.46197 15.5076 4.88743 16.2695 6.43928 16.5782C7.99113 16.8869 9.59966 16.7285 11.0615 16.123C12.5233 15.5175 13.7727 14.4921 14.6518 13.1765C15.5308 11.8609 16 10.3142 16 8.73193C15.9976 6.61093 15.154 4.57749 13.6542 3.07772C12.1544 1.57795 10.121 0.734324 8 0.731934ZM8 15.843C6.59356 15.843 5.2187 15.426 4.04928 14.6446C2.87987 13.8632 1.96842 12.7526 1.43019 11.4532C0.891971 10.1539 0.751147 8.72404 1.02553 7.34462C1.29991 5.9652 1.97718 4.69812 2.97169 3.70362C3.96619 2.70911 5.23327 2.03184 6.61269 1.75746C7.99211 1.48308 9.42192 1.6239 10.7213 2.16212C12.0207 2.70035 13.1313 3.6118 13.9127 4.78121C14.6941 5.95063 15.1111 7.32549 15.1111 8.73193C15.109 10.6173 14.3591 12.4247 13.0259 13.7579C11.6928 15.091 9.88532 15.8409 8 15.843ZM11.3776 11.4876C11.4243 11.5226 11.4636 11.5664 11.4933 11.6166C11.5231 11.6668 11.5426 11.7224 11.5509 11.7801C11.5592 11.8379 11.556 11.8967 11.5415 11.9532C11.527 12.0097 11.5016 12.0629 11.4666 12.1095C11.4316 12.1562 11.3877 12.1955 11.3375 12.2253C11.2873 12.255 11.2318 12.2746 11.174 12.2828C11.1163 12.2911 11.0575 12.2879 11.0009 12.2734C10.9444 12.259 10.8913 12.2335 10.8446 12.1985L7.28907 9.53184C7.23384 9.49049 7.189 9.43683 7.15811 9.37513C7.12722 9.31343 7.11113 9.24538 7.11111 9.17638V3.84304C7.11111 3.72517 7.15794 3.61212 7.24129 3.52877C7.32464 3.44543 7.43768 3.3986 7.55556 3.3986C7.67343 3.3986 7.78648 3.44543 7.86983 3.52877C7.95318 3.61212 8 3.72517 8 3.84304V8.95415L11.3776 11.4876Z" fill="#58C889"/>
</svg>
