<svg width="16" height="16" viewBox="0 0 16 16" fill="none" xmlns="http://www.w3.org/2000/svg">
<path d="M10.5023 7.06316H8.30842V4.86929C8.30842 4.53785 8.0401 4.26953 7.70866 4.26953C7.37721 4.26953 7.1089 4.53785 7.1089 4.86929V7.04737H4.93082C4.59937 7.04737 4.33105 7.31569 4.33105 7.64713C4.33105 7.97858 4.59937 8.2469 4.93082 8.2469H7.1089V10.425C7.1089 10.7564 7.37721 11.0247 7.70866 11.0247C8.0401 11.0247 8.30842 10.7564 8.30842 10.425V8.2469H10.4865C10.8179 8.2469 11.0863 7.97858 11.0863 7.64713C11.0863 7.33147 10.8179 7.06316 10.5023 7.06316Z" fill="#C7D1E2"/>
<path d="M15.7413 14.8447L12.9161 12.0196C13.9105 10.8358 14.5102 9.32063 14.5102 7.66339C14.5102 3.92278 11.4641 0.86084 7.70767 0.86084C3.95127 0.86084 0.920898 3.907 0.920898 7.66339C0.920898 11.404 3.96705 14.4659 7.72345 14.4659C9.38069 14.4659 10.8959 13.8662 12.0796 12.8718L14.9048 15.697C15.0153 15.8075 15.1731 15.8707 15.331 15.8707C15.4888 15.8707 15.6308 15.8075 15.7571 15.697C15.9781 15.4445 15.9781 15.0657 15.7413 14.8447ZM2.12042 7.66339C2.12042 4.56989 4.62995 2.06036 7.72345 2.06036C10.817 2.06036 13.3265 4.56989 13.3265 7.66339C13.3265 10.7411 10.8012 13.2506 7.72345 13.2506C4.64573 13.2506 2.12042 10.7411 2.12042 7.66339Z" fill="#8F9BA1"/>
</svg>
