<svg width="14" height="14" viewBox="0 0 14 14" fill="none" xmlns="http://www.w3.org/2000/svg">
<path d="M9.32212 0.896037L13.6298 2.33194C13.8431 2.40212 13.9995 2.61782 14 2.84235V12.8908C14 13.2294 13.6149 13.507 13.2933 13.4012L9.15385 12.0214L5.01442 13.4012C4.90605 13.4369 4.78626 13.4369 4.67788 13.4012L0.370192 11.9653C0.156908 11.8951 0.000466667 11.6794 0 11.4549V1.40645C0 1.06785 0.385072 0.790266 0.706731 0.896037L4.84615 2.27585L8.98558 0.896037C9.10869 0.848784 9.2502 0.872078 9.32212 0.896037ZM9.69231 2.15245V11.0679L12.9231 12.1448V3.22937L9.69231 2.15245ZM8.61539 2.15245L5.38462 3.22937V12.1448L8.61539 11.0679V2.15245ZM1.07692 2.15245V11.0679L4.30769 12.1448V3.22937L1.07692 2.15245Z" fill="#566072"/>
</svg>
