<svg width="18" height="16" viewBox="0 0 18 16" fill="none" xmlns="http://www.w3.org/2000/svg">
<path d="M6.3345 3.75578C6.3345 2.00693 4.91643 0.588867 3.16691 0.588867C1.41806 0.588867 0 2.00693 0 3.75578C0 5.5053 2.71281 8.25831 3.16691 8.25831C3.62169 8.25831 6.3345 5.50496 6.3345 3.75578ZM1.72148 3.79734C1.72148 2.99894 2.36885 2.35157 3.16691 2.35157C3.96565 2.35157 4.61302 2.99894 4.61302 3.79734C4.61302 4.59574 3.96565 5.24277 3.16691 5.24277C2.36885 5.24277 1.72148 4.59574 1.72148 3.79734Z" fill="#58C889"/>
<path d="M14.5219 4.87549C12.6017 4.87549 11.0444 6.43242 11.0444 8.35324C11.0444 10.2737 14.0228 13.2974 14.5219 13.2974C15.0216 13.2974 18.0003 10.2737 18.0003 8.35324C18.0003 6.43242 16.443 4.87549 14.5219 4.87549ZM14.5219 9.98586C13.6454 9.98586 12.9348 9.27497 12.9348 8.39852C12.9348 7.52207 13.6457 6.81118 14.5219 6.81118C15.3993 6.81118 16.1095 7.52207 16.1095 8.39852C16.1095 9.27497 15.3993 9.98586 14.5219 9.98586Z" fill="#58C889"/>
<path d="M3.67378 13.0968C3.67378 12.4869 4.16979 11.9909 4.77965 11.9909H8.1878C9.35618 11.9909 10.307 11.0402 10.307 9.87145C10.307 8.70274 9.35618 7.75195 8.1878 7.75195H4.77965V8.76558H8.1878C8.79733 8.76558 9.29333 9.26192 9.29333 9.87145C9.29333 10.4817 8.79733 10.9773 8.1878 10.9773H4.77965C3.61094 10.9773 2.66016 11.9281 2.66016 13.0968C2.66016 14.2655 3.61094 15.2163 4.77965 15.2163H14.522V14.2027H4.77965C4.16979 14.2027 3.67378 13.7067 3.67378 13.0968Z" fill="#58C889"/>
</svg>
