<svg width="16" height="16" viewBox="0 0 16 16" fill="none" xmlns="http://www.w3.org/2000/svg">
<path d="M0.999828 15.8289C0.901288 15.8294 0.803647 15.8102 0.712635 15.7724C0.621623 15.7346 0.539072 15.6791 0.469828 15.6089C0.329377 15.4683 0.250488 15.2777 0.250488 15.0789C0.250488 14.8802 0.329377 14.6896 0.469828 14.5489L14.4698 0.548947C14.612 0.416467 14.8 0.344345 14.9944 0.347773C15.1887 0.351201 15.374 0.429913 15.5114 0.567326C15.6489 0.704739 15.7276 0.890124 15.731 1.08443C15.7344 1.27873 15.6623 1.46677 15.5298 1.60895L1.52983 15.6089C1.46058 15.6791 1.37803 15.7346 1.28702 15.7724C1.19601 15.8102 1.09837 15.8294 0.999828 15.8289Z" fill="#8F9BA1"/>
<path d="M14.9998 15.8289C14.9013 15.8294 14.8037 15.8102 14.7127 15.7724C14.6216 15.7346 14.5391 15.6791 14.4698 15.6089L0.469845 1.60895C0.337365 1.46677 0.265243 1.27873 0.268672 1.08443C0.2721 0.890124 0.350812 0.704739 0.488225 0.567326C0.625638 0.429913 0.811023 0.351201 1.00532 0.347773C1.19963 0.344345 1.38767 0.416467 1.52985 0.548947L15.5298 14.5489C15.6703 14.6896 15.7492 14.8802 15.7492 15.0789C15.7492 15.2777 15.6703 15.4683 15.5298 15.6089C15.4606 15.6791 15.3781 15.7346 15.287 15.7724C15.196 15.8102 15.0984 15.8294 14.9998 15.8289Z" fill="#8F9BA1"/>
</svg>
