<svg width="15" height="18" viewBox="0 0 15 18" fill="none" xmlns="http://www.w3.org/2000/svg">
<path d="M9.5 0H1.5C1.23478 0 0.98043 0.105357 0.792893 0.292893C0.605357 0.48043 0.5 0.734784 0.5 1V17C0.5 17.2652 0.605357 17.5196 0.792893 17.7071C0.98043 17.8946 1.23478 18 1.5 18H13.5C13.7652 18 14.0196 17.8946 14.2071 17.7071C14.3946 17.5196 14.5 17.2652 14.5 17V5L9.5 0ZM9.5 1.41418L13.0858 5H9.5V1.41418ZM13.5 17H1.5V1H8.5V6H13.5V17ZM3.5 11H11.5V12H3.5V11ZM3.5 8H11.5V9H3.5V8ZM3.5 14H11.5V15H3.5V14Z" fill="#58C889"/>
</svg>
