<svg width="49" height="39" viewBox="0 0 49 39" fill="none" xmlns="http://www.w3.org/2000/svg">
<path d="M37.1566 19.3076C32.9386 19.3076 29.5074 22.7387 29.5074 26.9568C29.5074 31.1748 32.9386 34.6059 37.1566 34.6059C41.3746 34.6059 44.8057 31.1748 44.8057 26.9568C44.8057 22.7387 41.3746 19.3076 37.1566 19.3076ZM37.1566 33.1514C33.7411 33.1514 30.962 30.3722 30.962 26.9568C30.962 23.5413 33.7411 20.7622 37.1566 20.7622C40.5721 20.7622 43.3512 23.5413 43.3512 26.9568C43.3512 30.3722 40.5721 33.1514 37.1566 33.1514Z" fill="#58C889"/>
<path d="M11.3 19.3076C7.08199 19.3076 3.65088 22.7387 3.65088 26.9568C3.65088 31.1748 7.08199 34.6059 11.3 34.6059C15.5181 34.6059 18.9492 31.1748 18.9492 26.9568C18.9492 22.7387 15.5181 19.3076 11.3 19.3076ZM11.3 33.1514C7.88454 33.1514 5.10542 30.3722 5.10542 26.9568C5.10542 23.5413 7.88454 20.7622 11.3 20.7622C14.7155 20.7622 17.4946 23.5413 17.4946 26.9568C17.4946 30.3722 14.7155 33.1514 11.3 33.1514Z" fill="#58C889"/>
<path d="M47.42 22.807L42.3852 10.3879C42.3689 10.3481 42.349 10.3098 42.3263 10.2736C42.2787 10.1979 41.3881 8.83128 39.2533 7.93653L37.0443 2.39076C36.8689 1.949 36.5415 1.57968 36.1232 1.34957C35.0244 0.743744 31.2624 -0.942335 29.0209 2.77357C28.8384 3.07613 28.7418 3.43551 28.7418 3.81122V9.52437C27.8436 10.3058 27.1455 11.2359 26.6604 12.3094C25.6756 11.8541 23.9333 11.4045 21.813 12.3512C21.3271 11.2605 20.6242 10.3157 19.7148 9.52437V3.81122C19.7148 3.43551 19.6182 3.07613 19.4357 2.77286C17.1949 -0.941625 13.4321 0.744455 12.3341 1.34957C11.9151 1.57968 11.5876 1.949 11.4129 2.39005L9.20324 7.93653C7.06843 8.83128 6.1778 10.1979 6.13026 10.2736C6.10753 10.3098 6.08765 10.3481 6.07131 10.3879L1.03651 22.807C1.03198 22.8181 1.03407 22.8298 1.03012 22.841C0.517734 24.1149 0.228271 25.5018 0.228271 26.9568C0.228271 33.0612 5.19489 38.0278 11.3 38.0278C17.4044 38.0278 22.371 33.0612 22.371 26.9568C22.371 26.8618 22.3592 26.7697 22.3568 26.6752C22.3573 26.6614 22.3642 26.6497 22.3639 26.6358L22.2654 21.5276C24.0764 20.6666 25.5083 21.1361 26.192 21.4845L26.0926 26.6358C26.0924 26.6497 26.0993 26.6614 26.0998 26.6752C26.0974 26.7697 26.0855 26.8617 26.0855 26.9568C26.0855 33.0612 31.0521 38.0278 37.1565 38.0278C43.2617 38.0278 48.2283 33.0612 48.2283 26.9568C48.2283 25.5017 47.9389 24.1148 47.4264 22.8409C47.4225 22.8297 47.4245 22.8181 47.42 22.807ZM30.2666 3.52428C31.7403 1.08181 34.1281 1.91136 35.4222 2.62372C35.5472 2.69261 35.6409 2.79772 35.6928 2.9284L37.472 7.3944C37.274 7.35427 37.0723 7.31659 36.8604 7.28636C34.4832 6.94856 32.128 7.3794 30.1963 8.49392V3.81122C30.1963 3.70113 30.2212 3.59957 30.2666 3.52428ZM30.8043 9.8169C32.4754 8.81477 34.5521 8.42698 36.6544 8.7267C39.6075 9.14786 40.8597 10.7189 41.0663 11.0065L44.016 18.2823C42.1278 16.786 39.7473 15.8851 37.1565 15.8851C33.2145 15.8851 29.7563 17.9627 27.7943 21.0742C27.7779 20.962 27.7288 20.8587 27.6611 20.7638L27.8043 13.3481C28.3561 11.8673 29.3653 10.6798 30.8043 9.8169ZM12.7645 2.92769C12.8156 2.79772 12.9094 2.69261 13.0351 2.62372C14.3284 1.91136 16.7162 1.08252 18.1899 3.52357C18.2354 3.59957 18.2602 3.70113 18.2602 3.81122V8.49401C16.3279 7.38015 13.972 6.9506 11.5962 7.28636C11.3843 7.31659 11.1826 7.35427 10.9847 7.3944L12.7645 2.92769ZM7.38949 11.0072C7.60469 10.7097 8.85824 9.14644 11.8021 8.7267C13.9001 8.4284 15.9804 8.81477 17.6523 9.8169C19.0912 10.6798 20.1004 11.8673 20.6523 13.3481L20.7951 20.7453C20.7209 20.8449 20.6843 20.9622 20.6679 21.0835C18.707 17.9669 15.246 15.8851 11.3 15.8851C8.7091 15.8851 6.3285 16.7861 4.44027 18.2825L7.38949 11.0072ZM11.3 36.5733C5.99674 36.5733 1.68282 32.2594 1.68282 26.9568C1.68282 25.6342 1.95155 24.3733 2.43663 23.2253L2.44178 23.2125C3.90472 19.7642 7.32424 17.3396 11.3 17.3396C16.6026 17.3396 20.9165 21.6535 20.9165 26.9568C20.9165 32.2594 16.6026 36.5733 11.3 36.5733ZM22.2352 19.9656L22.1166 13.8183C24.1443 12.784 25.7199 13.4225 26.3407 13.7763L26.2222 19.9196C25.2786 19.5757 23.8875 19.3548 22.2352 19.9656ZM37.1565 36.5733C31.854 36.5733 27.5401 32.2594 27.5401 26.9568C27.5401 21.6535 31.854 17.3396 37.1565 17.3396C41.1323 17.3396 44.5518 19.7642 46.0147 23.2125L46.02 23.2254C46.505 24.3734 46.7737 25.6342 46.7737 26.9568C46.7737 32.2594 42.4598 36.5733 37.1565 36.5733Z" fill="#58C889"/>
</svg>
