<svg width="50" height="51" viewBox="0 0 50 51" fill="none" xmlns="http://www.w3.org/2000/svg">
<path d="M41.85 28.0432V35.4674C39.1699 35.4674 36.6895 36.3456 34.6937 37.8339V35.1995C34.6937 31.2707 37.8585 28.0775 41.7815 28.0432C41.8271 28.0775 41.85 28.0775 41.85 28.0432Z" stroke="#58C889" stroke-width="2" stroke-miterlimit="10" stroke-linecap="round" stroke-linejoin="round"/>
<path d="M41.7816 28.0432H41.85C41.85 28.0775 41.8271 28.0775 41.7816 28.0432Z" stroke="#58C889" stroke-width="2" stroke-miterlimit="10" stroke-linecap="round" stroke-linejoin="round"/>
<path d="M49.0005 35.1995V37.8224C47.0047 36.3456 44.53 35.4674 41.85 35.4674V28.0432C43.8286 28.0432 45.6191 28.8472 46.9078 30.1416C48.2022 31.436 49.0005 33.2265 49.0005 35.1995Z" stroke="#58C889" stroke-width="2" stroke-miterlimit="10" stroke-linecap="round" stroke-linejoin="round"/>
<path d="M49.0005 37.8225V42.7206C49.0005 46.6722 45.8016 49.8711 41.85 49.8711C37.8927 49.8711 34.6937 46.6722 34.6937 42.7206V37.8339C36.6895 36.3456 39.1699 35.4675 41.85 35.4675C44.53 35.4675 47.0047 36.3456 49.0005 37.8225Z" stroke="#58C889" stroke-width="2" stroke-miterlimit="10" stroke-linecap="round" stroke-linejoin="round"/>
<path d="M26.8577 35.8013H5.76135C4.48419 35.8013 3.44885 34.766 3.44885 33.4888V4.18359C3.44885 2.90644 4.48419 1.87109 5.76135 1.87109H26.8577C28.1348 1.87109 29.1702 2.90644 29.1702 4.18359V33.4888C29.1702 34.766 28.1348 35.8013 26.8577 35.8013Z" stroke="#58C889" stroke-width="2" stroke-miterlimit="10" stroke-linecap="round" stroke-linejoin="round"/>
<path d="M1.00049 7.01538H5.23658" stroke="#58C889" stroke-width="2" stroke-miterlimit="10" stroke-linecap="round" stroke-linejoin="round"/>
<path d="M1.00049 12.9258H5.23658" stroke="#58C889" stroke-width="2" stroke-miterlimit="10" stroke-linecap="round" stroke-linejoin="round"/>
<path d="M1.00049 18.8362H5.23658" stroke="#58C889" stroke-width="2" stroke-miterlimit="10" stroke-linecap="round" stroke-linejoin="round"/>
<path d="M1.00049 24.7466H5.23658" stroke="#58C889" stroke-width="2" stroke-miterlimit="10" stroke-linecap="round" stroke-linejoin="round"/>
<path d="M1.00049 30.6571H5.23658" stroke="#58C889" stroke-width="2" stroke-miterlimit="10" stroke-linecap="round" stroke-linejoin="round"/>
<path d="M21.0525 6.61401H11.5666V16.0999H21.0525V6.61401Z" stroke="#58C889" stroke-width="2" stroke-miterlimit="10" stroke-linecap="round" stroke-linejoin="round"/>
<path d="M41.85 28.0432V28.0432C41.85 21.4471 36.5028 16.0999 29.9067 16.0999H29.1702" stroke="#58C889" stroke-width="2" stroke-miterlimit="10" stroke-linecap="round" stroke-linejoin="round"/>
</svg>
