<svg width="44" height="44" viewBox="0 0 44 44" fill="none" xmlns="http://www.w3.org/2000/svg">
<path d="M21.8421 8.01556C20.2357 8.01556 18.6654 8.49192 17.3297 9.38441C15.994 10.2769 14.9529 11.5454 14.3382 13.0295C13.7234 14.5137 13.5626 16.1468 13.876 17.7224C14.1894 19.2979 14.9629 20.7452 16.0989 21.8811C17.2348 23.017 18.682 23.7905 20.2576 24.1039C21.8331 24.4173 23.4662 24.2565 24.9504 23.6417C26.4345 23.027 27.703 21.9859 28.5955 20.6502C29.488 19.3146 29.9644 17.7442 29.9644 16.1378C29.962 13.9844 29.1055 11.9199 27.5828 10.3972C26.0601 8.87447 23.9955 8.01797 21.8421 8.01556ZM21.8421 21.8711C20.7082 21.8711 19.5997 21.5349 18.6569 20.9049C17.714 20.2749 16.9792 19.3795 16.5452 18.3318C16.1113 17.2842 15.9977 16.1314 16.219 15.0193C16.4402 13.9071 16.9862 12.8855 17.7881 12.0837C18.5899 11.2819 19.6115 10.7358 20.7236 10.5146C21.8358 10.2934 22.9886 10.4069 24.0362 10.8409C25.0838 11.2748 25.9792 12.0097 26.6092 12.9525C27.2392 13.8954 27.5755 15.0038 27.5755 16.1378C27.5737 17.6578 26.9691 19.1151 25.8943 20.1899C24.8195 21.2648 23.3622 21.8694 21.8421 21.8711Z" fill="#58C889"/>
<path d="M21.8422 0.371094C17.5899 0.371094 13.4331 1.63205 9.89741 3.9945C6.36175 6.35695 3.60605 9.71479 1.97876 13.6434C0.351479 17.572 -0.0742929 21.8949 0.755289 26.0655C1.58487 30.2361 3.63255 34.0671 6.63938 37.0739C9.6462 40.0807 13.4771 42.1284 17.6477 42.958C21.8183 43.7875 26.1412 43.3618 30.0699 41.7345C33.9985 40.1072 37.3563 37.3515 39.7188 33.8158C42.0812 30.2802 43.3422 26.1234 43.3422 21.8711C43.3357 16.1709 41.0685 10.7061 37.0378 6.67543C33.0072 2.6448 27.5423 0.377554 21.8422 0.371094ZM8.51385 35.549C10.4702 30.6988 15.8313 27.3655 21.8422 27.3655C27.853 27.3655 33.2143 30.6988 35.1705 35.549C31.6083 39.032 26.8242 40.9822 21.8422 40.9822C16.8602 40.9822 12.0761 39.032 8.51387 35.549H8.51385ZM36.9075 33.6087C34.2859 28.445 28.3845 24.9766 21.8422 24.9766C15.3 24.9766 9.3986 28.445 6.77683 33.6088C4.57385 30.7864 3.20803 27.4018 2.83504 23.8409C2.46205 20.2799 3.09688 16.6858 4.66719 13.4682C6.2375 10.2505 8.68013 7.53862 11.7167 5.64164C14.7533 3.74467 18.2617 2.73887 21.8421 2.73886C25.4225 2.73885 28.931 3.74464 31.9676 5.64161C35.0041 7.53857 37.4468 10.2504 39.0171 13.4681C40.5874 16.6858 41.2223 20.2799 40.8493 23.8408C40.4763 27.4017 39.1105 30.7863 36.9075 33.6087V33.6087Z" fill="#58C889"/>
</svg>
