<svg width="48" height="48" viewBox="0 0 48 48" fill="none" xmlns="http://www.w3.org/2000/svg">
<g clip-path="url(#clip0)">
<path d="M25.6165 -0.0447575C25.0264 0.307393 24.8511 1.08072 25.222 1.68205L28.8273 7.43624C21.6688 5.29141 13.913 7.08698 8.62583 12.3742C0.690374 20.3096 0.91146 33.4427 9.11867 41.6499C17.3257 49.8569 30.4588 50.078 38.3942 42.1426C44.1911 36.3458 45.828 27.5723 42.5642 19.792C42.2915 19.1415 41.5499 18.8181 40.9082 19.0691C40.2697 19.3205 39.9676 20.0508 40.2407 20.7016C43.1065 27.5335 41.6694 35.2371 36.5791 40.3274C29.6113 47.2952 18.0799 47.1011 10.8737 39.8949C3.66733 32.6885 3.47321 21.1571 10.441 14.1893C15.2538 9.37651 22.3954 7.85811 28.8675 10.0737L22.2536 13.3227C21.6346 13.6242 21.3948 14.3782 21.7168 15.0065C22.0388 15.6354 22.8011 15.9012 23.4197 15.6004L32.4843 11.1543C32.9048 10.9271 33.0673 10.5786 33.1201 10.3854C33.179 10.1697 33.212 9.80947 32.9691 9.37864L27.3577 0.408334C26.9857 -0.193848 26.2062 -0.396565 25.6165 -0.0447575Z" fill="#58C889"/>
</g>
<defs>
<clipPath id="clip0">
<rect width="48" height="48" fill="white"/>
</clipPath>
</defs>
</svg>
