<svg width="50" height="49" viewBox="0 0 50 49" fill="none" xmlns="http://www.w3.org/2000/svg">
<path d="M45.2179 17.2983H42.7716C42.5537 12.7316 40.5862 8.4241 37.2772 5.26927C33.9683 2.11445 29.5719 0.354492 25 0.354492C20.4282 0.354492 16.0317 2.11445 12.7228 5.26927C9.41386 8.4241 7.44637 12.7316 7.22847 17.2983H4.78211C3.71008 17.2996 2.68232 17.726 1.92428 18.4841C1.16624 19.2421 0.73981 20.2699 0.738525 21.3419V27.8116C0.73981 28.8837 1.16624 29.9114 1.92428 30.6694C2.68232 31.4275 3.71008 31.8539 4.78211 31.8552H8.01697C8.66043 31.8552 9.27753 31.5996 9.73252 31.1446C10.1875 30.6896 10.4431 30.0725 10.4431 29.4291V19.7245C10.4409 19.2306 10.288 18.7493 10.0049 18.3446C9.72182 17.94 9.32199 17.6314 8.85885 17.4601C9.02065 13.2874 10.792 9.33959 13.8014 6.44466C16.8108 3.54972 20.8243 1.93265 25 1.93265C29.1758 1.93265 33.1893 3.54972 36.1987 6.44466C39.208 9.33959 40.9794 13.2874 41.1412 17.4601C40.678 17.6314 40.2782 17.94 39.9951 18.3446C39.712 18.7493 39.5592 19.2306 39.5569 19.7245V29.4291C39.559 29.9291 39.7155 30.4162 40.005 30.8238C40.2945 31.2315 40.7029 31.5397 41.1744 31.7064V34.2814C41.1702 36.9489 40.1526 39.5152 38.3275 41.4607C36.5024 43.4062 34.0063 44.5855 31.3444 44.7599C31.1596 44.0757 30.7553 43.4711 30.1935 43.0391C29.6317 42.6071 28.9436 42.3715 28.2349 42.3685H21.7652C20.9072 42.3685 20.0844 42.7093 19.4778 43.316C18.8711 43.9226 18.5303 44.7454 18.5303 45.6034C18.5303 46.4613 18.8711 47.2841 19.4778 47.8908C20.0844 48.4974 20.9072 48.8382 21.7652 48.8382H28.2349C28.9567 48.8361 29.657 48.5926 30.2244 48.1465C30.7918 47.7004 31.1937 47.0774 31.3662 46.3765C34.4532 46.1956 37.3546 44.8431 39.4781 42.5952C41.6015 40.3473 42.7868 37.3736 42.7918 34.2814V31.8552H45.2179C46.29 31.8539 47.3177 31.4275 48.0758 30.6694C48.8338 29.9114 49.2602 28.8837 49.2615 27.8116V21.3419C49.2602 20.2699 48.8338 19.2421 48.0758 18.4841C47.3177 17.726 46.29 17.2996 45.2179 17.2983ZM5.59082 30.2378H4.78211C4.13865 30.2378 3.52155 29.9822 3.06656 29.5272C2.61157 29.0722 2.35596 28.4551 2.35596 27.8116V21.3419C2.35596 20.6984 2.61157 20.0813 3.06656 19.6263C3.52155 19.1714 4.13865 18.9157 4.78211 18.9157H5.59082V30.2378ZM8.82569 29.4291C8.82569 29.6435 8.74049 29.8492 8.58882 30.0009C8.43716 30.1526 8.23146 30.2378 8.01697 30.2378H7.20826V18.9157H8.01697C8.23146 18.9157 8.43716 19.0009 8.58882 19.1526C8.74049 19.3043 8.82569 19.51 8.82569 19.7245V29.4291ZM28.2349 47.2208H21.7652C21.3362 47.2208 20.9248 47.0504 20.6215 46.7471C20.3181 46.4438 20.1477 46.0324 20.1477 45.6034C20.1477 45.1744 20.3181 44.763 20.6215 44.4597C20.9248 44.1564 21.3362 43.986 21.7652 43.986H28.2349C28.6639 43.986 29.0753 44.1564 29.3786 44.4597C29.6819 44.763 29.8523 45.1744 29.8523 45.6034C29.8523 46.0324 29.6819 46.4438 29.3786 46.7471C29.0753 47.0504 28.6639 47.2208 28.2349 47.2208ZM42.7918 30.2378H41.9831C41.7686 30.2378 41.5629 30.1526 41.4112 30.0009C41.2596 29.8492 41.1744 29.6435 41.1744 29.4291V19.7245C41.1744 19.51 41.2596 19.3043 41.4112 19.1526C41.5629 19.0009 41.7686 18.9157 41.9831 18.9157H42.7918V30.2378ZM47.6441 27.8116C47.6441 28.4551 47.3885 29.0722 46.9335 29.5272C46.4785 29.9822 45.8614 30.2378 45.2179 30.2378H44.4092V18.9157H45.2179C45.8614 18.9157 46.4785 19.1714 46.9335 19.6263C47.3885 20.0813 47.6441 20.6984 47.6441 21.3419V27.8116Z" fill="#58C889"/>
<path d="M36.322 24.5769C36.322 22.3376 35.658 20.1486 34.4139 18.2867C33.1699 16.4248 31.4016 14.9737 29.3328 14.1167C27.2639 13.2598 24.9875 13.0356 22.7912 13.4724C20.5949 13.9093 18.5775 14.9876 16.9941 16.571C15.4107 18.1544 14.3324 20.1718 13.8955 22.3681C13.4587 24.5644 13.6829 26.8408 14.5398 28.9097C15.3968 30.9785 16.8479 32.7468 18.7098 33.9908C20.5717 35.2349 22.7607 35.8989 25 35.8989C28.0018 35.8957 30.8798 34.7019 33.0024 32.5793C35.125 30.4567 36.3188 27.5787 36.322 24.5769ZM15.2954 24.5769C15.2954 22.6575 15.8646 20.7812 16.9309 19.1853C17.9973 17.5894 19.5129 16.3456 21.2862 15.611C23.0595 14.8765 25.0108 14.6843 26.8933 15.0588C28.7758 15.4332 30.505 16.3575 31.8622 17.7147C33.2194 19.0719 34.1437 20.8011 34.5181 22.6836C34.8926 24.5662 34.7004 26.5174 33.9659 28.2907C33.2314 30.064 31.9875 31.5796 30.3916 32.646C28.7957 33.7124 26.9194 34.2815 25 34.2815C22.427 34.2787 19.9603 33.2554 18.1409 31.436C16.3215 29.6167 15.2982 27.1499 15.2954 24.5769Z" fill="#58C889"/>
<path d="M31.2328 19.4878L30.0892 18.3442L25 23.4335L22.3369 20.7704L21.1934 21.9139L25 25.7205L31.2328 19.4878Z" fill="#58C889"/>
</svg>
