<svg width="38" height="39" viewBox="0 0 38 39" fill="none" xmlns="http://www.w3.org/2000/svg">
<path d="M36.8488 20.3192H26.6567C26.3276 20.3192 26.013 20.4607 25.795 20.7081L22.3976 24.5553C22.0133 24.9908 22.0133 25.6437 22.3976 26.0786L25.795 29.9258C26.013 30.1731 26.3276 30.3146 26.6567 30.3146H36.8494C37.4851 30.3146 37.9999 29.7992 37.9999 29.1642V21.4697C37.9993 20.8341 37.4851 20.3192 36.8488 20.3192ZM35.6983 28.0131H27.1755L24.7935 25.3164L27.1755 22.6196H35.6983V28.0131Z" fill="#58C889"/>
<path d="M33.9911 31.9143C33.3561 31.9143 32.8406 32.4298 32.8406 33.0648V36.3075H2.3004V14.2642C3.02348 14.6726 3.85356 14.8998 4.70376 14.8998C4.70607 14.8998 4.70837 14.8998 4.71067 14.8998L32.7687 14.8544V17.9653C32.7687 18.6003 33.2842 19.1158 33.9192 19.1158C34.5549 19.1158 35.0697 18.6003 35.0697 17.9653V13.7625C35.0709 13.7418 35.0766 13.7217 35.0766 13.7004C35.0755 13.0653 34.5439 12.535 33.9238 12.5517L10.0512 12.5902L28.9388 3.64632L31.8903 10.0292C32.1567 10.6062 32.8406 10.8576 33.417 10.5907C33.9934 10.3237 34.2448 9.64035 33.979 9.06338L30.5397 1.62721C30.4114 1.34879 30.1767 1.13365 29.8879 1.02896C29.5991 0.924264 29.2799 0.939221 29.0038 1.07038L4.66465 12.5954C4.00369 12.585 3.36978 12.3285 2.92109 11.8809C2.52129 11.4817 2.30097 10.968 2.30097 10.4359V10.3508V9.61159C2.30097 8.41911 3.38128 7.4481 4.70952 7.4481H13.4072C14.0423 7.4481 14.5577 6.93268 14.5577 6.29761C14.5577 5.66254 14.0423 5.14713 13.4072 5.14713H4.70952C2.11287 5.14713 0 7.14955 0 9.61159V10.3508V10.4359V37.458C0 38.093 0.515418 38.6085 1.15049 38.6085H33.8485C34.1867 38.6085 34.4876 38.4589 34.6993 38.2265C34.9667 38.016 35.1422 37.6927 35.1422 37.3257V33.0654C35.1416 32.4292 34.6268 31.9143 33.9911 31.9143Z" fill="#58C889"/>
</svg>
