<svg width="39" height="39" viewBox="0 0 39 39" fill="none" xmlns="http://www.w3.org/2000/svg">
<path d="M37.6639 4.40301H29.5449V1.43226C29.5449 1.21052 29.4568 0.997864 29.3 0.841071C29.1432 0.684277 28.9306 0.596191 28.7088 0.596191C28.4871 0.596191 28.2744 0.684277 28.1176 0.841071C27.9608 0.997864 27.8728 1.21052 27.8728 1.43226V4.40301H11.5624V1.43226C11.5624 1.21052 11.4743 0.997864 11.3176 0.841071C11.1608 0.684277 10.9481 0.596191 10.7264 0.596191C10.5046 0.596191 10.292 0.684277 10.1352 0.841071C9.97837 0.997864 9.89029 1.21052 9.89029 1.43226V4.40301H1.33607C1.11433 4.40302 0.901683 4.49111 0.744892 4.6479C0.5881 4.80469 0.500011 5.01734 0.5 5.23908V37.2163C0.499971 37.3261 0.521578 37.4349 0.563584 37.5363C0.60559 37.6378 0.667174 37.7299 0.744816 37.8076C0.822458 37.8852 0.914637 37.9468 1.01609 37.9888C1.11754 38.0308 1.22627 38.0524 1.33607 38.0524H37.6639C37.7737 38.0525 37.8825 38.0309 37.984 37.9889C38.0854 37.9469 38.1776 37.8853 38.2553 37.8077C38.3329 37.73 38.3945 37.6378 38.4365 37.5364C38.4785 37.4349 38.5001 37.3261 38.5 37.2163V5.23908C38.5 5.12927 38.4784 5.02054 38.4364 4.91909C38.3944 4.81764 38.3328 4.72546 38.2552 4.64782C38.1775 4.57018 38.0854 4.5086 37.9839 4.46659C37.8825 4.42458 37.7737 4.40298 37.6639 4.40301ZM9.89029 6.07515V11.5112C9.89029 11.733 9.97837 11.9456 10.1352 12.1024C10.292 12.2592 10.5046 12.3473 10.7264 12.3473C10.9481 12.3473 11.1608 12.2592 11.3176 12.1024C11.4743 11.9456 11.5624 11.733 11.5624 11.5112V6.07515H27.8728V11.5112C27.8728 11.733 27.9608 11.9456 28.1176 12.1024C28.2744 12.2592 28.4871 12.3473 28.7088 12.3473C28.9306 12.3473 29.1432 12.2592 29.3 12.1024C29.4568 11.9456 29.5449 11.733 29.5449 11.5112V6.07515H36.8279V15.6059H2.17214V6.07515H9.89029ZM2.17214 36.3803V17.278H36.8279V36.3803H2.17214Z" fill="#58C889"/>
<path d="M27.0996 19.96L18.9614 29.5287L13.856 23.8582C13.7826 23.7766 13.6938 23.7103 13.5947 23.663C13.4956 23.6158 13.3882 23.5885 13.2785 23.5827C13.1689 23.5769 13.0592 23.5928 12.9557 23.6295C12.8522 23.6661 12.757 23.7227 12.6754 23.7962C12.5938 23.8696 12.5275 23.9584 12.4802 24.0575C12.4329 24.1566 12.4056 24.264 12.3998 24.3736C12.3882 24.5951 12.465 24.812 12.6133 24.9768L18.3581 31.3576C18.4364 31.4447 18.5323 31.5143 18.6393 31.562C18.7463 31.6097 18.8622 31.6343 18.9794 31.6343H18.9912C19.1104 31.6326 19.2278 31.6054 19.3356 31.5546C19.4434 31.5037 19.5391 31.4304 19.6162 31.3396L28.3733 21.043C28.5167 20.8741 28.5872 20.6551 28.5692 20.4343C28.5512 20.2135 28.4463 20.0088 28.2775 19.8652C28.1087 19.7217 27.8898 19.6511 27.669 19.6688C27.4481 19.6866 27.2433 19.7913 27.0996 19.96Z" fill="#58C889"/>
</svg>
