<svg width="40" height="38" viewBox="0 0 40 38" fill="none" xmlns="http://www.w3.org/2000/svg">
<path d="M39.0112 10.7041C39.0041 10.6355 38.9829 10.5691 38.9492 10.509L34.2934 0.754018C34.2215 0.603108 34.1084 0.475583 33.9672 0.386147C33.826 0.296712 33.6624 0.249008 33.4953 0.248535H5.53404C5.36689 0.249008 5.20328 0.296712 5.06206 0.386147C4.92085 0.475583 4.80779 0.603108 4.73591 0.754018L0.0801442 10.509C0.0463605 10.5691 0.0252344 10.6355 0.0180668 10.7041C0.00895171 10.7806 0.00895171 10.858 0.0180668 10.9346C0.0180668 10.9346 0.0180668 10.979 0.0180668 10.9967C0.0139323 11.0498 0.0139323 11.1032 0.0180668 11.1563C0.0180668 11.1563 0.0180668 11.2095 0.0180668 11.245C0.0180668 11.2805 0.0180669 11.316 0.0624076 11.3426L18.6855 37.0601C18.7282 37.1118 18.7757 37.1593 18.8274 37.202L18.8983 37.2464L19.0491 37.3262H19.12C19.2822 37.3735 19.4545 37.3735 19.6166 37.3262H19.6876L19.8383 37.2464L19.9093 37.202C19.9609 37.1593 20.0084 37.1118 20.0512 37.0601L38.6742 11.3426C38.6742 11.3426 38.6742 11.2716 38.6742 11.245C38.6742 11.2184 38.6742 11.1918 38.6742 11.1563C38.6784 11.1032 38.6784 11.0498 38.6742 10.9967C38.6742 10.9967 38.6742 10.9524 38.6742 10.9346C38.8016 10.8824 38.9164 10.8038 39.0112 10.7041ZM36.7233 9.98574H28.9902L26.0904 2.00442H32.91L36.7233 9.98574ZM11.8925 11.7594H27.1279L19.5013 33.8676L11.8925 11.7594ZM24.2015 2.00442L27.1013 9.98574H11.9014L14.8012 2.00442H24.2015ZM6.09273 2.00442H12.9123L10.0124 9.98574H2.27944L6.09273 2.00442ZM10.0036 11.7594L16.7168 31.2692L2.6519 11.7594H10.0036ZM22.2859 31.2692L28.9991 11.7594H36.3508L22.2859 31.2692Z" fill="#58C889"/>
</svg>
