<svg width="51" height="44" viewBox="0 0 51 44" fill="none" xmlns="http://www.w3.org/2000/svg">
<path d="M0.191254 12.2831C0.332261 12.8697 0.698878 13.3716 1.21778 13.6818L3.26519 14.9227L1.30239 18.1489C1.24034 18.2505 1.21214 18.3633 1.20086 18.4761C1.15574 18.7694 1.28546 19.0739 1.5562 19.2375L9.6556 24.1614C9.66124 24.2009 9.64996 24.2348 9.66125 24.2743L9.97146 25.5433C10.214 26.5473 10.4847 27.6866 11.4097 28.2506L14.9744 30.4165L12.9664 34.5395C12.8593 34.5339 12.7521 34.517 12.6449 34.517C11.0713 34.517 9.63868 35.3066 8.79829 36.632L3.60361 36.6377C2.34583 36.5362 1.29674 37.3878 1.25162 38.5159V39.7173C1.21214 40.8002 2.23867 41.8324 3.45696 41.917C3.47388 41.917 3.4908 41.917 3.51337 41.917L9.05774 41.9113C9.39051 42.3344 9.79097 42.701 10.2591 42.9886C10.9754 43.4229 11.7933 43.6542 12.628 43.6542C14.2355 43.6542 15.6963 42.8363 16.5311 41.4601C17.1628 40.4167 17.3546 39.1927 17.0669 38.0083C17.0443 37.8785 16.9879 37.7657 16.9428 37.6417C17.253 37.3766 17.4956 37.0269 17.7043 36.632L19.4132 33.1182L21.7314 34.5282C22.0924 34.7482 22.5154 34.8554 23.0117 34.8554C23.604 34.8554 24.2075 34.7031 24.7941 34.5564L26.0688 34.2519C26.1026 34.2406 26.1364 34.218 26.1703 34.2067L37.7215 41.2289C38.0769 41.4432 38.545 41.3304 38.7593 40.9751L39.752 39.3619C39.9099 39.5481 40.0904 39.7173 40.3048 39.8526L42.2394 41.0315C42.5947 41.2458 43.0008 41.3642 43.4182 41.3642C44.2191 41.3642 44.941 40.9581 45.3584 40.2757L50.068 32.5259C50.3839 32.007 50.4741 31.3979 50.3331 30.8113C50.1921 30.2247 49.8255 29.7227 49.3066 29.4125L47.575 28.3634C48.5339 27.9686 49.2446 27.6753 49.5209 27.5625C50.2147 27.2862 50.7223 26.6488 50.8464 25.9099C50.9648 25.2049 50.7223 24.5111 50.1921 24.0599C50.0962 23.981 49.9947 23.902 49.8876 23.8343L14.1847 2.20957C12.9439 1.33533 11.4943 0.867188 10.0053 0.867188C7.84508 0.867188 5.87099 1.85423 4.84447 3.45607L0.456347 10.5684C0.140492 11.0873 0.0446078 11.6965 0.191254 12.2831ZM3.54721 40.4054C3.10163 40.3603 2.75757 39.9936 2.76885 39.7455V38.5441C2.78013 38.3241 3.06779 38.1436 3.41184 38.1436L3.54157 38.1493L8.17222 38.1436C8.03121 38.8035 8.03685 39.4917 8.20042 40.1685C8.21734 40.2475 8.25682 40.3208 8.27938 40.3997L3.54721 40.4054ZM15.2451 40.6761C14.6867 41.5955 13.7109 42.1426 12.6337 42.1426C12.0753 42.1426 11.5282 41.9903 11.0487 41.697C10.3494 41.274 9.85865 40.6028 9.66689 39.8075C9.47512 39.0122 9.5992 38.1944 10.0222 37.495C10.5806 36.5756 11.5564 36.0285 12.6337 36.0285C13.192 36.0285 13.7392 36.1808 14.2186 36.4741C14.918 36.8971 15.4087 37.5683 15.6004 38.3636C15.7978 39.1532 15.6681 39.9767 15.2451 40.6761ZM22.521 33.2366L19.4922 31.3979C19.3117 31.2851 19.0918 31.2569 18.8887 31.3189C18.6857 31.381 18.5164 31.522 18.4206 31.7137L16.3619 35.9439C16.2942 36.068 16.2378 36.1583 16.187 36.2429C15.8599 35.8311 15.4651 35.4645 15.0026 35.1881C14.8277 35.081 14.6472 34.9907 14.4611 34.9061L16.5198 30.6647C16.768 30.2416 16.7792 29.7566 16.1983 29.4012L12.1824 26.959C11.8045 26.7334 11.6128 25.9607 11.4436 25.2613L24.3598 33.1182C23.6265 33.293 22.8538 33.4397 22.521 33.2366ZM37.8625 39.5481L2.96062 18.3294L4.55117 15.7123L33.198 33.0843C33.5646 33.3099 33.999 33.4227 34.4727 33.4227C34.9522 33.4227 35.488 33.3099 36.1028 33.0731C36.2212 33.0279 40.0904 31.4374 43.6664 29.9653L37.8625 39.5481ZM48.5283 30.6929C48.7031 30.7944 48.8215 30.9636 48.8723 31.161C48.9174 31.3584 48.8892 31.5615 48.7821 31.7307L44.0724 39.4804C43.8638 39.8244 43.3843 39.9485 43.0346 39.7342L41.1 38.5554C40.9252 38.4482 40.8067 38.2846 40.756 38.0872C40.7221 37.9575 40.7391 37.8278 40.7785 37.7037L45.7363 29.6438C45.9225 29.39 46.2665 29.3336 46.5936 29.514L48.5283 30.6929ZM1.74232 11.3581L6.13044 4.2457C6.87496 3.08381 8.36399 2.3675 10.0109 2.3675C11.1898 2.3675 12.3347 2.73411 13.3669 3.46171L49.1092 25.1146C49.1487 25.1372 49.1825 25.1654 49.2164 25.1936C49.3856 25.3403 49.3856 25.5433 49.3686 25.6505C49.3404 25.831 49.2164 26.0566 48.9626 26.1581C44.4334 28.0194 35.8095 31.5727 35.5669 31.6686C34.8393 31.945 34.3092 31.9958 33.9877 31.7984L2.00178 12.3902C1.82693 12.2831 1.70848 12.1195 1.65772 11.9221C1.6126 11.7303 1.6408 11.5273 1.74232 11.3581Z" fill="#58C889"/>
</svg>
