<svg width="42" height="43" viewBox="0 0 42 43" fill="none" xmlns="http://www.w3.org/2000/svg">
<g opacity="0.9">
<path d="M29.5069 0.28418H0.46521V22.4925H4.73604V30.6813L12.1779 22.4925H12.4235V34.4508H29.7504L37.1944 42.6397V34.4508H41.4652V12.2425H29.5069V0.28418ZM11.4221 20.7842L6.44438 26.262V20.7842H2.17354V1.99251H27.7985V12.2425H12.4235V20.7842H11.4221ZM39.7569 32.7425H35.486V38.2203L30.5062 32.7425H14.1319V13.9508H39.7569V32.7425Z" fill="#58C889"/>
<path d="M25.2361 5.40918H4.73608V7.11751H25.2361V5.40918Z" fill="#58C889"/>
<path d="M36.3402 17.3684H17.5486V19.0767H36.3402V17.3684Z" fill="#58C889"/>
<path d="M36.3402 22.4934H17.5486V24.2017H36.3402V22.4934Z" fill="#58C889"/>
<path d="M36.3402 27.6184H17.5486V29.3267H36.3402V27.6184Z" fill="#58C889"/>
</g>
</svg>
