<svg width="58" height="36" viewBox="0 0 58 36" fill="none" xmlns="http://www.w3.org/2000/svg">
<path d="M49.2738 35.4122C49.4343 35.4122 49.5883 35.3485 49.7018 35.235C49.8153 35.1215 49.879 34.9675 49.879 34.807V30.9943C50.8075 30.7764 51.6352 30.2515 52.2283 29.5046C52.8213 28.7578 53.1451 27.8327 53.1471 26.879V22.3401C54.3843 21.9345 55.4472 21.1208 56.1618 20.0324C56.8764 18.944 57.2004 17.6453 57.0808 16.3487C56.9496 14.945 56.3124 13.6368 55.288 12.6681C54.2636 11.6994 52.9219 11.1362 51.513 11.0836C50.9632 11.081 50.4149 11.1419 49.879 11.2651V6.12103C49.879 4.67647 49.3052 3.29108 48.2837 2.26962C47.2623 1.24816 45.8769 0.674316 44.4323 0.674316H13.5676C12.1231 0.674316 10.7377 1.24816 9.71623 2.26962C8.69477 3.29108 8.12092 4.67647 8.12092 6.12103V11.2651C7.58506 11.1419 7.03675 11.081 6.48691 11.0836C5.07801 11.1362 3.73631 11.6994 2.71192 12.6681C1.68753 13.6368 1.05036 14.945 0.919162 16.3487C0.799533 17.6453 1.12354 18.944 1.83815 20.0324C2.55276 21.1208 3.61566 21.9345 4.8529 22.3401V26.879C4.8549 27.8327 5.17863 28.7578 5.7717 29.5046C6.36478 30.2515 7.19249 30.7764 8.12092 30.9943V35.0491C8.13456 35.205 8.2027 35.3512 8.31337 35.4618C8.42405 35.5725 8.57019 35.6407 8.72611 35.6543C8.88662 35.6543 9.04055 35.5905 9.15405 35.477C9.26754 35.3635 9.3313 35.2096 9.3313 35.0491V31.1154H48.6687V34.807C48.6589 34.8888 48.6679 34.9718 48.6948 35.0497C48.7218 35.1275 48.7661 35.1982 48.8244 35.2565C48.8826 35.3148 48.9534 35.359 49.0312 35.386C49.1091 35.413 49.192 35.422 49.2738 35.4122ZM9.3313 6.12103C9.3313 4.99748 9.77763 3.91995 10.5721 3.12549C11.3666 2.33102 12.4441 1.8847 13.5676 1.8847H44.4323C45.5559 1.8847 46.6334 2.33102 47.4279 3.12549C48.2223 3.91995 48.6687 4.99748 48.6687 6.12103V11.7493C48.165 11.9805 47.7124 12.3097 47.3372 12.7176C46.591 13.4299 46.0479 14.3282 45.7637 15.3199H12.2362C11.9521 14.3282 11.409 13.4299 10.6627 12.7176C10.2876 12.3097 9.83497 11.9805 9.3313 11.7493V6.12103ZM12.4178 16.5303H45.5822V22.4612H12.4178V16.5303ZM6.06328 26.879V21.856C6.06613 21.7144 6.01925 21.5763 5.93078 21.4657C5.84232 21.3551 5.71788 21.2791 5.57913 21.2508C4.51795 20.9936 3.58503 20.3626 2.95143 19.4733C2.31784 18.5841 2.02604 17.4962 2.12954 16.4093C2.2457 15.3058 2.75683 14.2815 3.56872 13.5252C4.3806 12.769 5.43851 12.3317 6.54743 12.294H6.66847C7.25136 12.2845 7.83023 12.3921 8.37078 12.6104C8.91134 12.8287 9.40259 13.1533 9.81545 13.5649C10.2525 13.9901 10.6007 14.498 10.8396 15.0591C11.0786 15.6201 11.2036 16.2231 11.2074 16.8329V23.0663C11.221 23.2223 11.2892 23.3684 11.3998 23.4791C11.5105 23.5898 11.6567 23.6579 11.8126 23.6715H46.1874C46.3433 23.6579 46.4894 23.5898 46.6001 23.4791C46.7108 23.3684 46.7789 23.2223 46.7926 23.0663V16.8329C46.7963 16.2231 46.9214 15.6201 47.1603 15.0591C47.3993 14.498 47.7474 13.9901 48.1845 13.5649C48.6115 13.1382 49.1225 12.805 49.685 12.5862C50.2476 12.3674 50.8495 12.2679 51.4525 12.294C52.5614 12.3317 53.6194 12.769 54.4312 13.5252C55.2431 14.2815 55.7543 15.3058 55.8704 16.4093C55.9739 17.4962 55.6821 18.5841 55.0485 19.4733C54.4149 20.3626 53.482 20.9936 52.4208 21.2508C52.2821 21.2791 52.1576 21.3551 52.0692 21.4657C51.9807 21.5763 51.9338 21.7144 51.9367 21.856V26.879C51.9367 27.6816 51.6179 28.4512 51.0504 29.0187C50.4829 29.5862 49.7133 29.905 48.9107 29.905H9.08923C8.2867 29.905 7.51703 29.5862 6.94956 29.0187C6.38208 28.4512 6.06328 27.6816 6.06328 26.879Z" fill="#58C889"/>
</svg>
