<svg width="42" height="50" viewBox="0 0 42 50" fill="none" xmlns="http://www.w3.org/2000/svg">
<path d="M26.6003 34.424L37.8755 27.5913V0.277344L26.6003 7.63595L15.2926 0.277344L4.0481 6.06008V34.424L15.3233 27.3283L26.6003 34.424ZM16.1804 25.8498V15.9216L25.8302 22.2029V31.9228L16.2333 25.8839L16.1804 25.8498ZM27.5376 31.8596V21.6736L36.1681 16.0429V26.63L27.5376 31.8596ZM36.1681 14.0026L27.5376 19.6351V9.06157L36.1681 3.42908V14.0026ZM25.8302 9.17084V20.1644L16.1804 13.8848V2.89127L25.6698 9.06669L25.8302 9.17084ZM14.4731 2.6198V14.1699L5.75543 18.6517V7.10155L14.4731 2.6198ZM5.75543 31.332V20.5707L14.4731 16.0872V25.8464L14.415 25.8822L5.75543 31.332Z" fill="#58C889"/>
<path d="M41.4899 42.9404H12.4652V44.6478H41.4899V42.9404Z" fill="#58C889"/>
<path d="M41.5 47.5625H12.4753V49.2698H41.5V47.5625Z" fill="#58C889"/>
<path d="M7.86885 42.4215H0.5V49.7887H7.86714V42.4215H7.86885ZM6.16152 48.0813H2.20733V44.1288H6.15981V48.0813H6.16152Z" fill="#58C889"/>
</svg>
