<svg width="36" height="41" viewBox="0 0 36 41" fill="none" xmlns="http://www.w3.org/2000/svg">
<path d="M30.539 4.22898C36.7046 9.31291 37.5699 18.5072 32.3778 24.6729C27.4021 30.514 18.8567 31.5957 12.6911 27.1607L2.19876 39.7083C1.22524 40.79 -0.397293 39.3838 0.468057 38.3021L11.0686 25.7546C5.55199 20.4543 5.11931 11.8008 9.98691 5.95968C15.179 -0.205942 24.3733 -0.963124 30.539 4.22898ZM29.1328 5.85151C23.9407 1.41659 16.0444 2.0656 11.7176 7.36587C7.28269 12.6661 7.9317 20.4543 13.232 24.8892C18.4241 29.216 26.3204 28.5669 30.7553 23.3748C35.0821 18.0746 34.433 10.2864 29.1328 5.85151Z" fill="#58C889"/>
<path d="M25.9959 9.52931C24.9142 8.66396 26.3204 7.04143 27.4021 7.90678C31.5125 11.3682 32.0533 17.5338 28.5919 21.6442C27.7266 22.7259 26.104 21.3197 26.9694 20.238C29.6736 16.993 29.2409 12.2335 25.9959 9.52931Z" fill="#58C889"/>
</svg>
