<svg width="38" height="39" viewBox="0 0 38 39" fill="none" xmlns="http://www.w3.org/2000/svg">
<path d="M19.105 0.674352C14.1029 0.664771 9.37961 2.56985 5.81857 6.0909C2.25795 9.61153 0.281629 14.3082 0.253717 19.3157C0.19581 29.6526 8.55809 38.109 18.8946 38.1669C18.9304 38.1669 18.9654 38.1669 19.0013 38.1669C29.2886 38.1669 37.688 29.8263 37.7463 19.5256C37.8042 9.18911 29.4415 0.732259 19.105 0.674352ZM19.0013 36.1935C18.9696 36.1935 18.9375 36.1935 18.9059 36.1935C9.65748 36.1419 2.17505 28.5753 2.22712 19.3269C2.25212 14.8464 4.02055 10.6443 7.20624 7.49399C10.369 4.3662 14.5529 2.64776 18.9971 2.64776C19.0292 2.64776 19.0617 2.64776 19.0937 2.64776C28.3425 2.69983 35.825 10.2664 35.7733 19.5148C35.7212 28.7315 28.2067 36.1935 19.0013 36.1935Z" fill="#58C889"/>
<path d="M19.8719 9.86133C19.3137 9.86924 18.8829 10.2975 18.8796 10.8424L18.8321 19.3497L11.0656 27.0296C10.6781 27.4128 10.6744 28.0373 11.0577 28.4247C11.251 28.6201 11.5051 28.7176 11.7592 28.7176C12.01 28.7176 12.2608 28.6226 12.4528 28.4326L20.269 20.7036C20.611 20.3653 20.8014 19.9133 20.8047 19.4301L20.8526 10.8528C20.8559 10.3087 20.4164 9.86466 19.8719 9.86133Z" fill="#58C889"/>
</svg>
