<svg width="68" height="38" viewBox="0 0 68 38" fill="none" xmlns="http://www.w3.org/2000/svg">
<path d="M6.18116 29.0805C4.81861 29.0805 3.68314 30.216 3.68314 31.73C3.68314 33.2439 4.81861 34.3794 6.18116 34.3794C7.54372 34.3794 8.67918 33.2439 8.67918 31.73C8.67918 30.216 7.54372 29.0805 6.18116 29.0805ZM6.18116 32.7897C5.65128 32.7897 5.1971 32.2598 5.1971 31.6543C5.1971 31.0487 5.65128 30.5188 6.18116 30.5188C6.71105 30.5188 7.16523 31.0487 7.16523 31.6543C7.16523 32.2598 6.71105 32.7897 6.18116 32.7897ZM28.1335 12.1243L25.7868 6.67406V6.59836C25.6354 5.99278 25.0299 5.5386 24.4243 5.5386H17.0816C16.3246 5.5386 15.7191 6.14418 15.7191 6.90115V12.1243C15.7191 12.5785 15.4163 12.8813 14.9621 12.8813C14.5079 12.8813 14.2051 12.5785 14.2051 12.1243V6.90116C14.2051 5.31151 15.492 4.02465 17.0816 4.02465H24.4243C25.7111 4.02465 26.9223 4.93302 27.2251 6.14418L29.496 11.5944C29.6474 11.9729 29.496 12.4271 29.1175 12.5785C28.739 12.7299 28.2849 12.5028 28.1335 12.1243ZM67.042 35.6662C66.7392 35.5148 59.6994 31.1244 60.2292 19.1642C60.2292 18.9371 60.1535 18.71 60.0021 18.5586C59.7751 18.4072 59.548 18.3315 59.3209 18.3315L54.022 19.2399C53.7949 19.2399 53.6435 19.3913 53.5678 19.5427C53.4165 19.694 53.4165 19.9211 53.4165 20.0725L55.2332 30.8973H52.6595C52.4324 28.8535 51.0698 27.1881 49.1774 26.8096L49.2531 26.7339C49.9344 25.9012 50.2372 24.7658 50.0101 23.706L48.1176 14.6223C47.7391 12.957 46.3009 11.7458 44.6355 11.7458L35.9303 11.5187C35.1733 11.5187 34.4164 11.7458 33.8108 12.2L30.0259 3.49477C29.496 1.52663 27.6793 0.0883789 25.5597 0.0883789H14.5836C12.0856 0.0883789 10.0417 2.13221 10.0417 4.63023V20.7538H9.66325C8.3007 20.7538 7.08953 21.6622 6.71105 22.949L5.80268 26.7339H4.81861C2.39628 26.7339 0.503845 28.8535 0.503845 31.4272V31.8814C0.503845 34.4551 2.47198 36.5746 4.81861 36.5746H48.3447C50.5399 36.5746 52.4324 34.7579 52.6595 32.4112H55.4603C55.4603 32.4112 55.4603 32.4112 55.536 32.4112L56.2173 36.4989C56.2929 36.8774 56.5957 37.1045 56.9742 37.1045L66.7392 37.0288C67.042 37.0288 67.3448 36.8017 67.4962 36.4989C67.4962 36.1961 67.3448 35.8176 67.042 35.6662ZM11.5557 4.70593C11.5557 3.04058 12.9182 1.67802 14.5836 1.67802H25.5597C26.998 1.67802 28.2092 2.66209 28.5119 4.02465C28.5119 4.10035 28.5119 4.10035 28.5876 4.10035L32.6753 13.4111L28.8904 19.7697C28.5119 20.3753 27.8307 20.7538 27.0737 20.7538H11.5557V4.70593ZM8.3007 23.4789C8.45209 22.7976 9.05767 22.3435 9.73895 22.3435H27.1494C28.4363 22.3435 29.5717 21.6622 30.253 20.6024L34.1136 14.0924C34.4921 13.4868 35.249 13.0327 35.9303 13.1084L44.6355 13.3355C45.6196 13.3355 46.4523 14.0167 46.6794 15.0008L48.5718 24.0845C48.7232 24.6901 48.5718 25.3714 48.1176 25.8256C47.7391 26.2797 47.1336 26.5825 46.528 26.5825H7.39233L8.3007 23.4789ZM48.3447 35.1364H4.81861C3.22896 35.1364 2.0178 33.6981 2.0178 31.9571V31.5029C2.0178 29.7618 3.30466 28.3236 4.81861 28.3236H48.3447C49.7073 28.3236 50.9184 29.459 51.1455 30.973H11.5557C11.1015 30.973 10.7987 31.2758 10.7987 31.73C10.7987 32.1841 11.1015 32.4869 11.5557 32.4869H51.1455C50.9184 33.9252 49.783 35.1364 48.3447 35.1364ZM57.5798 35.5905L55.0061 20.6024L58.6396 19.9968C58.4882 28.6264 62.1974 33.3953 64.4683 35.5905H57.5798Z" fill="#58C889"/>
</svg>
