<svg width="54" height="49" viewBox="0 0 54 49" fill="none" xmlns="http://www.w3.org/2000/svg">
<path d="M29.9406 24.5395C29.1316 19.3516 24.6507 15.4919 19.0609 15.4919C12.8796 15.4919 8.03714 20.2063 8.03714 26.2246V26.7663C8.03418 26.8013 8.02648 26.8345 8.02648 26.8707V37.4943C5.26506 37.31 3.05367 34.9949 3.05367 32.1772C3.05367 30.2426 4.10335 28.4567 5.79375 27.5167C6.36571 27.1984 6.57197 26.4771 6.2531 25.904C5.93481 25.332 5.21349 25.1269 4.64034 25.4446C2.19899 26.8037 0.682251 29.3831 0.682251 32.1772C0.682251 36.4257 4.13832 39.8823 8.38684 39.8823C8.65 39.8823 8.91791 39.8616 9.18462 39.8337C9.19411 39.8337 9.20181 39.8361 9.2113 39.8361C9.24923 39.8361 9.28479 39.829 9.32213 39.8254C9.3245 39.8243 9.32687 39.8243 9.32924 39.8243C9.32984 39.8243 9.33102 39.8243 9.33162 39.8243C9.92906 39.7626 10.3973 39.2641 10.3973 38.6507V28.1669C10.4003 28.1331 10.408 28.0999 10.408 28.0638V26.224C10.408 21.4575 14.1278 17.8621 19.0609 17.8621C23.994 17.8621 27.7132 21.4569 27.7132 26.224V26.7148C27.7061 26.7657 27.6984 26.8167 27.6984 26.8701V38.32C27.696 38.3502 27.6889 38.3804 27.6889 38.4112V41.0784C27.6889 42.9004 26.4164 44.1729 24.5956 44.1729H22.9988C22.987 44.1729 22.9769 44.1753 22.965 44.1765C22.5193 43.0142 21.4003 42.1844 20.0839 42.1844H18.0533C16.3481 42.1844 14.9605 43.5725 14.9605 45.2777C14.9605 46.983 16.3481 48.3711 18.0533 48.3711H20.0839C21.341 48.3711 22.4209 47.6142 22.9046 46.5337C22.9366 46.5373 22.9662 46.5444 22.9988 46.5444H24.5956C27.7618 46.5444 30.0597 44.2453 30.0597 41.079V39.9203C34.1441 39.7342 37.4117 36.3617 37.4117 32.2323C37.4117 28.0626 34.0801 24.6646 29.9406 24.5395ZM20.0839 46.0003H18.0533C17.6621 46.0003 17.3314 45.6689 17.3314 45.2777C17.3314 44.8866 17.6621 44.5552 18.0533 44.5552H20.0839C20.4751 44.5552 20.8064 44.8866 20.8064 45.2777C20.8064 45.6689 20.4751 46.0003 20.0839 46.0003ZM30.0692 37.5483V28.2191C30.0763 28.1681 30.084 28.1171 30.084 28.0638V26.9175C32.8496 27.1119 35.0408 29.4181 35.0408 32.2323C35.0408 35.0524 32.8419 37.361 30.0692 37.5483Z" fill="#58C889"/>
<path d="M35.2412 0.609619C27.7802 0.609619 21.184 5.09226 18.435 12.0287C18.1938 12.6368 18.4919 13.3255 19.1006 13.5674C19.7087 13.808 20.3974 13.5099 20.6393 12.9018C23.0273 6.87512 28.7588 2.98104 35.2412 2.98104C43.9024 2.98104 50.9479 10.0271 50.9479 18.6878C50.9479 25.1785 46.8707 31.0824 40.8002 33.3792C40.1879 33.6109 39.8797 34.2949 40.1115 34.9072C40.291 35.3807 40.7415 35.6735 41.2204 35.6735C41.3591 35.6735 41.5019 35.648 41.6394 35.5959C48.6257 32.953 53.3187 26.1576 53.3187 18.6878C53.3187 8.71962 45.2099 0.609619 35.2412 0.609619Z" fill="#58C889"/>
<path d="M36.1302 7.01855C35.4759 7.01855 34.9448 7.54962 34.9448 8.20397V17.983C34.9448 18.0376 34.9543 18.0891 34.9608 18.1419C34.9039 18.5188 35.0278 18.916 35.3301 19.1927L40.9229 24.344C41.1511 24.5538 41.4379 24.6575 41.7254 24.6575C42.046 24.6575 42.3643 24.5289 42.5984 24.2746C43.0418 23.7927 43.0104 23.0436 42.5291 22.6002L37.3162 17.7987V8.20397C37.3156 7.54903 36.7858 7.01855 36.1302 7.01855Z" fill="#58C889"/>
</svg>
