<svg width="40" height="42" viewBox="0 0 40 42" fill="none" xmlns="http://www.w3.org/2000/svg">
<path d="M37.8965 0.461914H2.76766C1.70134 0.461914 0.832153 1.3311 0.832153 2.39992V37.525C0.832153 38.5926 1.70134 39.4617 2.76766 39.4617H5.62919V39.9242C5.62919 40.9917 6.49838 41.8597 7.56469 41.8597H12.3616C13.4292 41.8597 14.2984 40.9918 14.2984 39.9242V39.4617H26.3659V39.9242C26.3659 40.9917 27.2351 41.8597 28.3027 41.8597H33.0996C34.1659 41.8597 35.0351 40.9918 35.0351 39.9242V39.4617H37.8966C38.963 39.4617 39.8322 38.5926 39.8322 37.525V2.39992C39.832 1.3311 38.9628 0.461914 37.8965 0.461914ZM38.3589 37.9874H33.5619V40.3865H27.8402V37.9874H12.824V40.3865H7.1022V37.9874H2.30525V1.93751H38.3589V37.9874Z" fill="#58C889"/>
<path d="M8.3415 33.7613H32.3226C33.3901 33.7613 34.2593 32.8921 34.2593 31.8246V7.84224C34.2593 6.77471 33.3901 5.90674 32.3226 5.90674H8.3415C7.27397 5.90674 6.40479 6.77463 6.40479 7.84224V31.8245C6.40479 32.8921 7.27397 33.7613 8.3415 33.7613ZM7.87909 7.37983H32.7849V32.2869H7.87909V7.37983Z" fill="#58C889"/>
<path d="M20.3308 12.4056C18.2097 12.4056 16.2186 13.2294 14.7228 14.7226C11.6314 17.8166 11.6314 22.8485 14.7241 25.9412C16.2199 27.4345 18.211 28.2582 20.3321 28.2582C22.4533 28.2582 24.4443 27.4345 25.9401 25.9412C27.4346 24.4454 28.2584 22.4531 28.2584 20.3319C28.2584 18.2095 27.4346 16.2184 25.9401 14.7226C24.4443 13.2293 22.4533 12.4056 20.3308 12.4056ZM16.7695 14.9437C18.8831 13.5464 21.7812 13.5464 23.8948 14.9437L24.3673 15.2557L20.3321 19.2909L16.297 15.2558L16.7695 14.9437ZM14.9439 23.8933C13.5137 21.7292 13.5137 18.9347 14.9439 16.7693L15.2559 16.2968L19.291 20.3319L15.2559 24.3658L14.9439 23.8933ZM23.8947 25.7214C22.8373 26.4188 21.6068 26.7877 20.3321 26.7877C19.0574 26.7877 17.8269 26.4188 16.7695 25.7214L16.297 25.4081L20.3321 21.3729L24.3673 25.4081L23.8947 25.7214ZM25.7204 23.8933L25.4083 24.3658L21.3732 20.3319L25.4083 16.2968L25.7204 16.7693C27.1504 18.9347 27.1504 21.7292 25.7204 23.8933Z" fill="#58C889"/>
</svg>
