<svg width="42" height="49" viewBox="0 0 42 49" fill="none" xmlns="http://www.w3.org/2000/svg">
<path d="M4.6449 48.371H0.342163V33.6449H4.6449C6.29919 33.6449 7.6449 34.9906 7.6449 36.6449V45.371C7.6449 47.0253 6.29919 48.371 4.6449 48.371ZM2.34216 46.371H4.6449C5.19617 46.371 5.6449 45.9223 5.6449 45.371V36.6449C5.6449 36.0937 5.19617 35.6449 4.6449 35.6449H2.34216V46.371Z" fill="#58C889"/>
<path d="M15.1302 42.0082H6.6449C6.09265 42.0082 5.6449 41.5605 5.6449 41.0082C5.6449 40.456 6.09265 40.0082 6.6449 40.0082H14.1302V27.5849C14.1302 27.0326 14.578 26.5849 15.1302 26.5849C15.6825 26.5849 16.1302 27.0326 16.1302 27.5849V41.0082C16.1302 41.5605 15.6825 42.0082 15.1302 42.0082Z" fill="#58C889"/>
<path d="M33.1781 27.1635C33.0551 27.1635 32.9325 27.141 32.8158 27.0956L2.60537 15.3446C2.10537 15.1498 1.84756 14.5956 2.02188 14.0883L6.49258 1.04679C6.58047 0.789954 6.76944 0.579505 7.01553 0.464759C7.26211 0.349036 7.54434 0.33927 7.79727 0.437903L41.0175 13.2206C41.5199 13.4135 41.7792 13.9692 41.6044 14.4779L41.1508 15.8012C40.7128 17.078 39.6786 18.0697 38.3852 18.4535L37.7856 18.6318C37.1103 18.8319 36.5712 19.3495 36.3432 20.0155L34.1239 26.4877C34.0356 26.7455 33.8461 26.956 33.5995 27.0702C33.4662 27.1322 33.3222 27.1635 33.1781 27.1635ZM4.225 13.8285L32.5697 24.8539L34.4511 19.3671C34.8886 18.0902 35.9223 17.0985 37.2167 16.7148L37.8158 16.5365C38.4911 16.3359 39.0307 15.8188 39.2592 15.1523L39.4003 14.7411L8.04776 2.67716L4.225 13.8285Z" fill="#58C889"/>
<path d="M37.2704 26.2675C37.0521 26.2675 36.8329 26.2313 36.62 26.1581L33.5531 25.1068C33.3021 25.0209 33.0956 24.8388 32.9789 24.6005C32.8626 24.3622 32.8456 24.0878 32.9315 23.8368L34.6512 18.8207C34.8299 18.2982 35.3983 18.0189 35.9212 18.1991L38.9881 19.2504C39.4935 19.4237 39.9012 19.7836 40.1361 20.2631C40.3709 20.7431 40.4046 21.2855 40.2313 21.7909L39.1605 24.9149C38.9872 25.4203 38.6273 25.828 38.1478 26.0629C37.87 26.1986 37.5707 26.2675 37.2704 26.2675ZM35.1478 23.5395L37.2684 24.2665L37.2699 24.267L38.3397 21.1425L36.2186 20.4154L35.1478 23.5395Z" fill="#58C889"/>
<path d="M15.1302 31.7665C12.8246 31.7665 10.9486 29.8905 10.9486 27.5849C10.9486 25.2792 12.8246 23.4037 15.1302 23.4037C17.4359 23.4037 19.3114 25.2792 19.3114 27.5849C19.3114 29.8905 17.4359 31.7665 15.1302 31.7665ZM15.1302 25.4037C13.9271 25.4037 12.9486 26.3822 12.9486 27.5849C12.9486 28.788 13.9271 29.7665 15.1302 29.7665C16.3329 29.7665 17.3114 28.788 17.3114 27.5849C17.3114 26.3822 16.3329 25.4037 15.1302 25.4037Z" fill="#58C889"/>
<path d="M15.1302 25.4037C14.578 25.4037 14.1302 24.956 14.1302 24.4037V19.2172C14.1302 18.6649 14.578 18.2172 15.1302 18.2172C15.6825 18.2172 16.1302 18.6649 16.1302 19.2172V24.4037C16.1302 24.956 15.6825 25.4037 15.1302 25.4037Z" fill="#58C889"/>
</svg>
