<svg width="33" height="43" viewBox="0 0 33 43" fill="none" xmlns="http://www.w3.org/2000/svg">
<path fill-rule="evenodd" clip-rule="evenodd" d="M33 5.7832C33 5.176 32.5072 4.6832 31.9 4.6832C31.0244 4.6832 30.1862 4.3356 29.5658 3.7174C28.9476 3.097 28.6 2.2588 28.6 1.3832C28.6 1.0906 28.4834 0.811203 28.2788 0.604403C28.072 0.399803 27.7926 0.283203 27.5 0.283203H5.5C5.2074 0.283203 4.928 0.399803 4.7212 0.604403C4.5166 0.811203 4.4 1.0906 4.4 1.3832C4.4 2.2588 4.0524 3.097 3.4342 3.7174C2.8138 4.3356 1.9756 4.6832 1.1 4.6832C0.4928 4.6832 0 5.176 0 5.7832V16.3762C0 27.154 6.0896 37.0078 15.73 41.828C16.214 42.07 16.786 42.07 17.27 41.828C26.9104 37.0078 33 27.154 33 16.3762V5.7832ZM26.5122 2.4832H6.4878C6.2744 3.5326 5.7574 4.505 4.9896 5.2728C4.2218 6.0406 3.2494 6.5576 2.2 6.771V16.3762C2.2 26.241 7.7286 35.2676 16.5 39.7512C25.2714 35.2676 30.8 26.241 30.8 16.3762V6.771C29.7506 6.5576 28.7782 6.0406 28.0104 5.2728C27.2426 4.505 26.7256 3.5326 26.5122 2.4832ZM14.9446 21.3174L21.945 14.317C22.374 13.888 23.0714 13.888 23.5004 14.317C23.9294 14.746 23.9294 15.4434 23.5004 15.8724L15.7212 23.6494C15.2922 24.0806 14.597 24.0806 14.1658 23.6494L9.4996 18.9832C9.0706 18.5542 9.0706 17.8568 9.4996 17.4278C9.9286 16.9988 10.626 16.9988 11.055 17.4278L14.9446 21.3174Z" fill="#58C889"/>
</svg>
