<svg width="46" height="49" viewBox="0 0 46 49" fill="none" xmlns="http://www.w3.org/2000/svg">
<path fill-rule="evenodd" clip-rule="evenodd" d="M21.9052 4.8113V1.43674C21.9052 0.0158776 24.0957 0.0158776 24.0957 1.43674V4.8113C34.4562 5.22571 46.0007 12.0932 46.0007 23.5193V24.1706L45.4679 23.8154C42.1526 21.9209 37.5347 21.7433 34.1602 23.6378L33.9826 23.7562L33.805 23.6378C31.2001 21.9801 26.9375 22.0393 24.0957 23.1049V42.8194C24.0957 49.9829 13.2024 50.4566 13.2024 42.8194C13.2024 41.3394 15.3929 41.3986 15.3929 42.8194C15.3929 47.5556 21.9052 46.49 21.9052 42.8194V23.1049C19.0635 22.0393 14.7417 21.9801 12.196 23.6378L12.0184 23.7562L11.8408 23.6378C8.46623 21.7433 3.84842 21.9209 0.533068 23.8154L0.000244141 24.1706V23.5193C0.000244141 12.0932 11.5448 5.22571 21.9052 4.8113ZM43.8694 21.092C42.271 11.6196 31.7921 6.64658 22.9709 6.64658C14.1497 6.64658 3.73001 11.6196 2.07234 21.092C5.26928 20.0264 8.93985 20.1448 11.9592 21.5657C15.2745 19.9672 19.6555 20.204 22.9709 21.5065C26.3454 20.204 30.7264 19.9672 33.9826 21.5657C37.0611 20.1448 40.7317 20.0264 43.8694 21.092Z" fill="#58C889"/>
</svg>
