<svg width="23" height="17" viewBox="0 0 23 17" fill="none" xmlns="http://www.w3.org/2000/svg">
<path d="M0.802326 0.582031C0.367091 0.582031 0 0.98873 0 1.47092V15.6931C0 16.1753 0.367091 16.582 0.802326 16.582H22.1977C22.6329 16.582 23 16.1753 23 15.6931V1.47092C23 0.98873 22.6329 0.582031 22.1977 0.582031H0.802326ZM1.06977 1.76722H21.9302V2.64686L11.5 11.1005L1.06977 2.64686V1.76722ZM1.06977 4.11907L11.1824 12.3135C11.2744 12.3887 11.3857 12.4293 11.5 12.4293C11.6143 12.4293 11.7256 12.3887 11.8176 12.3135L21.9302 4.11907V15.3968H1.06977V4.11907Z" fill="#58C889"/>
</svg>
