<svg width="56" height="33" viewBox="0 0 56 33" fill="none" xmlns="http://www.w3.org/2000/svg">
<path d="M39.761 32.5466C30.8334 32.5466 23.5706 25.2838 23.5706 16.3556C23.5706 7.42807 30.834 0.165283 39.761 0.165283C48.6891 0.165283 55.9519 7.42807 55.9519 16.3556C55.9519 25.2838 48.6891 32.5466 39.761 32.5466ZM39.761 1.95856C31.8227 1.95856 25.3639 8.41737 25.3639 16.3556C25.3639 24.2945 31.8227 30.7533 39.761 30.7533C47.6998 30.7533 54.1586 24.2945 54.1586 16.3556C54.1586 8.41677 47.6998 1.95856 39.761 1.95856Z" fill="#58C889"/>
<path d="M40.47 18.5021C40.348 18.5021 40.2261 18.4776 40.1107 18.4274L30.6111 14.2783C30.1574 14.0799 29.9506 13.5515 30.1484 13.0978C30.3463 12.6447 30.8759 12.4372 31.3296 12.6351L39.5733 16.2354V8.21885C39.5733 7.7233 39.975 7.3222 40.47 7.3222C40.9649 7.3222 41.3666 7.7233 41.3666 8.21885V17.6055C41.3666 17.9079 41.2142 18.1901 40.9607 18.3557C40.8125 18.4525 40.6415 18.5021 40.47 18.5021Z" fill="#58C889"/>
<path d="M16.9253 18.5021H1.86356C1.36802 18.5021 0.966919 18.1004 0.966919 17.6055C0.966919 17.1106 1.36802 16.7089 1.86356 16.7089H16.9253C17.4209 16.7089 17.822 17.1106 17.822 17.6055C17.822 18.1004 17.4209 18.5021 16.9253 18.5021Z" fill="#58C889"/>
<path d="M21.4265 11.5771H6.36472C5.86918 11.5771 5.46808 11.176 5.46808 10.6805C5.46808 10.1849 5.86918 9.78381 6.36472 9.78381H21.4265C21.922 9.78381 22.3231 10.1849 22.3231 10.6805C22.3231 11.176 21.9214 11.5771 21.4265 11.5771Z" fill="#58C889"/>
<path d="M18.6564 18.5021H3.59467C3.09913 18.5021 2.69803 18.1004 2.69803 17.6055C2.69803 17.1106 3.09913 16.7089 3.59467 16.7089H18.6564C19.152 16.7089 19.5531 17.1106 19.5531 17.6055C19.5531 18.1004 19.152 18.5021 18.6564 18.5021Z" fill="#58C889"/>
<path d="M21.4265 25.4266H6.36472C5.86918 25.4266 5.46808 25.0249 5.46808 24.53C5.46808 24.0351 5.86918 23.6334 6.36472 23.6334H21.4265C21.922 23.6334 22.3231 24.0351 22.3231 24.53C22.3231 25.0249 21.9214 25.4266 21.4265 25.4266Z" fill="#58C889"/>
</svg>
