<svg width="37" height="42" viewBox="0 0 37 42" fill="none" xmlns="http://www.w3.org/2000/svg">
<path d="M28.3749 0.936729C28.2925 0.850725 28.1937 0.782079 28.0843 0.734833C27.9749 0.687587 27.8572 0.662695 27.7381 0.661621H12.119C10.1618 0.661621 8.52656 2.26595 8.52656 4.2233V6.87374H4.13202C2.17476 6.87374 0.539551 8.50185 0.539551 10.459V38.0999C0.539551 40.0573 2.17476 41.6616 4.13202 41.6616H24.8129C26.7701 41.6616 28.4054 40.0573 28.4054 38.0999V35.4495H32.7999C34.7572 35.4495 36.3924 33.8214 36.3924 31.8642V9.51833C36.3845 9.28409 36.2872 9.06177 36.1204 8.89712L28.3749 0.936729ZM28.5828 3.74931L33.364 8.64863H29.1847C29.0302 8.64604 28.8823 8.58518 28.7707 8.47822C28.6591 8.37126 28.592 8.2261 28.5828 8.07179V3.74931ZM26.6305 38.0999C26.6305 39.0786 25.7916 39.8867 24.8129 39.8867H4.13202C3.15335 39.8867 2.31444 39.0786 2.31444 38.0999V10.459C2.32328 9.9804 2.51784 9.52396 2.857 9.18614C3.19616 8.84832 3.65337 8.65558 4.13202 8.64863H8.52656V31.8642C8.52656 33.8216 10.1618 35.4495 12.119 35.4495H26.6305V38.0999ZM32.7999 33.6746H12.119C11.6404 33.6677 11.1832 33.4749 10.844 33.1371C10.5048 32.7993 10.3103 32.3428 10.3015 31.8642V4.2233C10.3015 3.24462 11.1404 2.43651 12.119 2.43651H26.8079V8.07179C26.8079 9.35859 27.8977 10.4235 29.1847 10.4235H34.6175V31.8642C34.6086 32.3428 34.4141 32.7993 34.0749 33.1371C33.7358 33.4749 33.2785 33.6677 32.7999 33.6746Z" fill="#58C889"/>
<path d="M30.5618 18.6768H13.9116C13.6762 18.6768 13.4505 18.7703 13.2841 18.9367C13.1176 19.1031 13.0241 19.3288 13.0241 19.5642C13.0241 19.7996 13.1176 20.0253 13.2841 20.1917C13.4505 20.3582 13.6762 20.4516 13.9116 20.4516H30.5618C30.7972 20.4516 31.0229 20.3582 31.1894 20.1917C31.3558 20.0253 31.4493 19.7996 31.4493 19.5642C31.4493 19.3288 31.3558 19.1031 31.1894 18.9367C31.0229 18.7703 30.7972 18.6768 30.5618 18.6768Z" fill="#58C889"/>
<path d="M13.9116 15.482H23.8794C24.1147 15.482 24.3405 15.3885 24.5069 15.2221C24.6733 15.0556 24.7668 14.8299 24.7668 14.5945C24.7668 14.3592 24.6733 14.1334 24.5069 13.967C24.3405 13.8006 24.1147 13.7071 23.8794 13.7071H13.9116C13.6762 13.7071 13.4505 13.8006 13.2841 13.967C13.1176 14.1334 13.0241 14.3592 13.0241 14.5945C13.0241 14.8299 13.1176 15.0556 13.2841 15.2221C13.4505 15.3885 13.6762 15.482 13.9116 15.482Z" fill="#58C889"/>
<path d="M30.5618 24.0015H13.9116C13.6762 24.0015 13.4505 24.095 13.2841 24.2614C13.1176 24.4278 13.0241 24.6535 13.0241 24.8889C13.0241 25.1243 13.1176 25.35 13.2841 25.5164C13.4505 25.6829 13.6762 25.7764 13.9116 25.7764H30.5618C30.7972 25.7764 31.0229 25.6829 31.1894 25.5164C31.3558 25.35 31.4493 25.1243 31.4493 24.8889C31.4493 24.6535 31.3558 24.4278 31.1894 24.2614C31.0229 24.095 30.7972 24.0015 30.5618 24.0015Z" fill="#58C889"/>
</svg>
