<svg width="43" height="38" viewBox="0 0 43 38" fill="none" xmlns="http://www.w3.org/2000/svg">
<path d="M5.74319 22.3747C5.5967 22.5211 5.4048 22.5944 5.21289 22.5944C5.02099 22.5944 4.82909 22.5211 4.6826 22.3747C2.29187 19.9839 0.974915 16.8051 0.974915 13.4241C0.974915 10.0431 2.29187 6.86421 4.6826 4.47421C8.9865 0.17177 15.7485 -0.463268 20.7644 2.96462C21.1064 3.19827 21.1943 3.66484 20.9599 4.0069C20.727 4.34822 20.2604 4.43612 19.9176 4.20247C15.4973 1.18256 9.53657 1.74215 5.74319 5.5348C3.63592 7.64207 2.47498 10.4437 2.47498 13.4241C2.47498 16.4044 3.63592 19.2068 5.74319 21.3141C6.03617 21.607 6.03617 22.0817 5.74319 22.3747ZM39.7232 22.0187C39.8492 22.3615 39.9151 22.7277 39.9151 23.1042C39.9151 23.9406 39.5899 24.7273 38.9981 25.3191C38.4077 25.9109 37.6211 26.2362 36.7846 26.2362C36.6952 26.2362 36.6095 26.2178 36.5215 26.2105C36.5957 27.0979 36.3081 28.01 35.6303 28.687C35.0194 29.2978 34.2181 29.6025 33.4168 29.6025C33.3286 29.6025 33.2414 29.5848 33.1536 29.5774C33.2281 30.4651 32.9404 31.3775 32.2624 32.0548C31.6516 32.6656 30.8503 32.9703 30.049 32.9703C29.9608 32.9703 29.8736 32.9526 29.7857 32.9453C29.8603 33.8329 29.5726 34.7454 28.8946 35.4226C28.2837 36.0335 27.4824 36.3382 26.6811 36.3382C25.8784 36.3382 25.0771 36.0335 24.4662 35.4226L23.1483 34.1044C23.0187 34.6489 22.7516 35.1673 22.3274 35.5911L21.2749 36.6429C20.6648 37.2537 19.8627 37.5584 19.0607 37.5584C18.2586 37.5584 17.4566 37.2537 16.8465 36.6429C16.1689 35.9656 15.8814 35.0532 15.9559 34.1655C15.868 34.1729 15.7809 34.1906 15.6929 34.1906C14.8908 34.1906 14.0888 33.8859 13.4786 33.275C12.801 32.5978 12.5135 31.6853 12.5881 30.7977C12.5002 30.805 12.4131 30.8228 12.325 30.8228C11.523 30.8228 10.721 30.5181 10.1108 29.9072C9.43348 29.2302 9.14599 28.3182 9.22015 27.4308C9.13217 27.4381 9.04656 27.4564 8.9572 27.4564C8.12001 27.4564 7.33408 27.1312 6.74299 26.5394C5.52199 25.3191 5.52199 23.3312 6.74299 22.111L7.79553 21.0592C8.38589 20.4673 9.17254 20.1414 10.009 20.1414C10.009 20.1414 10.009 20.1414 10.0097 20.1414C10.8462 20.1414 11.6329 20.4673 12.2239 21.0592C12.815 21.6495 13.141 22.4362 13.141 23.2726C13.141 23.3714 13.1216 23.4664 13.1126 23.5635C14.0097 23.4917 14.9353 23.7705 15.5918 24.427C16.1836 25.0174 16.5088 25.804 16.5088 26.6405C16.5088 26.7298 16.4905 26.8155 16.4832 26.9036C17.3705 26.8294 18.2826 27.117 18.9596 27.7948C19.637 28.4719 19.9245 29.3841 19.8503 30.2715C20.7378 30.197 21.6503 30.4847 22.3274 31.1626C22.3629 31.1981 22.3872 31.24 22.4206 31.2767C22.441 31.2932 22.4659 31.3004 22.4849 31.3194L25.5268 34.362C26.164 34.9992 27.1997 34.9963 27.834 34.362C28.4698 33.7262 28.4698 32.6905 27.834 32.0548L20.3828 24.6028C20.0898 24.3098 20.0898 23.8352 20.3828 23.5422C20.6757 23.2492 21.1504 23.2492 21.4433 23.5422L28.8946 30.9942C29.5318 31.6314 30.5675 31.63 31.2018 30.9942C31.8376 30.3584 31.8376 29.3227 31.2018 28.687L23.7513 21.235C23.4583 20.942 23.4583 20.4673 23.7513 20.1744C24.0443 19.8814 24.5189 19.8814 24.8119 20.1744L32.2624 27.6264C32.8997 28.2636 33.9354 28.2607 34.5697 27.6264C35.2054 26.9906 35.2054 25.9549 34.5697 25.3191L27.1191 17.8671C26.8262 17.5742 26.8262 17.0995 27.1191 16.8065C27.4121 16.5136 27.8868 16.5136 28.1797 16.8065L35.6303 24.2585C36.2426 24.8709 37.3193 24.8738 37.9375 24.2585C38.2451 23.9509 38.415 23.5407 38.415 23.1042C38.415 22.6691 38.2451 22.2589 37.9375 21.9513L26.2461 10.2584L20.2048 16.2989C18.148 18.3564 14.8007 18.3557 12.7447 16.2989C11.8951 15.4493 11.8951 14.0679 12.7447 13.2182L21.3899 4.57309C23.7806 2.18236 26.958 0.865404 30.3405 0.865404C33.7215 0.865404 36.8989 2.18236 39.2896 4.57309C44.0579 9.34063 44.2132 17.0636 39.7232 22.0187ZM10.1108 25.4788L11.1634 24.427C11.471 24.1179 11.6409 23.7092 11.6409 23.2726C11.6409 22.8376 11.471 22.4274 11.1634 22.1198C10.855 21.8107 10.4448 21.6407 10.009 21.6407C9.57393 21.6407 9.16449 21.8107 8.85686 22.1198L7.80359 23.1716C7.16782 23.8073 7.16782 24.843 7.80359 25.4788C8.42031 26.0941 9.49409 26.0941 10.1108 25.4788ZM13.4786 28.8466L14.5312 27.7948C14.8395 27.4872 15.0087 27.077 15.0087 26.6405C15.0087 26.2054 14.8395 25.7952 14.5312 25.4876C14.2228 25.18 13.8134 25.01 13.3776 25.01C12.9418 25.01 12.5323 25.18 12.2239 25.4876L11.1714 26.5394C10.5356 27.1752 10.5356 28.2109 11.1714 28.8466C11.8072 29.4824 12.8429 29.4824 13.4786 28.8466ZM16.8465 32.2145L17.899 31.1626C18.2074 30.8536 18.3766 30.4448 18.3766 30.0083C18.3766 29.5732 18.2074 29.163 17.899 28.8554C17.5811 28.5375 17.1629 28.3779 16.7454 28.3779C16.3279 28.3779 15.9097 28.5375 15.5918 28.8554L14.5392 29.9072C13.9035 30.543 13.9035 31.5787 14.5392 32.2145C15.175 32.8502 16.2107 32.8502 16.8465 32.2145ZM21.2668 32.2232C20.9489 31.9054 20.5307 31.7457 20.1132 31.7457C19.6957 31.7457 19.2775 31.9054 18.9596 32.2232L17.9071 33.275C17.2713 33.9108 17.2713 34.9465 17.9071 35.5823C18.5428 36.218 19.5785 36.218 20.2143 35.5823L21.2668 34.5305C21.9026 33.8947 21.9026 32.859 21.2668 32.2232ZM38.229 5.63368C36.1225 3.52641 33.3201 2.36547 30.3405 2.36547C27.3594 2.36547 24.557 3.52641 22.4505 5.63368L13.8053 14.2788C13.5409 14.5433 13.5409 14.9739 13.8053 15.2384C15.2768 16.7099 17.6712 16.7113 19.1442 15.2384L25.7158 8.66751C25.8564 8.52688 26.0468 8.44777 26.2461 8.44777C26.4453 8.44777 26.6357 8.52688 26.7764 8.66751L38.8487 20.7413C42.5622 16.3671 42.3469 9.75081 38.229 5.63368Z" fill="#58C889"/>
</svg>
