<svg width="46" height="47" viewBox="0 0 46 47" fill="none" xmlns="http://www.w3.org/2000/svg">
<path d="M27.281 23.3488C24.1832 23.3488 21.2708 22.1425 19.0808 19.952C14.5596 15.4308 14.5596 8.07395 19.0808 3.55275C21.2708 1.36235 24.1832 0.156006 27.281 0.156006C30.3778 0.156006 33.2902 1.36235 35.4801 3.55275C40.0013 8.07395 40.0013 15.4308 35.4801 19.952C33.2902 22.1425 30.3778 23.3488 27.281 23.3488ZM27.281 2.07267C24.6951 2.07267 22.2647 3.07967 20.436 4.9079C16.6616 8.6818 16.6616 14.823 20.436 18.5969C22.2647 20.4251 24.6951 21.4321 27.281 21.4321C29.8658 21.4321 32.2963 20.4251 34.125 18.5969C37.8994 14.823 37.8994 8.6818 34.125 4.9079C32.2963 3.07967 29.8658 2.07267 27.281 2.07267ZM19.7584 4.23033H19.7678H19.7584Z" fill="#58C889"/>
<path d="M44.8791 30.3094C44.6339 30.3094 44.3887 30.2158 44.2015 30.0286L34.125 19.9521C33.7507 19.5777 33.7507 18.9713 34.125 18.5969C34.4993 18.2226 35.1058 18.2226 35.4801 18.5969L45.5567 28.6735C45.931 29.0478 45.931 29.6543 45.5567 30.0286C45.3695 30.2158 45.1243 30.3094 44.8791 30.3094Z" fill="#58C889"/>
<path d="M38.3027 46.156H1.06997C0.540263 46.156 0.111633 45.7269 0.111633 45.1977C0.111633 44.6684 0.540263 44.2393 1.06997 44.2393H38.3027C38.8324 44.2393 39.261 44.6684 39.261 45.1977C39.261 45.7269 38.8324 46.156 38.3027 46.156Z" fill="#58C889"/>
<path d="M32.8634 46.156C32.3337 46.156 31.9051 45.7269 31.9051 45.1977V29.1199C31.9051 28.5907 32.3337 28.1616 32.8634 28.1616C33.3931 28.1616 33.8218 28.5907 33.8218 29.1199V45.1977C33.8218 45.7269 33.3931 46.156 32.8634 46.156Z" fill="#58C889"/>
<path d="M23.8369 46.1561C23.3072 46.1561 22.8786 45.727 22.8786 45.1977V25.2515C22.8786 24.7222 23.3072 24.2932 23.8369 24.2932C24.3666 24.2932 24.7953 24.7222 24.7953 25.2515V45.1977C24.7953 45.727 24.3666 46.1561 23.8369 46.1561Z" fill="#58C889"/>
<path d="M14.8104 46.156C14.2807 46.156 13.8521 45.7269 13.8521 45.1976V21.383C13.8521 20.8537 14.2807 20.4246 14.8104 20.4246C15.3401 20.4246 15.7688 20.8537 15.7688 21.383V45.1976C15.7688 45.7269 15.3401 46.156 14.8104 46.156Z" fill="#58C889"/>
<path d="M5.78487 46.156C5.25517 46.156 4.82654 45.7269 4.82654 45.1977V17.5145C4.82654 16.9853 5.25517 16.5562 5.78487 16.5562C6.31458 16.5562 6.7432 16.9853 6.7432 17.5145V45.1977C6.7432 45.7269 6.31458 46.156 5.78487 46.156Z" fill="#58C889"/>
</svg>
