<svg width="17" height="18" viewBox="0 0 17 18" fill="none" xmlns="http://www.w3.org/2000/svg">
<path d="M9.74271 0.985352C7.90021 0.985352 6.05736 1.68619 4.6561 3.08745C2.03176 5.71179 1.86673 9.88288 4.15746 12.7039L0.248371 16.6145C0.176938 16.683 0.119907 16.7652 0.0806195 16.8561C0.041332 16.947 0.0205767 17.0448 0.0195697 17.1438C0.0185627 17.2429 0.0373241 17.3411 0.0747549 17.4328C0.112186 17.5245 0.167534 17.6077 0.237558 17.6778C0.307581 17.7478 0.390873 17.8031 0.482555 17.8406C0.574236 17.878 0.672464 17.8968 0.771487 17.8958C0.87051 17.8948 0.968337 17.874 1.05924 17.8347C1.15014 17.7954 1.23229 17.7384 1.30087 17.667L5.20997 13.7564C8.03092 16.0492 12.2028 15.8843 14.8279 13.2592C17.6304 10.4567 17.6318 5.88998 14.8294 3.08745C13.4281 1.68619 11.5853 0.985352 9.74275 0.985352H9.74271ZM9.74271 2.4638C11.2011 2.4638 12.66 3.02313 13.7768 4.13996C16.0105 6.37361 16.009 9.97308 13.7753 12.2067C11.5628 14.4193 8.01328 14.4371 5.77544 12.2663C5.73933 12.2199 5.69785 12.178 5.65187 12.1413C5.6509 12.1408 5.64993 12.1403 5.64896 12.1398C3.47963 9.90188 3.49651 6.35199 5.70857 4.13992C6.8254 3.0231 8.28427 2.46377 9.74268 2.46377L9.74271 2.4638Z" fill="#566072"/>
</svg>
