<svg width="17" height="18" viewBox="0 0 17 18" fill="none" xmlns="http://www.w3.org/2000/svg">
<path d="M14.5228 11.5217C13.6013 10.6002 12.5047 9.91978 11.309 9.50691C12.5906 8.62503 13.4328 7.14863 13.4328 5.47735C13.4328 2.78216 11.2397 0.58902 8.54447 0.58902C5.84929 0.58902 3.65615 2.78216 3.65615 5.47735C3.65615 7.14532 4.49839 8.62503 5.77993 9.50691C4.58427 9.91978 3.4877 10.6002 2.56618 11.5217C0.967567 13.117 0.0889893 15.2408 0.0889893 17.5H1.41016C1.41016 13.5662 4.61069 10.3657 8.54447 10.3657C12.4783 10.3657 15.6788 13.5662 15.6788 17.5H17C17 15.2408 16.1214 13.117 14.5228 11.5217ZM8.54447 9.04451C6.57593 9.04451 4.97732 7.44589 4.97732 5.47735C4.97732 3.5088 6.57593 1.91019 8.54447 1.91019C10.513 1.91019 12.1116 3.5088 12.1116 5.47735C12.1116 7.44589 10.513 9.04451 8.54447 9.04451Z" fill="#566072"/>
</svg>
