<svg width="28" height="28" viewBox="0 0 28 28" fill="none" xmlns="http://www.w3.org/2000/svg">
<path d="M14 0C6.27667 0 0 6.27667 0 14C0 21.7233 6.27667 28 14 28C21.7233 28 28 21.7233 28 14C28 6.27667 21.7233 0 14 0ZM14 25.6667C7.56 25.6667 2.33333 20.44 2.33333 14C2.33333 7.56 7.56 2.33333 14 2.33333C20.44 2.33333 25.6667 7.56 25.6667 14C25.6667 20.44 20.44 25.6667 14 25.6667Z" fill="#58C889"/>
<path d="M13.9997 11.3168C13.3463 11.3168 12.833 11.8301 12.833 12.4834V20.4168C12.833 21.0701 13.3463 21.5834 13.9997 21.5834C14.653 21.5834 15.1663 21.0701 15.1663 20.4168V12.4834C15.1663 11.8534 14.653 11.3168 13.9997 11.3168Z" fill="#58C889"/>
<path d="M14.023 6.53381C13.4163 6.48715 12.8563 7.11715 12.833 7.74715C12.833 7.77048 12.833 7.91048 12.833 7.93381C12.833 8.56381 13.323 9.03048 13.9763 9.05381H13.9997C14.6297 9.05381 15.143 8.49381 15.1663 7.88715C15.1663 7.86381 15.1663 7.63048 15.1663 7.63048C15.1663 6.95381 14.6763 6.53381 14.023 6.53381Z" fill="#58C889"/>
</svg>
