<svg width="25" height="25" viewBox="0 0 25 25" fill="none" xmlns="http://www.w3.org/2000/svg">
<path d="M14.9105 0.383301L2.78237 12.5113C0.130805 15.1629 0.130815 19.4729 2.78237 22.1245C5.43394 24.776 9.74387 24.7764 12.3954 22.1245L23.3805 11.1394C25.2649 9.25492 25.2646 6.18001 23.3805 4.29556C21.496 2.41107 18.4211 2.4111 16.5367 4.29556L5.32446 15.5077C4.20705 16.6251 4.2049 18.465 5.32261 19.5824C6.44001 20.6998 8.28157 20.6994 9.39897 19.5824L18.0619 10.9194L16.7566 9.61407L8.09366 18.277C7.6769 18.6938 7.04647 18.6942 6.62971 18.277C6.21294 17.8603 6.21329 17.2298 6.62971 16.8131L17.8419 5.60078C19.0258 4.41695 20.8913 4.41695 22.0751 5.60078C23.259 6.7846 23.2593 8.65018 22.0751 9.83404L11.0901 20.8191C9.13917 22.7701 6.03856 22.7697 4.08762 20.8191C2.13669 18.8682 2.13669 15.7676 4.08762 13.8167L16.2157 1.68852L14.9105 0.383301Z" fill="#58C889"/>
</svg>
