<svg width="68" height="47" viewBox="0 0 68 47" fill="none" xmlns="http://www.w3.org/2000/svg">
<path d="M54.7408 5.83034C54.5444 5.60474 54.2604 5.47482 53.9613 5.47482H53.9552C49.5337 5.47482 45.9994 5.47482 41.7841 5.47482C41.214 5.47482 40.7528 5.93658 40.7528 6.50612V17.0925H36.757L38.3729 11.9834C38.525 11.503 38.3085 10.9833 37.8593 10.7542L26.5854 4.98624L26.9199 3.92787C27.0025 3.66652 26.9783 3.38352 26.8524 3.1408C26.7265 2.89758 26.509 2.71478 26.2481 2.63221L21.1994 1.03691C20.6545 0.863686 20.0774 1.16583 19.9052 1.70766L19.5696 2.76936L7.04219 1.00317C6.55272 0.931164 6.06729 1.23229 5.91521 1.71269L2.28553 13.1708C2.13345 13.6502 2.34998 14.1694 2.79714 14.3995L7.3826 16.7551V27.895H5.64631C3.08317 27.895 0.998413 29.9803 0.998413 32.5434V40.0525C0.998413 40.6221 1.45968 41.0838 2.02971 41.0838H5.26234C5.76036 44.254 8.50253 46.689 11.8099 46.689C15.1181 46.689 17.8605 44.254 18.3585 41.0838H49.6404C50.1385 44.254 52.8809 46.689 56.189 46.689C59.4964 46.689 62.2386 44.254 62.7366 41.0838H65.9703C66.5403 41.0838 67.0016 40.6221 67.0016 40.0525V20.3506C67.0016 20.1024 66.9119 19.8622 66.7498 19.6748L54.7408 5.83034ZM53.4849 7.53742L64.6036 20.3561H50.3487V7.53742H53.4849ZM25.9571 6.98149L36.1432 12.1929L33.0452 21.9907L21.7096 20.4121C27.4277 2.33125 25.5729 8.19619 25.9571 6.98149ZM24.6417 4.28792C24.1028 5.99311 20.4775 17.4676 19.0895 21.8608L16.0076 20.8869C15.8381 21.425 18.4409 13.1897 21.5589 3.31402L24.6417 4.28792ZM7.61827 3.16748L18.9354 4.76278C18.5015 6.13645 20.5067 -0.212621 14.6938 18.1926C8.35936 14.9382 5.76395 13.6048 4.5143 12.9628L7.61827 3.16748ZM10.7766 18.4986V27.5591H9.4452V17.8182C9.5496 17.8715 10.881 18.552 10.7766 18.4986ZM12.8392 19.5582L14.0634 20.1871L13.7285 21.2464C13.6459 21.5078 13.6701 21.7908 13.796 22.034C13.9219 22.2772 14.1394 22.46 14.4013 22.5426L19.451 24.1379C19.5537 24.1706 19.6585 24.1862 19.7612 24.1862C20.1993 24.1862 20.6052 23.9053 20.7442 23.4667L21.0793 22.4066L33.6233 24.1535C33.6707 24.1606 33.719 24.1636 33.7663 24.1636C34.2095 24.1636 34.6113 23.8766 34.7483 23.4435L36.1046 19.1552H40.7528V27.895H12.8392V19.5582ZM11.8099 44.6264C9.28809 44.6264 7.23657 42.5744 7.23657 40.0525C7.23657 37.5307 9.28809 35.4787 11.8099 35.4787C14.3318 35.4787 16.3843 37.5307 16.3843 40.0525C16.3843 42.5744 14.3318 44.6264 11.8099 44.6264ZM56.189 44.6264C53.6672 44.6264 51.6147 42.5744 51.6147 40.0525C51.6147 37.5307 53.6672 35.4787 56.189 35.4787C58.7109 35.4787 60.7624 37.5307 60.7624 40.0525C60.7624 42.5744 58.7109 44.6264 56.189 44.6264ZM62.7454 39.0212C62.2406 35.7979 59.4122 33.4161 56.189 33.4161C52.9442 33.4161 50.134 35.8137 49.6316 39.0212H18.3673C17.8643 35.8094 15.0406 33.4161 11.8099 33.4161C8.51383 33.4161 5.74757 35.867 5.25353 39.0212H3.06101V32.5434C3.06101 31.1178 4.22122 29.9576 5.64631 29.9576H41.7841C42.3541 29.9576 42.8154 29.4958 42.8154 28.9263V7.53742H48.2861V21.3874C48.2861 21.957 48.7474 22.4187 49.3174 22.4187H64.939V39.0212H62.7454Z" fill="#58C889"/>
</svg>
