<svg width="33" height="53" viewBox="0 0 33 53" fill="none" xmlns="http://www.w3.org/2000/svg">
<path d="M29.1399 49.621C24.2051 49.621 19.2823 49.621 14.3474 49.621C11.4658 49.621 8.57208 49.621 5.69042 49.621C5.10208 49.621 4.50173 49.645 3.91339 49.621C3.03689 49.5849 2.46056 48.9726 2.46056 48.1081C2.42454 44.0017 2.46056 39.8953 2.46056 35.801C2.46056 29.0171 2.46056 22.2211 2.46056 15.4372C2.46056 12.8677 2.46056 10.2983 2.46056 7.74079C2.46056 6.70819 2.41253 5.66359 2.46056 4.63099C2.50858 3.57438 3.33706 3.22618 4.24959 3.22618C5.10208 3.22618 5.94256 3.22618 6.79506 3.22618C9.91686 3.22618 13.0267 3.22618 16.1485 3.22618C19.3423 3.22618 22.5361 3.22618 25.718 3.22618C26.6545 3.22618 27.6031 3.22618 28.5396 3.22618C29.3321 3.22618 30.1365 3.2622 30.4727 4.15071C30.5928 4.4749 30.5448 4.91916 30.5448 5.26736C30.5448 5.95175 30.5448 6.63615 30.5448 7.32054C30.5448 9.79397 30.5448 12.2794 30.5448 14.7528C30.5448 21.5127 30.5448 28.2726 30.5448 35.0205C30.5448 39.343 30.5568 43.6655 30.5448 47.988C30.5328 48.8405 30.0765 49.5849 29.1399 49.621C27.6031 49.669 27.5911 52.0704 29.1399 52.0223C31.2892 51.9503 32.9221 50.2813 32.9461 48.1321C32.9461 47.6878 32.9461 47.2316 32.9461 46.7873C32.9461 44.6021 32.9461 42.4048 32.9461 40.2195C32.9461 33.3516 32.9461 26.4836 32.9461 19.6156C32.9461 14.7889 32.9461 9.96207 32.9461 5.13528C32.9461 4.31881 32.8741 3.53836 32.4779 2.78192C31.7334 1.37711 30.2686 0.800781 28.7557 0.800781C26.3904 0.800781 24.013 0.800781 21.6476 0.800781C15.8363 0.800781 10.0249 0.800781 4.21357 0.800781C2.65267 0.800781 1.17581 1.44916 0.455398 2.914C0.0951906 3.64642 0.0591694 4.39085 0.0591694 5.18331C0.0591694 6.99636 0.0591694 8.7974 0.0591694 10.6104C0.0591694 17.2503 0.0591694 23.8901 0.0591694 30.5299C0.0591694 35.9811 0.0591694 41.4322 0.0591694 46.8834C0.0591694 47.3036 0.0471625 47.7239 0.0591694 48.1561C0.107197 50.2933 1.71613 51.9623 3.86537 52.0223C5.59436 52.0704 7.32336 52.0223 9.04035 52.0223C15.296 52.0223 21.5516 52.0223 27.7952 52.0223C28.2394 52.0223 28.6837 52.0223 29.1279 52.0223C30.6768 52.0223 30.6768 49.621 29.1399 49.621Z" fill="#58C889"/>
<path d="M13.9032 46.211C15.6322 46.211 17.3612 46.211 19.0902 46.211C20.639 46.211 20.639 43.8096 19.0902 43.8096C17.3612 43.8096 15.6322 43.8096 13.9032 43.8096C12.3543 43.8096 12.3543 46.211 13.9032 46.211Z" fill="#58C889"/>
<path d="M8.52403 26.2554C9.89282 27.6242 11.2736 29.005 12.6424 30.3738C13.1107 30.8421 13.8791 30.8301 14.3354 30.3738C17.2891 27.4922 20.2428 24.5985 23.2085 21.7168C23.6287 21.3086 24.049 20.9004 24.4692 20.4921C25.5739 19.4115 23.8809 17.7185 22.7763 18.7991C19.8225 21.6808 16.8688 24.5745 13.9031 27.4561C13.4829 27.8644 13.0626 28.2726 12.6424 28.6808C13.2067 28.6808 13.7711 28.6808 14.3354 28.6808C12.9666 27.3121 11.5858 25.9313 10.217 24.5625C9.12438 23.4578 7.4314 25.1508 8.52403 26.2554Z" fill="#58C889"/>
</svg>
