<svg width="58" height="55" viewBox="0 0 58 55" fill="none" xmlns="http://www.w3.org/2000/svg">
<path d="M28.4373 36.1146C28.098 36.1146 27.7745 35.9705 27.5466 35.7185C27.0239 35.1407 14.7464 21.4657 14.7464 14.1886C14.7464 6.64086 20.8884 0.499512 28.4373 0.499512C35.9868 0.499512 42.1288 6.64086 42.1288 14.1886C42.1288 21.4657 29.8508 35.1407 29.328 35.7185C29.1001 35.9705 28.7766 36.1146 28.4373 36.1146ZM28.4373 2.8998C22.2116 2.8998 17.1467 7.96406 17.1467 14.1886C17.1467 19.0548 24.6136 28.6841 28.4373 33.1014C32.261 28.6829 39.7285 19.0513 39.7285 14.1886C39.7285 7.96406 34.663 2.8998 28.4373 2.8998Z" fill="#58C889"/>
<path d="M1.39662 54.506C1.10069 54.506 0.80886 54.3958 0.583248 54.1884C0.242778 53.8743 0.113271 53.3926 0.250396 52.9507L8.76097 25.501C8.86293 25.1705 9.10261 24.9009 9.41788 24.7603L18.3398 20.779C18.9475 20.507 19.6554 20.7813 19.925 21.3861C20.1951 21.9908 19.9232 22.7011 19.3185 22.9706L10.8923 26.7304L3.29001 51.2513L14.6029 46.7027C14.8847 46.5902 15.2012 46.5879 15.4854 46.6969L29.1704 52.0131L41.7063 46.8434C41.9858 46.7308 42.2981 46.7226 42.5812 46.8281L54.8656 51.3814L48.7342 27.6845L42.3063 26.2019C41.66 26.053 41.2574 25.4084 41.4062 24.7626C41.5556 24.1157 42.2003 23.716 42.8454 23.8625L49.983 25.5092C50.4196 25.61 50.763 25.9452 50.8755 26.3777L57.7652 53.0046C57.8771 53.4383 57.7394 53.8965 57.4077 54.1966C57.0766 54.4966 56.6066 54.588 56.1859 54.431L42.1874 49.2413L29.6416 54.4157C29.3562 54.5318 29.0368 54.5364 28.7491 54.4251L15.0582 49.1065L1.84433 54.4192C1.69959 54.4778 1.54723 54.506 1.39662 54.506Z" fill="#58C889"/>
<path d="M42.1628 49.1533C41.6025 49.1533 41.1015 48.7595 40.9872 48.1888L36.2423 24.4766C36.1122 23.8261 36.5336 23.1944 37.1835 23.0643C37.8345 22.9319 38.4651 23.355 38.5957 24.0054L43.3406 47.7176C43.4707 48.3681 43.0494 48.9998 42.3995 49.1299C42.3198 49.1463 42.2407 49.1533 42.1628 49.1533Z" fill="#58C889"/>
<path d="M29.1839 54.5059C28.5211 54.5059 27.9838 53.9691 27.9838 53.3058L27.9832 39.0646C27.9832 38.4013 28.5205 37.8645 29.1833 37.8645C29.8461 37.8645 30.3835 38.4013 30.3835 39.0646L30.384 53.3058C30.384 53.968 29.8467 54.5059 29.1839 54.5059Z" fill="#58C889"/>
<path d="M15.0512 49.0161C14.9451 49.0161 14.8373 49.002 14.73 48.9727C14.0913 48.7957 13.7168 48.1347 13.8938 47.496L19.7908 26.2134C19.9683 25.5747 20.6282 25.2031 21.2681 25.3766C21.9068 25.5536 22.2813 26.2146 22.1043 26.8533L16.2073 48.1359C16.0597 48.668 15.5774 49.0161 15.0512 49.0161Z" fill="#58C889"/>
</svg>
