<svg width="43" height="56" viewBox="0 0 43 56" fill="none" xmlns="http://www.w3.org/2000/svg">
<path d="M38.42 5.64516H29.3465V1.76468C29.3465 1.30815 28.9471 0.908691 28.4906 0.908691H14.9659C14.5094 0.908691 14.11 1.30815 14.11 1.76468V5.64516H4.52289C2.52558 5.64516 0.927734 7.24301 0.927734 9.24031V52.268C0.927734 54.2653 2.52558 55.8631 4.52289 55.8631H38.4771C40.4744 55.8631 42.0722 54.2653 42.0722 52.268V9.24031C42.0152 7.24301 40.4173 5.64516 38.42 5.64516ZM14.9659 16.7159H28.4906C28.9471 16.7159 29.3465 16.3165 29.3465 15.86V12.1507H35.3385V49.0723H7.60444V12.2077H14.11V15.86C14.11 16.3735 14.5094 16.7159 14.9659 16.7159ZM27.6346 2.62067V11.2947V15.004H15.8219V11.2947V6.44408V2.62067H27.6346ZM40.3032 52.2109C40.3032 53.2381 39.4472 54.0941 38.42 54.0941H4.52289C3.4957 54.0941 2.63971 53.2381 2.63971 52.2109V9.24031C2.63971 8.21313 3.4957 7.35714 4.52289 7.35714H14.11V10.4958H6.74846C6.29193 10.4958 5.89247 10.8952 5.89247 11.3518V49.9854C5.89247 50.4419 6.29193 50.8413 6.74846 50.8413H36.1945C36.651 50.8413 37.0504 50.4419 37.0504 49.9854V11.3518C37.0504 10.8952 36.651 10.4958 36.1945 10.4958H29.3465V7.35714H38.42C39.4472 7.35714 40.3032 8.21313 40.3032 9.24031V52.2109Z" fill="#58C889"/>
<path d="M9.71588 26.3601C9.71588 26.8167 10.1153 27.2161 10.5719 27.2161H32.5422C32.9988 27.2161 33.3982 26.8167 33.3982 26.3601C33.3982 25.9036 32.9988 25.5042 32.5422 25.5042H10.5719C10.1153 25.5042 9.71588 25.9036 9.71588 26.3601Z" fill="#58C889"/>
<path d="M32.5422 31.4961H10.5719C10.1153 31.4961 9.71588 31.8956 9.71588 32.3521C9.71588 32.8086 10.1153 33.2081 10.5719 33.2081H32.5422C32.9988 33.2081 33.3982 32.8086 33.3982 32.3521C33.3982 31.8956 32.9988 31.4961 32.5422 31.4961Z" fill="#58C889"/>
<path d="M32.5422 37.7732H10.5719C10.1153 37.7732 9.71588 38.1727 9.71588 38.6292C9.71588 39.0857 10.1153 39.4852 10.5719 39.4852H32.5422C32.9988 39.4852 33.3982 39.0857 33.3982 38.6292C33.3982 38.1727 32.9988 37.7732 32.5422 37.7732Z" fill="#58C889"/>
</svg>
