<svg width="56" height="52" viewBox="0 0 56 52" fill="none" xmlns="http://www.w3.org/2000/svg">
<path d="M50.826 29.0696C50.8155 29.0696 50.805 29.0696 50.7945 29.0704C50.7486 29.0681 46.758 29.1305 44.8487 24.6401C44.3174 23.3883 44.1356 21.9809 44.0762 21.2821C45.2567 19.9349 45.9021 18.2277 45.9021 16.4198C45.9021 12.6876 43.1182 9.60162 39.519 9.1072V2.03579C39.519 1.41288 39.0141 0.908691 38.3919 0.908691H1.2698C0.646889 0.908691 0.1427 1.41288 0.1427 2.03579V50.0081C0.1427 50.6303 0.646889 51.1352 1.2698 51.1352H38.3911C39.0133 51.1352 39.5182 50.6303 39.5182 50.0081V44.843H53.0968C53.7189 44.843 54.2239 44.338 54.2239 43.7159V39.0384H54.7303C55.3525 39.0384 55.8574 38.5335 55.8574 37.9113V34.1025C55.8574 31.3268 53.6002 29.0696 50.826 29.0696ZM43.6472 16.4191C43.6472 17.7979 43.1069 19.0933 42.1263 20.0656C41.9069 20.2835 41.786 20.5826 41.7935 20.8929C41.7965 20.9936 41.8634 23.3763 42.7741 25.5215C45.2251 31.2847 50.412 31.3163 50.8358 31.3238C52.3626 31.3291 53.604 32.5734 53.604 34.1017V36.7835H53.3267C53.2531 36.7684 53.1764 36.7602 53.0975 36.7602C53.0186 36.7602 52.9427 36.7684 52.8683 36.7835H23.4173V34.1017C23.4173 32.5802 24.6466 31.3396 26.1636 31.3238C26.7813 31.3546 31.6 31.4035 34.136 25.6823C35.0099 23.7212 35.1872 21.0184 35.1947 20.9049C35.2142 20.5833 35.0963 20.2677 34.8686 20.0393C33.906 19.0723 33.3763 17.7866 33.3763 16.4198C33.3763 13.5885 35.6793 11.2848 38.5106 11.2848C41.3434 11.284 43.6472 13.5878 43.6472 16.4191ZM37.264 48.8802H2.3969V3.16214H37.264V9.14327C33.7828 9.73838 31.1221 12.7703 31.1221 16.4191C31.1221 18.2044 31.751 19.8935 32.9037 21.2318C32.8083 22.1192 32.5618 23.6753 32.0756 24.7664C30.0867 29.256 26.4296 29.0839 26.2809 29.0726C26.2516 29.0704 26.2222 29.0689 26.1929 29.0689C23.4195 29.0689 21.1631 31.3261 21.1631 34.101V37.9098C21.1631 38.532 21.6673 39.0369 22.2902 39.0369H22.9146L22.9409 43.7204C22.9439 44.3403 23.4481 44.8407 24.068 44.8407H37.264V48.8802ZM51.9697 42.588H25.1891L25.1695 39.0377H51.9697V42.588Z" fill="#58C889"/>
<path d="M18.8984 11.0736H6.42364C5.80073 11.0736 5.29654 11.5778 5.29654 12.2007C5.29654 12.8236 5.80073 13.3278 6.42364 13.3278H18.8984C19.5213 13.3278 20.0255 12.8236 20.0255 12.2007C20.0255 11.5778 19.5213 11.0736 18.8984 11.0736Z" fill="#58C889"/>
<path d="M18.8984 16.6956H6.42364C5.80073 16.6956 5.29654 17.1998 5.29654 17.8227C5.29654 18.4456 5.80073 18.9498 6.42364 18.9498H18.8984C19.5213 18.9498 20.0255 18.4456 20.0255 17.8227C20.0255 17.1998 19.5213 16.6956 18.8984 16.6956Z" fill="#58C889"/>
</svg>
