<svg width="14" height="17" viewBox="0 0 14 17" fill="none" xmlns="http://www.w3.org/2000/svg">
<path d="M6.49066 16.1383L1.80931 11.0258C0.0538034 9.11631 -0.408171 6.43685 0.577376 4.00379C1.53212 1.66311 3.65721 0.153992 6.15188 0C6.30587 0 6.45986 0 6.61385 0C6.76784 0 6.92183 0 7.07583 0C9.53969 0.153992 11.6648 1.69391 12.5887 4.03458C13.5435 6.46765 13.0507 9.14711 11.2952 11.0258L6.49066 16.1383ZM2.48687 10.379L6.49066 14.7524L10.556 10.4098C12.0652 8.77753 12.4963 6.46765 11.6648 4.37337C10.864 2.34067 9.10852 1.04714 6.95263 0.92395C6.82944 0.92395 6.67545 0.92395 6.55225 0.92395C6.42906 0.92395 6.27507 0.92395 6.15188 0.92395C3.99599 1.04714 2.24049 2.30988 1.40893 4.34257C0.577375 6.43685 0.977754 8.74673 2.48687 10.379Z" fill="#58C889"/>
<path d="M6.55237 8.96248C5.16645 8.96248 4.05771 7.85374 4.05771 6.46781C4.05771 5.08188 5.16645 3.97314 6.55237 3.97314C7.9383 3.97314 9.04704 5.08188 9.04704 6.46781C9.04704 7.82294 7.9383 8.96248 6.55237 8.96248ZM6.55237 4.8663C5.69002 4.8663 4.98166 5.57466 4.98166 6.43701C4.98166 7.29937 5.69002 8.00773 6.55237 8.00773C7.41473 8.00773 8.12309 7.29937 8.12309 6.43701C8.12309 5.57466 7.41473 4.8663 6.55237 4.8663Z" fill="#58C889"/>
</svg>
