<svg width="18" height="18" viewBox="0 0 18 18" fill="none" xmlns="http://www.w3.org/2000/svg">
<path d="M15.3532 11.835C14.4317 10.9135 13.3351 10.2331 12.1395 9.82024C13.421 8.93836 14.2632 7.46195 14.2632 5.79067C14.2632 3.09549 12.0701 0.902344 9.37492 0.902344C6.67973 0.902344 4.48659 3.09549 4.48659 5.79067C4.48659 7.45865 5.32884 8.93836 6.61037 9.82024C5.41471 10.2331 4.31814 10.9135 3.39663 11.835C1.79801 13.4303 0.919434 15.5541 0.919434 17.8133H2.2406C2.2406 13.8795 5.44114 10.679 9.37492 10.679C13.3087 10.679 16.5092 13.8795 16.5092 17.8133H17.8304C17.8304 15.5541 16.9518 13.4303 15.3532 11.835ZM9.37492 9.35783C7.40638 9.35783 5.80776 7.75921 5.80776 5.79067C5.80776 3.82213 7.40638 2.22351 9.37492 2.22351C11.3435 2.22351 12.9421 3.82213 12.9421 5.79067C12.9421 7.75921 11.3435 9.35783 9.37492 9.35783Z" fill="#58C889"/>
</svg>
