<svg width="22" height="22" viewBox="0 0 22 22" fill="none" xmlns="http://www.w3.org/2000/svg">
<path d="M10.5832 0.14209C4.79249 0.14209 0.0831909 4.85139 0.0831909 10.6421C0.0831909 16.4328 4.79249 21.1421 10.5832 21.1421C16.3739 21.1421 21.0832 16.4328 21.0832 10.6421C21.0832 4.85139 16.3739 0.14209 10.5832 0.14209ZM10.5832 1.54209C15.6173 1.54209 19.6832 5.60801 19.6832 10.6421C19.6832 15.6762 15.6173 19.7421 10.5832 19.7421C5.54911 19.7421 1.48319 15.6762 1.48319 10.6421C1.48319 5.60801 5.54911 1.54209 10.5832 1.54209ZM10.5832 4.80876C8.65848 4.80876 7.08319 6.38405 7.08319 8.30876C7.07796 8.67858 7.41334 9.02334 7.78319 9.02334C8.15305 9.02334 8.48842 8.67858 8.48319 8.30876C8.48319 7.14067 9.4151 6.20876 10.5832 6.20876C11.7513 6.20876 12.6832 7.14067 12.6832 8.30876C12.6915 9.26731 12.1978 9.75783 11.5092 10.4088C11.165 10.7342 10.7827 11.0728 10.4592 11.5171C10.1358 11.9614 9.88319 12.5388 9.88319 13.2088C9.87796 13.5786 10.2133 13.9233 10.5832 13.9233C10.953 13.9233 11.2884 13.5786 11.2832 13.2088C11.2832 12.8628 11.3846 12.6225 11.5894 12.341C11.7943 12.0596 12.1133 11.7611 12.4717 11.4223C13.1872 10.7459 14.0901 10.0186 14.0832 8.30876C14.0832 6.39729 12.5054 4.80876 10.5832 4.80876ZM10.5832 14.6088C10.0677 14.6088 9.64986 15.0266 9.64986 15.5421C9.64986 16.0575 10.0677 16.4754 10.5832 16.4754C11.0987 16.4754 11.5165 16.0575 11.5165 15.5421C11.5165 15.0266 11.0987 14.6088 10.5832 14.6088Z" fill="#58C889"/>
</svg>
