<svg width="22" height="21" viewBox="0 0 22 21" fill="none" xmlns="http://www.w3.org/2000/svg">
<path d="M1.60636 0.902344L0.960205 1.5485V15.1177L1.60636 15.7639H13.6016L17.6097 20.0805L18.7294 19.6408V15.7639H21.3141L21.9602 15.1177V1.5485L21.3141 0.902344H1.60636ZM20.6679 14.4716H18.0833L17.4371 15.1177V17.9954L14.3569 14.6777L13.8833 14.4716H2.25251V2.19465H20.6679V14.4716Z" fill="#58C889"/>
<path d="M5.48362 6.71772H17.1144C17.4711 6.71772 17.7605 6.42825 17.7605 6.07157C17.7605 5.71489 17.4711 5.42542 17.1144 5.42542H5.48362C5.12694 5.42542 4.83746 5.71489 4.83746 6.07157C4.83746 6.42825 5.12694 6.71772 5.48362 6.71772Z" fill="#58C889"/>
<path d="M5.48362 10.2717H17.1144C17.4711 10.2717 17.7605 9.9822 17.7605 9.62552C17.7605 9.26885 17.4711 8.97937 17.1144 8.97937H5.48362C5.12694 8.97937 4.83746 9.26885 4.83746 9.62552C4.83746 9.9822 5.12694 10.2717 5.48362 10.2717Z" fill="#58C889"/>
</svg>
