<svg width="32" height="32" viewBox="0 0 32 32" fill="none" xmlns="http://www.w3.org/2000/svg">
<path d="M16.3457 0.612122C12.2646 0.612122 8.3506 2.23334 5.46481 5.11913C2.57902 8.00492 0.957798 11.9189 0.957798 16C0.957798 20.0811 2.57902 23.9951 5.46481 26.8809C8.3506 29.7667 12.2646 31.3879 16.3457 31.3879C20.4268 31.3879 24.3408 29.7667 27.2266 26.8809C30.1124 23.9951 31.7336 20.0811 31.7336 16C31.7336 11.9189 30.1124 8.00492 27.2266 5.11913C24.3408 2.23334 20.4268 0.612122 16.3457 0.612122Z" fill="#29B6F6"/>
<path d="M24.0016 9.07537L21.1194 23.7908C21.1194 23.7908 20.9955 24.4633 20.1615 24.4633C19.7183 24.4633 19.4898 24.2524 19.4898 24.2524L13.247 19.0721L10.1925 17.5326L6.2724 16.49C6.2724 16.49 5.57456 16.2884 5.57456 15.7114C5.57456 15.2305 6.29241 15.0012 6.29241 15.0012L22.6928 8.48601C22.6921 8.48524 23.1937 8.3052 23.5592 8.30597C23.7838 8.30597 24.04 8.40215 24.04 8.69067C24.04 8.88302 24.0016 9.07537 24.0016 9.07537Z" fill="white"/>
<path d="M15.5767 21.0047L12.9408 23.6006C12.9408 23.6006 12.8261 23.6891 12.673 23.6929C12.6199 23.6945 12.563 23.686 12.5045 23.6598L13.2462 19.0704L15.5767 21.0047Z" fill="#B0BEC5"/>
<path d="M20.8828 11.5349C20.7528 11.3656 20.5127 11.3349 20.3435 11.4634L10.1905 17.5393C10.1905 17.5393 11.8109 22.0725 12.0579 22.8573C12.3056 23.6429 12.5041 23.6613 12.5041 23.6613L13.2458 19.0719L20.8105 12.0735C20.9798 11.945 21.0113 11.7042 20.8828 11.5349Z" fill="#CFD8DC"/>
</svg>
