<svg width="31" height="32" viewBox="0 0 31 32" fill="none" xmlns="http://www.w3.org/2000/svg">
<path d="M26.2722 5.07345C23.3983 2.1976 19.5783 0.613086 15.5124 0.612122C7.11822 0.612122 0.291212 7.43624 0.287354 15.8246C0.28639 18.6995 1.0907 21.4982 2.61446 23.9218L2.97708 24.4975L1.43885 30.1113L7.19923 28.601L7.75569 28.9309C10.0915 30.3177 12.7706 31.0506 15.5018 31.0516H15.5076C23.896 31.0516 30.723 24.2265 30.7259 15.8372C30.7268 11.7722 29.1462 7.94931 26.2722 5.07345Z" fill="#40C351"/>
<path fill-rule="evenodd" clip-rule="evenodd" d="M10.9308 8.17198C10.5884 7.4101 10.2277 7.39467 9.90077 7.38117C9.63363 7.3696 9.32888 7.37056 9.02413 7.37056C8.71938 7.37056 8.22367 7.48533 7.80416 7.94342C7.38464 8.40151 6.20228 9.50768 6.20228 11.7586C6.20228 14.0095 7.84177 16.1852 8.07033 16.49C8.2989 16.7947 11.2355 21.5618 15.8859 23.3961C19.7502 24.9198 20.5372 24.617 21.3762 24.5408C22.2152 24.4646 24.0833 23.4346 24.4642 22.3661C24.8452 21.2975 24.8452 20.3823 24.7314 20.1913C24.6166 20.0004 24.3119 19.8866 23.8547 19.6571C23.3976 19.4275 21.1476 18.3214 20.7281 18.169C20.3086 18.0166 20.0039 17.9404 19.6981 18.3985C19.3934 18.8556 18.5168 19.8866 18.2496 20.1913C17.9825 20.4971 17.7153 20.5356 17.2582 20.3061C16.8011 20.0766 15.3275 19.5944 13.579 18.0359C12.2192 16.8237 11.3011 15.3259 11.0339 14.8678C10.7668 14.4107 11.005 14.1629 11.2345 13.9343C11.44 13.7289 11.6917 13.4 11.9212 13.1329C12.1498 12.8657 12.2259 12.6748 12.3783 12.37C12.5307 12.0643 12.4545 11.7972 12.3397 11.5686C12.2269 11.3391 11.3377 9.07659 10.9308 8.17198Z" fill="white"/>
</svg>
