<svg width="20" height="17" viewBox="0 0 20 17" fill="none" xmlns="http://www.w3.org/2000/svg">
<path d="M2.4389 16.4688H18.4389C18.8366 16.4683 19.2179 16.3101 19.4991 16.0289C19.7803 15.7477 19.9385 15.3664 19.9389 14.9688V4.96875C19.9385 4.57106 19.7803 4.1898 19.4991 3.90859C19.2179 3.62738 18.8366 3.4692 18.4389 3.46875H15.9741C15.8917 3.46896 15.8106 3.44873 15.738 3.40986C15.6654 3.37099 15.6035 3.3147 15.558 3.24605L14.1518 1.13675C14.015 0.931063 13.8295 0.762421 13.6117 0.645864C13.3939 0.529308 13.1507 0.468461 12.9037 0.468751H7.9737C7.7267 0.468461 7.48346 0.529308 7.26569 0.645864C7.04791 0.762421 6.86237 0.931063 6.7256 1.13675L5.3198 3.24605C5.27429 3.3147 5.21245 3.37099 5.13983 3.40986C5.06721 3.44873 4.98607 3.46896 4.9037 3.46875H2.4389C2.04122 3.4692 1.65995 3.62738 1.37874 3.90859C1.09753 4.1898 0.939354 4.57106 0.938904 4.96875V14.9688C0.939354 15.3664 1.09753 15.7477 1.37874 16.0289C1.65995 16.3101 2.04122 16.4683 2.4389 16.4688ZM1.9389 4.96875C1.93906 4.83619 1.99179 4.70911 2.08553 4.61537C2.17926 4.52164 2.30634 4.46891 2.4389 4.46875H4.9037C5.15071 4.46904 5.39395 4.40819 5.61172 4.29164C5.8295 4.17508 6.01504 4.00644 6.1518 3.80075L7.558 1.69145C7.60352 1.6228 7.66536 1.56651 7.73798 1.52764C7.8106 1.48878 7.89173 1.46854 7.9741 1.46875H12.9041C12.9865 1.46854 13.0676 1.48878 13.1402 1.52764C13.2129 1.56651 13.2747 1.6228 13.3202 1.69145L14.726 3.80075C14.8628 4.00644 15.0483 4.17508 15.2661 4.29164C15.4839 4.40819 15.7271 4.46904 15.9741 4.46875H18.4389C18.5715 4.46891 18.6985 4.52164 18.7923 4.61537C18.886 4.70911 18.9387 4.83619 18.9389 4.96875V14.9688C18.9387 15.1013 18.886 15.2284 18.7923 15.3221C18.6985 15.4159 18.5715 15.4686 18.4389 15.4688H2.4389C2.30634 15.4686 2.17926 15.4159 2.08553 15.3221C1.99179 15.2284 1.93906 15.1013 1.9389 14.9688V4.96875Z" fill="#8F9BA1"/>
<path d="M10.4389 13.4688C11.3289 13.4688 12.1989 13.2048 12.939 12.7104C13.679 12.2159 14.2558 11.5131 14.5964 10.6908C14.937 9.86856 15.0261 8.96376 14.8524 8.09085C14.6788 7.21793 14.2502 6.41611 13.6209 5.78677C12.9915 5.15744 12.1897 4.72885 11.3168 4.55522C10.4439 4.38158 9.5391 4.4707 8.71683 4.81129C7.89456 5.15189 7.19176 5.72866 6.69729 6.46869C6.20282 7.20871 5.9389 8.07874 5.9389 8.96875C5.94023 10.1618 6.41476 11.3056 7.25838 12.1493C8.10201 12.9929 9.24584 13.4674 10.4389 13.4688ZM10.4389 5.46875C11.1311 5.46875 11.8078 5.67402 12.3834 6.05861C12.959 6.44319 13.4076 6.98982 13.6725 7.62936C13.9374 8.2689 14.0067 8.97263 13.8717 9.65157C13.7366 10.3305 13.4033 10.9541 12.9138 11.4436C12.4243 11.9331 11.8007 12.2665 11.1217 12.4015C10.4428 12.5365 9.73905 12.4672 9.09951 12.2023C8.45997 11.9374 7.91334 11.4888 7.52876 10.9132C7.14418 10.3377 6.9389 9.66099 6.9389 8.96875C6.94002 8.04084 7.30912 7.15124 7.96526 6.49511C8.62139 5.83897 9.51099 5.46986 10.4389 5.46875Z" fill="#8F9BA1"/>
</svg>
