<svg width="30" height="30" viewBox="0 0 30 30" fill="none" xmlns="http://www.w3.org/2000/svg">
<circle cx="14.52" cy="15.2407" r="13.77" stroke="#566072" stroke-width="1.5"/>
<path d="M18.6527 23.3319H18.4135C16.904 23.0176 15.4714 22.4085 14.1977 21.5396C12.924 20.6706 11.8343 19.5589 10.991 18.268C10.0592 17.0294 9.38264 15.6182 9.00039 14.1161C8.61815 12.614 8.53788 11.051 8.76422 9.51767C8.8418 9.11889 9.07279 8.76648 9.40751 8.53625L10.8508 7.53832C11.1961 7.29657 11.6232 7.20166 12.0384 7.27441C12.2434 7.31007 12.4394 7.386 12.6149 7.49783C12.7905 7.60967 12.9421 7.75517 13.0611 7.92595L14.727 10.3424C14.9521 10.6871 15.0349 11.1056 14.958 11.51C14.8811 11.9145 14.6505 12.2734 14.3146 12.5114L13.2837 13.3362C13.2142 13.3785 13.161 13.4431 13.1326 13.5193C13.1041 13.5956 13.1022 13.6793 13.127 13.7568C13.7284 15.3515 14.721 16.7695 16.0136 17.8804C16.0753 17.9272 16.1506 17.9526 16.228 17.9526C16.3055 17.9526 16.3808 17.9272 16.4424 17.8804L17.4651 17.0557C17.6357 16.932 17.8293 16.8434 18.0344 16.795C18.2396 16.7467 18.4523 16.7396 18.6602 16.7741C18.8681 16.8086 19.0671 16.8841 19.2456 16.9962C19.4241 17.1082 19.5786 17.2546 19.7001 17.4268L21.3496 19.802C21.4697 19.9725 21.5549 20.1649 21.6005 20.3684C21.646 20.5719 21.6509 20.7823 21.6149 20.9877C21.5789 21.193 21.5026 21.3893 21.3906 21.5651C21.2785 21.7409 21.1329 21.8929 20.962 22.0123L19.5517 23.0432C19.2883 23.2286 18.9747 23.3293 18.6527 23.3319ZM11.758 8.48676C11.6868 8.48789 11.6177 8.51093 11.5601 8.55274L10.1168 9.56716C10.0466 9.61294 9.99648 9.6837 9.97657 9.76509C9.78482 11.1288 9.86385 12.5169 10.2092 13.8499C10.5545 15.183 11.1592 16.4349 11.9889 17.534C13.4982 19.8657 15.8712 21.5031 18.5867 22.0865C18.6719 22.0956 18.7574 22.0721 18.8259 22.0206L20.2692 21.0061C20.3075 20.9805 20.3403 20.9474 20.3656 20.9089C20.391 20.8704 20.4084 20.8272 20.4168 20.7819C20.4253 20.7366 20.4246 20.69 20.4148 20.645C20.405 20.5999 20.3864 20.5573 20.3599 20.5195L18.7104 18.1443C18.6841 18.1067 18.6506 18.0747 18.6118 18.0501C18.573 18.0255 18.5297 18.0089 18.4844 18.0012C18.4391 17.9936 18.3928 17.995 18.348 18.0054C18.3033 18.0158 18.2611 18.035 18.2239 18.0619L17.2012 18.8866C16.914 19.0933 16.5663 19.1989 16.2126 19.187C15.859 19.1751 15.5192 19.0462 15.2466 18.8206C13.769 17.5762 12.6335 15.9751 11.9477 14.1691C11.8338 13.8352 11.8336 13.473 11.9469 13.1389C12.0603 12.8048 12.2809 12.5175 12.5745 12.3217L13.6054 11.497C13.6455 11.4711 13.6802 11.4375 13.7073 11.3982C13.7345 11.3588 13.7536 11.3145 13.7635 11.2678C13.7735 11.221 13.7741 11.1728 13.7654 11.1258C13.7566 11.0788 13.7387 11.034 13.7126 10.9939L12.0631 8.61872C12.0073 8.5507 11.9277 8.50647 11.8405 8.49501L11.758 8.48676Z" fill="#566072"/>
</svg>
