<svg width="16" height="16" viewBox="0 0 16 16" fill="none" xmlns="http://www.w3.org/2000/svg">
<path d="M11.6347 15.2616C11.6347 15.2616 11.6347 15.2616 11.6347 15.2616C11.1555 15.2616 10.1523 15.1819 8.81683 14.6484C7.18426 13.9963 5.57212 12.8812 4.0252 11.3343C0.942285 8.25142 -0.190212 5.95873 0.116211 3.42074C0.260416 2.14739 0.806552 1.51062 1.56225 0.750295C1.8565 0.456082 2.24383 0.294434 2.65374 0.294434C3.04706 0.294434 3.41424 0.445046 3.68774 0.718506L5.89546 2.92622C6.47228 3.50511 6.45886 4.45805 5.86598 5.05093L5.2343 5.68175C5.0628 5.85305 5.02887 6.11907 5.15193 6.32873C5.64805 7.17421 6.0984 7.84131 6.80949 8.55357C7.43629 9.18037 8.08046 9.66212 9.03269 10.216C9.11386 10.2632 9.2063 10.2882 9.3 10.2881C9.44228 10.2881 9.57602 10.2328 9.67651 10.1325L10.3119 9.49801C10.6048 9.20508 10.9921 9.04364 11.4021 9.04364C11.795 9.04364 12.1622 9.1939 12.436 9.46669L14.6441 11.6749C15.2204 12.2531 15.2071 13.2066 14.6151 13.8007C14.6141 13.8017 14.613 13.8028 14.6119 13.8038C13.8201 14.5786 13.2065 15.0976 11.9413 15.248C11.94 15.2482 11.9386 15.2483 11.9373 15.2485C11.9006 15.2524 11.7978 15.2616 11.6347 15.2616ZM2.65374 1.00638C2.434 1.00638 2.22543 1.09395 2.06645 1.25297C1.28014 2.04401 0.933386 2.53184 0.823318 3.50347C0.546086 5.79979 1.61963 7.92197 4.52862 10.8309C7.97912 14.2814 10.84 14.5496 11.6347 14.5496C11.6347 14.5496 11.6347 14.5496 11.6348 14.5496C11.7658 14.5496 11.8419 14.5426 11.8595 14.5408C12.8659 14.4206 13.3406 14.0515 14.1121 13.2967C14.4267 12.9797 14.4394 12.4782 14.1402 12.1779L11.9329 9.97057C11.794 9.83209 11.6053 9.75559 11.402 9.75559C11.1822 9.75559 10.9737 9.84295 10.8151 10.0016L10.1795 10.6362C9.9446 10.8709 9.63223 11.0001 9.29996 11.0001C9.08064 11.0001 8.86443 10.9418 8.67466 10.8314C7.97218 10.4228 7.14137 9.89236 6.30579 9.05678C5.54101 8.29069 5.06233 7.58287 4.53781 6.68902C4.25071 6.19969 4.3302 5.5783 4.73121 5.17794L5.3627 4.54733C5.67828 4.23172 5.6913 3.73005 5.39157 3.42922L3.18428 1.22196C3.04531 1.08295 2.85689 1.00638 2.65374 1.00638Z" fill="#58C889"/>
</svg>
