<svg width="17" height="14" viewBox="0 0 17 14" fill="none" xmlns="http://www.w3.org/2000/svg">
<path d="M2.49389 13.8132C1.52776 13.8132 0.737793 13.0232 0.737793 12.0571V4.25224C0.737793 3.28611 1.52776 2.49614 2.49389 2.49614H4.96339L5.64632 0.794922C5.67439 0.722037 5.72368 0.659244 5.78782 0.614675C5.85195 0.570106 5.92799 0.545811 6.00609 0.544922H11.4695C11.5476 0.545811 11.6236 0.570106 11.6878 0.614675C11.7519 0.659244 11.8012 0.722037 11.8293 0.794922L12.5122 2.49614H14.9817C15.9478 2.49614 16.7378 3.28611 16.7378 4.25224V12.0571C16.7378 13.0232 15.9478 13.8132 14.9817 13.8132H2.49389ZM2.49389 13.0327H14.9817C15.5289 13.0327 15.9573 12.6044 15.9573 12.0571V4.25224C15.9573 3.705 15.5289 3.27663 14.9817 3.27663H12.25C12.1726 3.27623 12.0971 3.25283 12.033 3.2094C11.9689 3.16597 11.9192 3.10447 11.8902 3.03273L11.2073 1.32541H6.26829L5.58536 3.03273C5.55634 3.10447 5.50664 3.16597 5.44258 3.2094C5.37852 3.25283 5.30299 3.27623 5.2256 3.27663H2.49389C1.94665 3.27663 1.51828 3.705 1.51828 4.25224V12.0571C1.51828 12.6044 1.94665 13.0327 2.49389 13.0327ZM8.73779 11.6669C6.80271 11.6669 5.2256 10.0898 5.2256 8.15468C5.2256 6.21955 6.80271 4.64248 8.73779 4.64248C10.6729 4.64248 12.25 6.21957 12.25 8.15468C12.25 10.0898 10.6729 11.6669 8.73779 11.6669ZM8.73779 10.8864C10.2511 10.8864 11.4695 9.66796 11.4695 8.15468C11.4695 6.64137 10.2511 5.42297 8.73779 5.42297C7.22452 5.42297 6.00609 6.64137 6.00609 8.15468C6.00609 9.66796 7.22452 10.8864 8.73779 10.8864Z" fill="#58C889"/>
</svg>
