<svg width="35" height="30" viewBox="0 0 35 30" fill="none" xmlns="http://www.w3.org/2000/svg">
<path d="M6.10352e-05 20.0937C6.10352e-05 25.9977 3.45606 29.3097 7.34406 29.3097C10.8001 29.3097 13.3921 26.4297 13.3921 23.1177C13.3921 19.6617 10.9441 17.0697 7.63206 17.0697C7.20006 17.0697 6.19206 17.2137 6.04806 17.3577C6.33606 12.7497 9.93606 7.13371 14.5441 3.9657L10.2241 0.509705C4.75206 4.5417 6.10352e-05 12.0297 6.10352e-05 20.0937ZM20.4481 20.0937C20.4481 25.9977 23.7601 29.3097 27.6481 29.3097C31.2481 29.3097 33.8401 26.4297 33.8401 23.1177C33.8401 19.6617 31.3921 17.0697 28.0801 17.0697C27.5041 17.0697 26.6401 17.2137 26.4961 17.3577C26.7841 12.7497 30.3841 7.13371 34.9921 3.9657L30.6721 0.509705C25.0561 4.5417 20.4481 12.0297 20.4481 20.0937Z" fill="#58C889"/>
</svg>
