<svg width="12" height="12" viewBox="0 0 12 12" fill="none" xmlns="http://www.w3.org/2000/svg">
<path d="M6.21876 2.48254L6.92188 4.43567L7.07813 4.98255H7.625L9.73438 5.06067L8.09376 6.31067L7.625 6.62317L7.78126 7.17005L8.40625 9.2013L6.60938 7.9513L6.14063 7.6388L5.75001 7.9513L4.03125 9.12317L4.65625 7.09192L4.8125 6.54505L4.34375 6.31067L2.70313 5.06067L4.8125 4.98255H5.35938L5.51563 4.43567L6.21876 2.48254ZM6.21876 0.0606689L4.8125 4.2013L0.4375 4.27942L3.875 6.93567L2.625 11.0763L6.21876 8.5763L9.81251 11.0763L8.56251 6.93567L12 4.27942L7.625 4.2013L6.21876 0.0606689Z" fill="#C5C5C5"/>
</svg>
