<svg width="13" height="12" viewBox="0 0 13 12" fill="none" xmlns="http://www.w3.org/2000/svg">
<path d="M6.39783 2.58887L7.10096 4.54199L7.25721 5.08887H7.80408L9.91346 5.16699L8.27284 6.417L7.80408 6.72949L7.96033 7.27637L8.58533 9.30762L6.78846 8.05762L6.31971 7.74512L5.92908 8.05762L4.21033 9.2295L4.83533 7.19825L4.99158 6.65137L4.52283 6.417L2.88221 5.16699L4.99158 5.08887H5.53846L5.69471 4.54199L6.39783 2.58887ZM6.39783 0.166992L4.99158 4.30762L0.616577 4.38574L4.05408 7.042L2.80408 11.1826L6.39783 8.68262L9.99158 11.1826L8.74158 7.042L12.1791 4.38574L7.80408 4.30762L6.39783 0.166992Z" fill="#C5C5C5"/>
</svg>
