<svg width="378" height="378" viewBox="0 0 378 378" fill="none" xmlns="http://www.w3.org/2000/svg">
<g clip-path="url(#clip0)">
<path d="M79.5558 302.911L70.5064 312.821L68.8484 311.315L76.4803 302.949L71.1898 298.114L63.5579 306.48L61.8999 304.974L70.9367 295.052L79.5558 302.911Z" fill="#58C889"/>
<path d="M89.0873 312.518C89.1132 313.492 88.81 314.446 88.2266 315.226C87.7253 315.862 87.0584 316.347 86.2992 316.629C85.5401 316.91 84.718 316.977 83.9235 316.821C83.2488 316.697 82.6146 316.41 82.0756 315.986L79.076 313.695L76.2283 317.429L74.4564 316.062L82.5945 305.392L87.366 309.05C87.7396 309.322 88.0685 309.651 88.3406 310.025C88.8702 310.744 89.1341 311.626 89.0873 312.518V312.518ZM85.2018 314.632C85.6883 314.51 86.1177 314.224 86.4168 313.822C86.749 313.388 86.911 312.848 86.8724 312.303C86.8607 312.001 86.7834 311.705 86.6457 311.436C86.5079 311.167 86.3132 310.932 86.0751 310.746L83.1008 308.455L80.3669 312.024L83.3412 314.315C83.6016 314.517 83.9074 314.651 84.2319 314.706C84.5564 314.761 84.8895 314.736 85.2018 314.632V314.632Z" fill="#58C889"/>
<path d="M100.541 318.124L102.464 319.365L95.187 330.642L93.2758 329.414L98.4017 321.453L88.0487 326.035L86.1249 324.794L93.4024 313.518L95.3135 314.745L90.2003 322.693L100.541 318.124Z" fill="#58C889"/>
<path d="M112.703 324.972L114.703 326.035L108.413 337.894L106.4 336.819L109.084 331.781C108.51 331.944 107.91 331.99 107.319 331.916C106.727 331.842 106.157 331.65 105.641 331.351C104.966 331.005 104.384 330.501 103.945 329.883C103.498 329.303 103.207 328.619 103.097 327.896C102.973 326.587 103.275 325.273 103.958 324.149L105.54 321.175L107.552 322.226L106.185 324.807C105.636 325.659 105.39 326.672 105.489 327.681C105.559 328.09 105.729 328.476 105.982 328.805C106.236 329.133 106.566 329.395 106.945 329.566C107.303 329.779 107.708 329.902 108.124 329.926C108.54 329.95 108.956 329.875 109.337 329.706C109.884 329.44 110.354 329.039 110.704 328.541C110.891 328.274 111.06 327.995 111.21 327.706L112.703 324.972Z" fill="#58C889"/>
<path d="M126.107 331.11L128.195 332.009L122.867 344.4L120.778 343.501L124.461 334.755L115.007 341.02L112.919 340.122L118.247 327.731L120.348 328.617L116.665 337.363L126.107 331.11Z" fill="#58C889"/>
<path d="M140.031 336.071L142.182 336.78L137.98 349.538L135.829 348.829L137.373 344.424L131.336 342.437L129.779 346.956L127.653 346.247L131.842 333.502L133.981 334.198L131.905 340.501L137.942 342.488L140.031 336.071Z" fill="#58C889"/>
<path d="M160.28 342.754C160.721 343.62 160.864 344.608 160.685 345.564C160.506 346.354 160.117 347.081 159.557 347.668C158.998 348.254 158.289 348.677 157.508 348.892C156.845 349.061 156.153 349.078 155.483 348.943L151.787 348.184L150.838 352.778L148.699 352.386L151.408 339.248L157.293 340.45C157.744 340.543 158.176 340.71 158.571 340.944C159.328 341.338 159.93 341.976 160.28 342.754V342.754ZM157.698 346.348C158.082 346.028 158.345 345.586 158.445 345.095C158.544 344.559 158.455 344.004 158.192 343.526C158.049 343.248 157.845 343.005 157.595 342.817C157.345 342.628 157.056 342.498 156.749 342.438L153.078 341.678L152.167 346.083L155.85 346.829C156.174 346.913 156.513 346.912 156.836 346.828C157.16 346.744 157.456 346.579 157.698 346.348V346.348Z" fill="#58C889"/>
<path d="M171.406 356.132L170.988 353.816L165.267 353.157L164.293 355.296L162.027 355.031L167.875 342.222L171.153 342.64L173.697 356.473L171.406 356.132ZM166.254 351.158L170.608 351.689L169.279 344.589L166.254 351.158Z" fill="#58C889"/>
<path d="M187.632 350.133C188.194 350.911 188.479 351.856 188.442 352.816C188.378 353.789 187.995 354.714 187.353 355.449C186.805 356.127 186.049 356.607 185.202 356.815C184.755 356.953 184.288 357.009 183.822 356.98L177.835 356.714L178.43 343.311L187.505 343.703L187.429 345.804L180.569 345.5L180.481 348.12L184.202 348.222C184.892 348.253 185.564 348.448 186.163 348.791C186.755 349.112 187.259 349.572 187.632 350.133V350.133ZM186.138 352.715C186.18 352.215 186.041 351.716 185.746 351.31C185.568 351.039 185.329 350.816 185.047 350.657C184.765 350.499 184.449 350.41 184.126 350.399L180.379 350.221L180.19 354.714L183.923 354.879C184.227 354.888 184.53 354.833 184.811 354.717C185.092 354.602 185.346 354.428 185.556 354.208C185.917 353.787 186.126 353.256 186.151 352.702L186.138 352.715Z" fill="#58C889"/>
<path d="M198.503 357.233C197.554 357.271 196.607 357.116 195.719 356.777C194.872 356.46 194.119 355.933 193.529 355.246C192.417 353.918 191.799 352.245 191.783 350.512C191.636 348.776 192.111 347.045 193.124 345.627C193.652 344.888 194.363 344.299 195.187 343.918C196.041 343.505 196.973 343.28 197.921 343.26C198.843 343.176 199.771 343.309 200.633 343.647C201.494 343.986 202.264 344.521 202.883 345.209C203.961 346.574 204.583 348.242 204.663 349.979C204.742 351.716 204.275 353.434 203.326 354.892C202.76 355.63 202.029 356.227 201.192 356.633C200.354 357.04 199.434 357.245 198.503 357.233V357.233ZM198.402 355.107C198.997 355.122 199.586 354.989 200.116 354.719C200.647 354.45 201.102 354.052 201.44 353.563C202.085 352.518 202.37 351.291 202.25 350.069C202.283 348.842 201.894 347.64 201.149 346.665C200.773 346.207 200.29 345.849 199.742 345.624C199.194 345.398 198.599 345.313 198.01 345.374C197.403 345.387 196.807 345.534 196.263 345.804C195.71 346.062 195.241 346.47 194.909 346.981C194.31 348.044 194.021 349.253 194.072 350.472C194.124 351.69 194.514 352.87 195.2 353.879C195.558 354.332 196.03 354.681 196.567 354.892C197.155 355.098 197.782 355.172 198.402 355.107V355.107Z" fill="#58C889"/>
<path d="M217.285 341.717L217.538 343.818L213.235 344.349L214.64 355.601L212.4 355.892L211.008 344.628L206.692 345.172L206.439 343.071L217.285 341.717Z" fill="#58C889"/>
<path d="M230.789 352.791L229.764 350.753L224.157 351.88L223.929 354.183L221.664 354.626L223.17 340.64L226.385 339.957L233.181 352.297L230.789 352.791ZM224.271 349.665L228.524 348.855L225.005 342.526L224.271 349.665Z" fill="#58C889"/>
<path d="M242.079 335.907L242.611 337.907L238.46 339.198L241.485 350.095L239.308 350.703L236.283 339.805L232.093 340.957L231.562 338.957L242.079 335.907Z" fill="#58C889"/>
<path d="M255.964 337.844C256.793 338.345 257.424 339.119 257.747 340.033C258.07 340.947 258.066 341.944 257.736 342.856C257.492 343.699 256.981 344.441 256.28 344.969C255.917 345.254 255.511 345.48 255.078 345.64L249.471 347.627L244.915 334.996L247.016 334.237L248.61 338.666L252.154 337.375C252.802 337.142 253.496 337.064 254.179 337.148C254.821 337.235 255.433 337.473 255.964 337.844V337.844ZM255.559 340.78C255.393 340.308 255.072 339.906 254.647 339.641C254.379 339.451 254.068 339.329 253.742 339.284C253.416 339.24 253.084 339.276 252.774 339.388L249.243 340.666L250.787 344.893L254.318 343.615C254.61 343.512 254.876 343.345 255.095 343.126C255.314 342.907 255.481 342.642 255.584 342.35C255.758 341.85 255.758 341.305 255.584 340.805L255.559 340.78Z" fill="#58C889"/>
<path d="M275.252 331.642L277.543 331.224C277.652 331.991 277.626 332.77 277.467 333.528C277.271 334.426 276.854 335.262 276.252 335.958C275.661 336.675 274.923 337.258 274.088 337.666C273.238 338.099 272.307 338.349 271.354 338.4C270.453 338.459 269.552 338.289 268.734 337.907C267.163 337.171 265.9 335.908 265.165 334.338C264.341 332.8 264.068 331.027 264.393 329.313C264.58 328.424 264.989 327.596 265.583 326.908C266.197 326.195 266.945 325.61 267.785 325.187C268.594 324.733 269.497 324.472 270.423 324.423C271.349 324.375 272.274 324.541 273.126 324.908C273.95 325.302 274.686 325.857 275.29 326.541L273.404 327.921C273.05 327.52 272.62 327.193 272.139 326.959C271.606 326.689 271.014 326.557 270.417 326.575C269.82 326.593 269.238 326.76 268.722 327.06C268.175 327.326 267.695 327.711 267.317 328.187C266.943 328.627 266.698 329.161 266.608 329.731C266.508 330.944 266.745 332.161 267.292 333.248C267.839 334.336 268.675 335.251 269.709 335.894C270.22 336.157 270.793 336.276 271.367 336.236C271.973 336.214 272.566 336.054 273.101 335.768C273.656 335.516 274.142 335.134 274.518 334.654C274.896 334.21 275.145 333.672 275.24 333.097C275.349 332.619 275.354 332.122 275.252 331.642V331.642Z" fill="#58C889"/>
<path d="M288.352 313.328L290.225 312.088L297.654 323.263L295.781 324.504L293.186 320.618L287.896 324.137L290.516 327.972L288.655 329.225L281.213 318.036L283.074 316.808L286.757 322.339L292.06 318.808L288.352 313.328Z" fill="#58C889"/>
<path d="M308.437 314.961L306.488 313.645L301.995 317.201L302.843 319.391L301.033 320.821L295.995 307.683L298.577 305.633L310.234 313.518L308.437 314.961ZM301.21 315.151L304.64 312.43L298.59 308.354L301.21 315.151Z" fill="#58C889"/>
<path d="M314.12 291.71L323.372 301.418L321.764 303.025L315.828 296.786L318.79 305.873L318.157 306.506L309.247 303.139L315.183 309.354L313.575 310.961L304.311 301.241L305.918 299.634L315.778 303.367L312.525 293.331L314.12 291.71Z" fill="#58C889"/>
<path d="M322.321 282.344L323.827 280.636L333.94 289.457L332.446 291.179L325.308 284.952L328.358 295.874L326.852 297.583L316.74 288.761L318.233 287.04L325.359 293.254L322.321 282.344Z" fill="#58C889"/>
</g>
<defs>
<clipPath id="clip0">
<rect width="378" height="378" fill="white"/>
</clipPath>
</defs>
</svg>
