<svg width="70" height="58" viewBox="0 0 70 58" fill="none" xmlns="http://www.w3.org/2000/svg">
<path d="M50.399 20.2689C50.4027 20.2689 50.4065 20.2689 50.411 20.2689C51.9981 20.2689 53.4916 19.6513 54.6168 18.5298C55.745 17.4054 56.3671 15.9089 56.3686 14.3158C56.3716 11.0263 53.6997 8.34695 50.4117 8.34246C50.4102 8.34246 50.408 8.34246 50.4065 8.34246C48.8156 8.34246 47.3191 8.96082 46.1932 10.0838C45.065 11.2082 44.4429 12.7047 44.4414 14.2948C44.4384 15.8894 45.0575 17.3897 46.1842 18.5193C47.3109 19.6475 48.8081 20.2689 50.399 20.2689ZM47.7788 11.6739C48.481 10.9739 49.4145 10.5883 50.4057 10.5883C50.4072 10.5883 50.408 10.5883 50.4095 10.5883C52.4585 10.5906 54.1242 12.2615 54.1227 14.3135C54.1219 15.3062 53.7334 16.239 53.0312 16.9397C52.3297 17.6389 51.3992 18.0237 50.4087 18.0237C50.4065 18.0237 50.4035 18.0237 50.4012 18.0237C49.4093 18.0237 48.4765 17.6367 47.7743 16.933C47.0713 16.2293 46.685 15.2935 46.6873 14.2978C46.688 13.3066 47.0751 12.3746 47.7788 11.6739Z" fill="#58C889"/>
<path d="M69.909 55.5226L58.4572 28.7329L62.3606 22.4893C62.4025 22.4234 62.4362 22.3538 62.4617 22.2819C63.7957 20.069 64.5009 17.5618 64.5009 15.0165C64.5069 11.2479 63.0478 7.70462 60.3917 5.038C57.7348 2.37063 54.196 0.898079 50.4259 0.89209C50.4192 0.89209 50.414 0.89209 50.4087 0.89209C42.6417 0.89209 36.3143 7.20604 36.3008 14.9761C36.3008 17.5611 37.0082 20.0832 38.349 22.2842C38.37 22.3366 38.3955 22.3883 38.4254 22.4377L40.5493 26.0049H13.4474C12.9974 26.0049 12.5909 26.2729 12.415 26.6869L0.0903268 55.5219C-0.0579019 55.8685 -0.0219676 56.2668 0.185403 56.5819C0.393522 56.8964 0.745378 57.0858 1.12269 57.0858H68.8782C69.2555 57.0858 69.6081 56.8964 69.8154 56.5812C70.0221 56.2675 70.058 55.87 69.909 55.5226ZM40.3584 21.2653C39.1718 19.3818 38.5452 17.2077 38.5452 14.9791C38.5564 8.44727 43.8762 3.13873 50.4072 3.13873C50.4117 3.13873 50.417 3.13873 50.4222 3.13873C53.5911 3.14322 56.5669 4.38145 58.8001 6.6236C61.0325 8.865 62.2595 11.8445 62.2543 15.0135V15.015C62.2543 17.219 61.6232 19.3922 60.4291 21.2982C60.3895 21.3619 60.3565 21.4293 60.3311 21.4981L50.1632 37.7636L43.4757 26.5327C43.4674 26.5199 43.4607 26.5057 43.4525 26.493L40.4564 21.4615C40.4302 21.3941 40.3973 21.3282 40.3584 21.2653ZM14.1878 28.2515H16.778C16.9352 31.4796 19.7022 32.6946 21.7422 33.584C22.8142 34.0519 23.9222 34.5348 24.2711 35.1292C24.8221 36.0687 24.4672 36.7223 23.3899 38.2165C22.4085 39.5775 21.1882 41.2717 22.0229 43.4914C23.3181 46.9366 30.0423 47.8611 37.414 48.5746C38.7526 48.7041 39.9084 48.8156 40.6331 48.9384C46.3444 49.9079 48.2549 53.1502 48.874 54.8406H2.82357L14.1878 28.2515ZM51.23 54.8406C50.7187 52.9024 48.6824 48.0266 41.0082 46.7247C40.2041 46.5885 39.0108 46.4732 37.6296 46.3392C33.5413 45.9439 25.0347 45.1212 24.1251 42.7008C23.7335 41.6602 24.283 40.818 25.2113 39.5296C26.1988 38.1596 27.5508 36.2843 26.2078 33.9928C25.4891 32.7673 24.0397 32.1354 22.6383 31.5245C20.5032 30.594 19.1774 29.879 19.0359 28.2508H41.8848L49.1742 40.4931C49.3749 40.8293 49.7357 41.0374 50.1265 41.0411C50.131 41.0411 50.1347 41.0411 50.1392 41.0411C50.5263 41.0411 50.8863 40.842 51.0907 40.5133L57.0056 31.0514L67.1743 54.8391H51.23V54.8406Z" fill="#58C889"/>
</svg>
