<svg width="29" height="26" viewBox="0 0 29 26" fill="none" xmlns="http://www.w3.org/2000/svg">
<path d="M9.82271 4.12228H28.2295C28.5232 4.12228 28.7609 3.88421 28.7609 3.59088C28.7609 3.29719 28.5232 3.05947 28.2295 3.05947H9.82271C9.52902 3.05947 9.2913 3.29719 9.2913 3.59088C9.2913 3.88421 9.52937 4.12228 9.82271 4.12228Z" fill="#58C889"/>
<path d="M28.2295 12.6683H9.82271C9.52902 12.6683 9.2913 12.9064 9.2913 13.1997C9.2913 13.4934 9.52902 13.7311 9.82271 13.7311H28.2295C28.5232 13.7311 28.7609 13.4934 28.7609 13.1997C28.7609 12.9064 28.5228 12.6683 28.2295 12.6683Z" fill="#58C889"/>
<path d="M28.2295 22.0724H9.82271C9.52902 22.0724 9.2913 22.3105 9.2913 22.6038C9.2913 22.8975 9.52902 23.1352 9.82271 23.1352H28.2295C28.5232 23.1352 28.7609 22.8975 28.7609 22.6038C28.7609 22.3105 28.5228 22.0724 28.2295 22.0724Z" fill="#58C889"/>
<path d="M3.48943 0.977783C2.04826 0.977783 0.875977 2.14971 0.875977 3.59017C0.875977 5.03169 2.04861 6.20433 3.48943 6.20433C4.93024 6.20433 6.10287 5.03134 6.10287 3.59017C6.10323 2.14971 4.9306 0.977783 3.48943 0.977783ZM3.48943 5.14152C2.63422 5.14152 1.93879 4.44538 1.93879 3.59017C1.93879 2.73567 2.63457 2.04059 3.48943 2.04059C4.34428 2.04059 5.04007 2.73567 5.04007 3.59017C5.04042 4.44538 4.34463 5.14152 3.48943 5.14152Z" fill="#58C889"/>
<path d="M3.48943 10.5859C2.04826 10.5859 0.875977 11.7582 0.875977 13.199C0.875977 14.6406 2.04861 15.8132 3.48943 15.8132C4.93024 15.8132 6.10287 14.6406 6.10287 13.199C6.10323 11.7582 4.9306 10.5859 3.48943 10.5859ZM3.48943 14.7504C2.63422 14.7504 1.93879 14.0546 1.93879 13.199C1.93879 12.3442 2.63457 11.6487 3.48943 11.6487C4.34428 11.6487 5.04007 12.3442 5.04007 13.199C5.04042 14.0546 4.34463 14.7504 3.48943 14.7504Z" fill="#58C889"/>
<path d="M3.48943 19.99C2.04826 19.99 0.875977 21.1627 0.875977 22.6035C0.875977 24.0447 2.04861 25.2173 3.48943 25.2173C4.93024 25.2173 6.10287 24.0447 6.10287 22.6035C6.10323 21.1627 4.9306 19.99 3.48943 19.99ZM3.48943 24.1548C2.63422 24.1548 1.93879 23.459 1.93879 22.6038C1.93879 21.7486 2.63457 21.0532 3.48943 21.0532C4.34428 21.0532 5.04007 21.749 5.04007 22.6038C5.04042 23.459 4.34463 24.1548 3.48943 24.1548Z" fill="#58C889"/>
</svg>
