<svg width="26" height="34" viewBox="0 0 26 34" fill="none" xmlns="http://www.w3.org/2000/svg">
<path d="M24.9551 3.00912H17.0329V1.58718C17.0329 1.42556 16.9687 1.27056 16.8544 1.15627C16.7401 1.04199 16.5851 0.977783 16.4235 0.977783H9.11071C8.94908 0.977783 8.79408 1.04199 8.6798 1.15627C8.56551 1.27056 8.50131 1.42556 8.50131 1.58718V3.00912H0.985376C0.823753 3.00912 0.668751 3.07332 0.554466 3.1876C0.440181 3.30189 0.375977 3.45689 0.375977 3.61852V32.8697C0.375977 33.0313 0.440181 33.1863 0.554466 33.3006C0.668751 33.4149 0.823753 33.4791 0.985376 33.4791H24.9551C25.1167 33.4791 25.2717 33.4149 25.386 33.3006C25.5003 33.1863 25.5645 33.0313 25.5645 32.8697V3.61852C25.5645 3.45689 25.5003 3.30189 25.386 3.1876C25.2717 3.07332 25.1167 3.00912 24.9551 3.00912ZM9.72011 2.19658H15.8141V4.63418H9.72011V2.19658ZM24.3457 32.2603H1.59478V4.22792H8.50131V5.24358C8.50131 5.4052 8.56551 5.56021 8.6798 5.67449C8.79408 5.78878 8.94908 5.85298 9.11071 5.85298H16.4235C16.5851 5.85298 16.7401 5.78878 16.8544 5.67449C16.9687 5.56021 17.0329 5.4052 17.0329 5.24358V4.22792H24.3457V32.2603Z" fill="#58C889"/>
<path d="M5.86057 12.3532H3.82924C3.66762 12.3532 3.51262 12.4174 3.39833 12.5317C3.28405 12.646 3.21984 12.801 3.21984 12.9626C3.21984 13.1243 3.28405 13.2793 3.39833 13.3936C3.51262 13.5078 3.66762 13.572 3.82924 13.572H5.86057C6.0222 13.572 6.1772 13.5078 6.29149 13.3936C6.40577 13.2793 6.46997 13.1243 6.46997 12.9626C6.46997 12.801 6.40577 12.646 6.29149 12.5317C6.1772 12.4174 6.0222 12.3532 5.86057 12.3532Z" fill="#58C889"/>
<path d="M8.70444 12.3532C8.54282 12.3532 8.38781 12.4174 8.27353 12.5317C8.15924 12.646 8.09504 12.801 8.09504 12.9626C8.09504 13.1243 8.15924 13.2793 8.27353 13.3936C8.38781 13.5078 8.54282 13.572 8.70444 13.572H22.1112C22.2729 13.572 22.4279 13.5078 22.5421 13.3936C22.6564 13.2793 22.7206 13.1243 22.7206 12.9626C22.7206 12.801 22.6564 12.646 22.5421 12.5317C22.4279 12.4174 22.2729 12.3532 22.1112 12.3532H8.70444Z" fill="#58C889"/>
<path d="M5.86057 17.6347H3.82924C3.66762 17.6347 3.51262 17.6989 3.39833 17.8132C3.28405 17.9275 3.21984 18.0825 3.21984 18.2441C3.21984 18.4057 3.28405 18.5607 3.39833 18.675C3.51262 18.7893 3.66762 18.8535 3.82924 18.8535H5.86057C6.0222 18.8535 6.1772 18.7893 6.29149 18.675C6.40577 18.5607 6.46997 18.4057 6.46997 18.2441C6.46997 18.0825 6.40577 17.9275 6.29149 17.8132C6.1772 17.6989 6.0222 17.6347 5.86057 17.6347Z" fill="#58C889"/>
<path d="M22.1112 17.6347H8.70444C8.54282 17.6347 8.38781 17.6989 8.27353 17.8132C8.15924 17.9275 8.09504 18.0825 8.09504 18.2441C8.09504 18.4057 8.15924 18.5607 8.27353 18.675C8.38781 18.7893 8.54282 18.8535 8.70444 18.8535H22.1112C22.2729 18.8535 22.4279 18.7893 22.5421 18.675C22.6564 18.5607 22.7206 18.4057 22.7206 18.2441C22.7206 18.0825 22.6564 17.9275 22.5421 17.8132C22.4279 17.6989 22.2729 17.6347 22.1112 17.6347Z" fill="#58C889"/>
<path d="M5.86057 22.9162H3.82924C3.66762 22.9162 3.51262 22.9804 3.39833 23.0947C3.28405 23.209 3.21984 23.364 3.21984 23.5256C3.21984 23.6872 3.28405 23.8422 3.39833 23.9565C3.51262 24.0708 3.66762 24.135 3.82924 24.135H5.86057C6.0222 24.135 6.1772 24.0708 6.29149 23.9565C6.40577 23.8422 6.46997 23.6872 6.46997 23.5256C6.46997 23.364 6.40577 23.209 6.29149 23.0947C6.1772 22.9804 6.0222 22.9162 5.86057 22.9162Z" fill="#58C889"/>
<path d="M22.1112 22.9162H8.70444C8.54282 22.9162 8.38781 22.9804 8.27353 23.0947C8.15924 23.209 8.09504 23.364 8.09504 23.5256C8.09504 23.6872 8.15924 23.8422 8.27353 23.9565C8.38781 24.0708 8.54282 24.135 8.70444 24.135H22.1112C22.2729 24.135 22.4279 24.0708 22.5421 23.9565C22.6564 23.8422 22.7206 23.6872 22.7206 23.5256C22.7206 23.364 22.6564 23.209 22.5421 23.0947C22.4279 22.9804 22.2729 22.9162 22.1112 22.9162Z" fill="#58C889"/>
</svg>
