<svg width="64" height="56" viewBox="0 0 64 56" fill="none" xmlns="http://www.w3.org/2000/svg">
<path d="M58.9401 0.301025H15.3801C12.7791 0.301025 10.695 2.12987 10.6351 4.49204V13.6284C10.6351 14.2195 11.1135 14.6979 11.7046 14.6979C12.2957 14.6979 12.7741 14.2195 12.7741 13.6284V4.51913C12.8033 3.37263 13.9726 2.44003 15.3801 2.44003H58.9401C60.379 2.44003 61.549 3.39188 61.549 4.56263V39.4611C61.549 40.6326 60.3782 41.5852 58.9401 41.5852H15.3801C13.9434 41.5852 12.7741 40.6326 12.7741 39.4611V34.4651C12.7741 33.8748 12.2957 33.3956 11.7046 33.3956C11.1135 33.3956 10.6351 33.8748 10.6351 34.4651V39.4611C10.6351 41.8119 12.7634 43.7242 15.3801 43.7242H35.9273V52.9468H22.3511C21.76 52.9468 21.2816 53.426 21.2816 54.0163C21.2816 54.6067 21.76 55.0858 22.3511 55.0858H51.5228C52.1132 55.0858 52.5923 54.6067 52.5923 54.0163C52.5923 53.426 52.1132 52.9468 51.5228 52.9468H38.0663V43.7234H58.9401C61.5583 43.7234 63.688 41.8112 63.688 39.4604V4.56263C63.688 2.21258 61.5583 0.301025 58.9401 0.301025Z" fill="#58C889"/>
<path d="M30.0373 17.7517H52.9609C53.5513 17.7517 54.0304 17.2733 54.0304 16.6822C54.0304 16.0911 53.5513 15.6127 52.9609 15.6127H30.0373C29.4462 15.6127 28.9678 16.0911 28.9678 16.6822C28.9678 17.2733 29.4462 17.7517 30.0373 17.7517Z" fill="#58C889"/>
<path d="M30.0373 24.5245H52.9609C53.5513 24.5245 54.0304 24.0461 54.0304 23.455C54.0304 22.8639 53.5513 22.3855 52.9609 22.3855H30.0373C29.4462 22.3855 28.9678 22.8639 28.9678 23.455C28.9678 24.0461 29.4462 24.5245 30.0373 24.5245Z" fill="#58C889"/>
<path d="M30.0373 31.6716H52.9609C53.5513 31.6716 54.0304 31.1925 54.0304 30.6021C54.0304 30.0117 53.5513 29.5326 52.9609 29.5326H30.0373C29.4462 29.5326 28.9678 30.0117 28.9678 30.6021C28.9678 31.1925 29.4462 31.6716 30.0373 31.6716Z" fill="#58C889"/>
<path d="M11.4864 26.784C11.7623 26.784 12.0361 26.6777 12.2429 26.471L27.6951 11.0181C28.1129 10.6003 28.1129 9.92296 27.6951 9.50585C27.2772 9.08803 26.6006 9.08803 26.1828 9.50585L11.3702 24.3191L2.17036 17.7695C1.68837 17.4273 1.02171 17.5399 0.678761 18.0205C0.336521 18.5018 0.448462 19.1699 0.93045 19.5121L10.8675 26.5858C11.0536 26.7191 11.2711 26.784 11.4864 26.784Z" fill="#58C889"/>
</svg>
