<svg width="29" height="33" viewBox="0 0 29 33" fill="none" xmlns="http://www.w3.org/2000/svg">
<path d="M14.3443 17.81C6.64147 17.81 0.375977 24.0755 0.375977 31.7783C0.375977 32.0732 0.633967 32.3312 0.928814 32.3312H27.723C28.0178 32.3312 28.2758 32.0732 28.2758 31.7783C28.3127 24.0755 22.0472 17.81 14.3443 17.81ZM14.3443 18.9156C16.0397 18.9156 17.6982 19.2473 19.1724 19.8739L14.5286 23.3015L9.55308 19.8739C11.0273 19.2473 12.649 18.9156 14.3443 18.9156ZM1.51851 31.2255C1.70279 26.5448 4.46697 22.4907 8.37369 20.3899L14.2338 24.4072C14.3443 24.4809 14.4549 24.5177 14.5286 24.5177C14.6392 24.5177 14.7498 24.4809 14.8603 24.4072L20.315 20.3899C24.2586 22.4538 26.9859 26.5079 27.1702 31.2255H1.51851Z" fill="#58C889"/>
<path d="M14.1232 16.2989C18.5459 16.2989 22.1578 12.687 22.1578 8.26431C22.1578 3.84161 18.5459 0.229736 14.1232 0.229736C9.7005 0.229736 6.08863 3.84161 6.08863 8.26431C6.08863 12.7239 9.7005 16.2989 14.1232 16.2989ZM14.1232 1.37227C17.0717 1.37227 19.5779 3.21506 20.573 5.79497C20.2413 5.61069 19.8359 5.38955 19.4673 5.16842C17.9194 4.24702 16.8505 3.65733 16.1503 3.73104C14.7498 3.84161 13.9389 4.39444 13.0544 4.94728C12.5753 5.24213 12.0593 5.57383 11.4327 5.83182L11.2484 5.90553C9.88478 6.45837 9.0371 6.82693 7.37858 7.01121C7.93142 3.80475 10.7325 1.37227 14.1232 1.37227ZM7.1943 8.11688C9.18452 7.9326 10.1796 7.52719 11.617 6.90064L11.8013 6.82693C12.5384 6.53208 13.0912 6.16352 13.6072 5.83182C14.418 5.31584 15.1183 4.87357 16.224 4.79986C16.6294 4.763 18.0299 5.61069 18.8776 6.08981C19.7253 6.60579 20.4255 7.01121 20.9415 7.15863C21.0152 7.52719 21.0521 7.89575 21.0521 8.26431C21.0521 12.0605 17.9562 15.1932 14.1232 15.1932C10.2902 15.1932 7.1943 12.0973 7.1943 8.26431C7.1943 8.22745 7.1943 8.19059 7.1943 8.11688Z" fill="#58C889"/>
</svg>
