<svg width="46" height="56" viewBox="0 0 46 56" fill="none" xmlns="http://www.w3.org/2000/svg">
<path d="M13.6291 37.8585H27.3393C27.9241 37.8585 28.3987 37.3846 28.3987 36.7991C28.3987 36.2136 27.9241 35.7397 27.3393 35.7397H13.6291C13.0443 35.7397 12.5697 36.2136 12.5697 36.7991C12.5697 37.3846 13.0443 37.8585 13.6291 37.8585Z" fill="#58C889"/>
<path d="M32.1886 40.899H8.47049C7.8857 40.899 7.41108 41.3729 7.41108 41.9584C7.41108 42.5439 7.8857 43.0178 8.47049 43.0178H32.1886C32.7734 43.0178 33.248 42.5439 33.248 41.9584C33.248 41.3729 32.7734 40.899 32.1886 40.899Z" fill="#58C889"/>
<path d="M27.3393 46.0555H13.6291C13.0443 46.0555 12.5697 46.5294 12.5697 47.1149C12.5697 47.7004 13.0443 48.1744 13.6291 48.1744H27.3393C27.9241 48.1744 28.3987 47.7004 28.3987 47.1149C28.3987 46.5294 27.9241 46.0555 27.3393 46.0555Z" fill="#58C889"/>
<path d="M13.7435 21.6488H18.864V26.7721C18.864 27.3576 19.3386 27.8316 19.9234 27.8316C20.5082 27.8316 20.9828 27.3576 20.9828 26.7721V21.6488H26.0962C26.681 21.6488 27.1557 21.1749 27.1557 20.5894C27.1557 20.0039 26.681 19.53 26.0962 19.53H20.9828V14.4095C20.9828 13.824 20.5082 13.3501 19.9234 13.3501C19.3386 13.3501 18.864 13.824 18.864 14.4095V19.53H13.7435C13.1587 19.53 12.6841 20.0039 12.6841 20.5894C12.6841 21.1749 13.1587 21.6488 13.7435 21.6488Z" fill="#58C889"/>
<path d="M44.4664 0.301025H7.73244C7.14764 0.301025 6.67303 0.774935 6.67303 1.36044V6.43571H1.55184C0.967047 6.43571 0.492432 6.90962 0.492432 7.49512V54.0265C0.492432 54.612 0.967047 55.0859 1.55184 55.0859H38.2915C38.8763 55.0859 39.3509 54.612 39.3509 54.0265V48.9512H44.4664C45.0512 48.9512 45.5258 48.4773 45.5258 47.8918V1.35973C45.5258 0.775641 45.0512 0.301025 44.4664 0.301025ZM2.61125 52.9678V8.55524H37.2321V47.8452C37.2314 47.8615 37.2271 47.877 37.2271 47.8932C37.2271 47.9095 37.2314 47.925 37.2321 47.9413V52.9685L2.61125 52.9678ZM43.407 46.8331H39.3509V7.49512C39.3509 6.90962 38.8763 6.43571 38.2915 6.43571H8.79185V2.41985H43.407V46.8331Z" fill="#58C889"/>
</svg>
