<svg width="60" height="23" viewBox="0 0 60 23" fill="none" xmlns="http://www.w3.org/2000/svg">
<path d="M6.38551 12.3637L3.00676 19.952H0.54187L4.25297 11.8374C2.50821 10.9511 1.34504 9.34484 1.34504 6.3815C1.34504 2.22727 3.97604 0.150146 7.10557 0.150146H10.2904V19.952H8.15797V12.3637H6.38551ZM8.15797 1.95032H7.02243C5.30539 1.95032 3.64368 3.08579 3.64368 6.3815C3.64368 9.56635 5.16693 10.5911 7.02243 10.5911H8.15797V1.95032Z" fill="#FF0000"/>
<path d="M20.5653 5.99374V19.952H18.4327V13.693H15.2201V19.952H13.06V5.99374H15.2201V11.9204H18.4327V5.99374H20.5653ZM31.6709 22.6939H29.7322V19.952H23.7501V22.6939H21.8115V18.1796H22.6701C23.944 15.2162 24.0825 10.8957 24.0825 7.18462V5.99374H30.5631V18.1796H31.6709V22.6939ZM28.4306 7.73859H26.0211V7.9878C26.0211 10.9234 25.8827 15.2162 24.7195 18.1796H28.4306V7.73859ZM37.6253 20.1458C34.7451 20.1458 32.9726 17.8472 32.9726 13.5546C32.9726 9.06793 34.2189 5.79993 37.1823 5.79993C39.5086 5.79993 41.0318 7.54469 41.0318 12.2806V13.4715H35.2158C35.2158 16.6286 36.1021 18.2904 37.8191 18.2904C39.0377 18.2904 40.0071 17.7365 40.5609 17.3488L41.0596 19.0104C40.0757 19.7655 38.8654 20.1656 37.6253 20.1458ZM35.2435 11.6989H38.8162C38.8162 9.31715 38.4284 7.5724 37.1823 7.5724C35.8528 7.5724 35.3821 9.2064 35.2435 11.6989ZM45.4076 13.0007V19.952H43.2473V5.99374H45.4076V12.4467L48.7586 5.99374H50.9465L47.4847 12.5575L51.445 19.952H49.0909L45.4076 13.0007ZM51.7219 12.973C51.7219 8.59711 53.4114 5.79993 56.6794 5.79993C57.9255 5.79993 58.6457 6.13229 59.255 6.51998L58.9503 8.56939C58.3687 8.07085 57.5379 7.6001 56.6517 7.6001C55.1007 7.6001 53.993 9.34486 53.993 12.8622C53.993 16.3517 54.8238 18.3457 56.5686 18.3457C57.4319 18.3573 58.2694 18.0518 58.9226 17.4871L59.4211 19.0935C58.6195 19.7991 57.5806 20.1751 56.5131 20.1458C53.5221 20.1458 51.7219 17.7365 51.7219 12.973Z" fill="black"/>
</svg>
