<svg width="12" height="14" viewBox="0 0 12 14" fill="none" xmlns="http://www.w3.org/2000/svg">
<path d="M6.48619 0.194824C8.19597 0.194824 9.51837 0.55548 10.4534 1.27679C11.3884 1.98475 11.856 3.04668 11.856 4.46258C11.856 5.972 11.3684 7.09404 10.3933 7.8287C9.41819 8.56337 8.1225 8.93071 6.50623 8.93071H4.76306V13.9999H2.8596V0.194824H6.48619ZM6.42608 7.42798C7.53477 7.42798 8.3763 7.21425 8.95068 6.78681C9.53841 6.35937 9.83228 5.5913 9.83228 4.48262C9.83228 3.49416 9.53841 2.77952 8.95068 2.33872C8.3763 1.89792 7.54812 1.67752 6.46616 1.67752H4.76306V7.42798H6.42608Z" fill="#58C889"/>
<path d="M0.855957 12.2434V10.6605H10.5937V12.2434H0.855957Z" fill="#58C889"/>
</svg>
