<svg width="11" height="13" viewBox="0 0 11 13" fill="none" xmlns="http://www.w3.org/2000/svg">
<path d="M5.21132 0.0980225C6.74732 0.0980225 7.93532 0.422022 8.77532 1.07002C9.61532 1.70602 10.0353 2.66002 10.0353 3.93202C10.0353 5.28802 9.59732 6.29602 8.72132 6.95602C7.84532 7.61602 6.68132 7.94602 5.22932 7.94602H3.66332V12.5H1.95332V0.0980225H5.21132ZM5.15732 6.59602C6.15332 6.59602 6.90932 6.40402 7.42532 6.02002C7.95332 5.63602 8.21732 4.94602 8.21732 3.95002C8.21732 3.06202 7.95332 2.42002 7.42532 2.02402C6.90932 1.62802 6.16532 1.43002 5.19332 1.43002H3.66332V6.59602H5.15732Z" fill="#EAB830"/>
<path d="M0.15332 10.922V9.50002H8.90132V10.922H0.15332Z" fill="#EAB830"/>
</svg>
