<svg width="11" height="13" viewBox="0 0 11 13" fill="none" xmlns="http://www.w3.org/2000/svg">
<path d="M5.61702 0.321777C7.15302 0.321777 8.34102 0.645777 9.18102 1.29378C10.021 1.92978 10.441 2.88378 10.441 4.15578C10.441 5.51178 10.003 6.51978 9.12702 7.17978C8.25102 7.83978 7.08702 8.16978 5.63502 8.16978H4.06902V12.7238H2.35902V0.321777H5.61702ZM5.56302 6.81978C6.55902 6.81978 7.31502 6.62778 7.83102 6.24378C8.35902 5.85978 8.62302 5.16978 8.62302 4.17378C8.62302 3.28578 8.35902 2.64378 7.83102 2.24778C7.31502 1.85178 6.57102 1.65378 5.59902 1.65378H4.06902V6.81978H5.56302Z" fill="#566072"/>
<path d="M0.559021 11.1458V9.72378H9.30702V11.1458H0.559021Z" fill="#566072"/>
</svg>
