<svg width="21" height="22" viewBox="0 0 21 22" fill="none" xmlns="http://www.w3.org/2000/svg">
<path d="M12.0742 0.500305C9.78621 0.500305 7.49776 1.3706 5.75767 3.11069C2.49878 6.36958 2.29384 11.5492 5.13847 15.0524L0.284173 19.9085C0.195467 19.9937 0.124646 20.0957 0.0758592 20.2085C0.0270721 20.3214 0.00129829 20.4429 4.77978e-05 20.5659C-0.0012027 20.6888 0.0220951 20.8108 0.0685766 20.9247C0.115058 21.0385 0.18379 21.142 0.270745 21.2289C0.3577 21.3159 0.461131 21.3846 0.574981 21.4311C0.688831 21.4776 0.81081 21.5009 0.933777 21.4996C1.05674 21.4984 1.17822 21.4726 1.29111 21.4238C1.40399 21.375 1.506 21.3042 1.59117 21.2155L6.44547 16.3594C9.94852 19.2065 15.1291 19.0018 18.389 15.742C21.8691 12.2618 21.8709 6.59086 18.3908 3.11069C16.6507 1.3706 14.3623 0.500305 12.0743 0.500305H12.0742ZM12.0742 2.33624C13.8853 2.33624 15.6969 3.03081 17.0838 4.41769C19.8575 7.19143 19.8557 11.6612 17.0819 14.435C14.3344 17.1825 9.92662 17.2047 7.14767 14.509C7.10283 14.4514 7.05132 14.3993 6.99422 14.3538C6.99302 14.3531 6.99182 14.3525 6.99062 14.3519C4.29674 11.5728 4.31771 7.16459 7.06463 4.41764C8.45151 3.03077 10.2631 2.3362 12.0742 2.3362L12.0742 2.33624Z" fill="white"/>
</svg>
