<svg width="21" height="21" viewBox="0 0 21 21" fill="none" xmlns="http://www.w3.org/2000/svg">
<path fill-rule="evenodd" clip-rule="evenodd" d="M16.2462 2.32325H4.06154C2.93998 2.32325 2.03077 3.23246 2.03077 4.35402V16.5386C2.03077 17.6602 2.93998 18.5694 4.06154 18.5694H16.2462C17.3677 18.5694 18.2769 17.6602 18.2769 16.5386V4.35402C18.2769 3.23246 17.3677 2.32325 16.2462 2.32325ZM4.06154 0.29248C1.81841 0.29248 0 2.11089 0 4.35402V16.5386C0 18.7818 1.81841 20.6002 4.06154 20.6002H16.2462C18.4893 20.6002 20.3077 18.7818 20.3077 16.5386V4.35402C20.3077 2.11089 18.4893 0.29248 16.2462 0.29248H4.06154Z" fill="#566072"/>
<path fill-rule="evenodd" clip-rule="evenodd" d="M10.1538 13.2894C11.6119 13.2894 12.7938 12.1074 12.7938 10.6494C12.7938 9.19137 11.6119 8.0094 10.1538 8.0094C8.69581 8.0094 7.51385 9.19137 7.51385 10.6494C7.51385 12.1074 8.69581 13.2894 10.1538 13.2894ZM10.1538 14.914C12.5091 14.914 14.4185 13.0047 14.4185 10.6494C14.4185 8.29412 12.5091 6.38479 10.1538 6.38479C7.79856 6.38479 5.88923 8.29412 5.88923 10.6494C5.88923 13.0047 7.79856 14.914 10.1538 14.914Z" fill="#566072"/>
<path d="M16.6523 5.06479C16.6523 5.68165 16.1522 6.18171 15.5354 6.18171C14.9185 6.18171 14.4185 5.68165 14.4185 5.06479C14.4185 4.44793 14.9185 3.94787 15.5354 3.94787C16.1522 3.94787 16.6523 4.44793 16.6523 5.06479Z" fill="#566072"/>
</svg>
