<svg width="21" height="21" viewBox="0 0 21 21" fill="none" xmlns="http://www.w3.org/2000/svg">
<path fill-rule="evenodd" clip-rule="evenodd" d="M16.9385 2.32325H4.75386C3.6323 2.32325 2.72309 3.23246 2.72309 4.35402V16.5386C2.72309 17.6602 3.6323 18.5694 4.75386 18.5694H16.9385C18.06 18.5694 18.9692 17.6602 18.9692 16.5386V4.35402C18.9692 3.23246 18.06 2.32325 16.9385 2.32325ZM4.75386 0.29248C2.51073 0.29248 0.692322 2.11089 0.692322 4.35402V16.5386C0.692322 18.7818 2.51073 20.6002 4.75386 20.6002H16.9385C19.1816 20.6002 21 18.7818 21 16.5386V4.35402C21 2.11089 19.1816 0.29248 16.9385 0.29248H4.75386Z" fill="#566072"/>
<path fill-rule="evenodd" clip-rule="evenodd" d="M9.65629 7.50181C9.37862 7.34149 9.03153 7.54189 9.03153 7.86251V12.9124C9.03153 13.233 9.37862 13.4334 9.65629 13.2731L14.0296 10.7482C14.3073 10.5878 14.3073 10.1871 14.0296 10.0267L9.65629 7.50181ZM14.8207 12.1183L10.4474 14.6433C9.11493 15.4125 7.44939 14.4509 7.44939 12.9124V7.86251C7.44939 6.32395 9.11493 5.36235 10.4474 6.13163L14.8207 8.65657C16.1531 9.42585 16.1531 11.3491 14.8207 12.1183Z" fill="#566072"/>
</svg>
