<svg width="22" height="21" viewBox="0 0 22 21" fill="none" xmlns="http://www.w3.org/2000/svg">
<path fill-rule="evenodd" clip-rule="evenodd" d="M17.0923 2.32325H4.90767C3.78611 2.32325 2.8769 3.23246 2.8769 4.35402V16.5386C2.8769 17.6602 3.78611 18.5694 4.90767 18.5694H17.0923C18.2138 18.5694 19.1231 17.6602 19.1231 16.5386V4.35402C19.1231 3.23246 18.2138 2.32325 17.0923 2.32325ZM4.90767 0.29248C2.66454 0.29248 0.84613 2.11089 0.84613 4.35402V16.5386C0.84613 18.7818 2.66454 20.6002 4.90767 20.6002H17.0923C19.3354 20.6002 21.1538 18.7818 21.1538 16.5386V4.35402C21.1538 2.11089 19.3354 0.29248 17.0923 0.29248H4.90767Z" fill="#566072"/>
<path d="M9.73911 15.7263V9.92272H8.82959V8.46461H9.73911V8.147C9.73911 7.68502 9.8113 7.2856 9.95566 6.94874C10.1097 6.60226 10.2925 6.33758 10.5043 6.15472C10.716 5.96222 10.9662 5.80823 11.255 5.69274C11.5533 5.57724 11.818 5.50506 12.049 5.47618C12.28 5.43769 12.5158 5.41844 12.7564 5.41844C13.0259 5.41844 13.2328 5.43287 13.3772 5.46175V7.02092C13.3002 7.00168 13.1751 6.99205 13.0018 6.99205C12.049 6.99205 11.5726 7.39147 11.5726 8.19031V8.46461H13.1606V9.92272H11.5726V15.7263H9.73911Z" fill="#566072"/>
</svg>
