<svg width="258" height="148" viewBox="0 0 258 148" fill="none" xmlns="http://www.w3.org/2000/svg">
<path d="M62.8904 102.575V88.7512H23.7651L52.6019 52.3192C58.3983 44.9752 61.0066 37.1992 61.0066 29.2792C61.0066 11.2792 48.6894 0.623169 31.5901 0.623169C15.0705 0.623169 3.18799 12.1432 2.02872 27.1192L16.5196 29.8552C17.6789 20.6392 22.7507 14.4472 31.5901 14.4472C40.8643 14.4472 45.5014 20.6392 45.5014 29.8552C45.5014 35.7592 44.0523 40.3672 37.3865 48.5752L0 96.2392V102.575H62.8904Z" fill="#58C889"/>
<path d="M71.8465 52.1752C71.8465 83.8552 84.4536 103.727 108.364 103.727C132.273 103.727 144.881 83.8552 144.881 52.1752C144.881 20.4952 132.273 0.623169 108.364 0.623169C84.4536 0.623169 71.8465 20.4952 71.8465 52.1752ZM87.2068 52.1752C87.2068 28.5592 94.0175 14.4472 108.364 14.4472C122.709 14.4472 129.52 28.5592 129.52 52.1752C129.52 75.7912 122.709 89.9032 108.364 89.9032C94.0175 89.9032 87.2068 75.7912 87.2068 52.1752Z" fill="#58C889"/>
<path d="M213.828 102.575V88.7512H174.702L203.539 52.3192C209.336 44.9752 211.944 37.1992 211.944 29.2792C211.944 11.2792 199.627 0.623169 182.527 0.623169C166.008 0.623169 154.125 12.1432 152.966 27.1192L167.457 29.8552C168.616 20.6392 173.688 14.4472 182.527 14.4472C191.802 14.4472 196.439 20.6392 196.439 29.8552C196.439 35.7592 194.99 40.3672 188.324 48.5752L150.937 96.2392V102.575H213.828Z" fill="#58C889"/>
<path d="M242.64 23.3752V102.575H258V1.77516H251.769L223.657 18.4792V34.6072L242.64 23.3752Z" fill="#58C889"/>
<path d="M2.632 144.727H0.994V135.389H7.392V136.831H2.632V144.727ZM26.9793 144.727H25.1173L24.4313 142.935H20.1473L19.4613 144.727H17.5993L21.2673 135.389H23.3113L26.9793 144.727ZM23.9693 141.493L22.2893 137.041L20.6093 141.493H23.9693ZM40.2772 144.727H38.6392V135.389H42.7412C43.6839 135.389 44.4259 135.669 44.9672 136.229C45.5179 136.789 45.7932 137.485 45.7932 138.315C45.7932 139.137 45.5179 139.832 44.9672 140.401C44.4259 140.961 43.6839 141.241 42.7412 141.241H40.2772V144.727ZM42.5172 139.799C42.9839 139.799 43.3666 139.664 43.6652 139.393C43.9639 139.123 44.1132 138.763 44.1132 138.315C44.1132 137.867 43.9639 137.508 43.6652 137.237C43.3666 136.967 42.9839 136.831 42.5172 136.831H40.2772V139.799H42.5172ZM65.1441 144.727H63.2821L62.5961 142.935H58.3121L57.6261 144.727H55.7641L59.4321 135.389H61.4761L65.1441 144.727ZM62.1341 141.493L60.4541 137.041L58.7741 141.493H62.1341ZM84.938 144.727H83.3V140.653H78.442V144.727H76.804V135.389H78.442V139.211H83.3V135.389H84.938V144.727ZM101.425 144.727H99.7872V136.831H96.9592V135.389H104.253V136.831H101.425V144.727ZM134.997 144.895C133.597 144.895 132.43 144.447 131.497 143.551C130.564 142.646 130.097 141.484 130.097 140.065C130.097 138.647 130.564 137.489 131.497 136.593C132.43 135.688 133.597 135.235 134.997 135.235C136.621 135.235 137.872 135.935 138.749 137.335L137.349 138.049C137.116 137.648 136.784 137.321 136.355 137.069C135.935 136.817 135.482 136.691 134.997 136.691C134.073 136.691 133.303 137.009 132.687 137.643C132.08 138.278 131.777 139.085 131.777 140.065C131.777 141.045 132.08 141.853 132.687 142.487C133.303 143.122 134.073 143.439 134.997 143.439C135.492 143.439 135.949 143.313 136.369 143.061C136.789 142.809 137.116 142.483 137.349 142.081L138.749 142.795C137.853 144.195 136.602 144.895 134.997 144.895ZM157.098 144.727H150.7V135.389H157.098V136.831H152.338V139.253H157V140.695H152.338V143.285H157.098V144.727ZM171.058 144.727H169.42V135.389H175.818V136.831H171.058V144.727ZM195.35 143.537C194.454 144.443 193.311 144.895 191.92 144.895C190.529 144.895 189.386 144.443 188.49 143.537C187.594 142.623 187.146 141.465 187.146 140.065C187.146 138.665 187.594 137.513 188.49 136.607C189.386 135.693 190.529 135.235 191.92 135.235C193.311 135.235 194.454 135.693 195.35 136.607C196.246 137.513 196.694 138.665 196.694 140.065C196.694 141.465 196.246 142.623 195.35 143.537ZM191.92 143.439C192.844 143.439 193.591 143.122 194.16 142.487C194.729 141.843 195.014 141.036 195.014 140.065C195.014 139.085 194.729 138.278 194.16 137.643C193.591 137.009 192.844 136.691 191.92 136.691C190.987 136.691 190.235 137.009 189.666 137.643C189.106 138.278 188.826 139.085 188.826 140.065C188.826 141.045 189.106 141.853 189.666 142.487C190.235 143.122 190.987 143.439 191.92 143.439ZM207.817 146.449V143.439C208.19 143.402 208.479 143.309 208.685 143.159C208.89 143.01 209.077 142.702 209.245 142.235C209.422 141.769 209.562 141.087 209.665 140.191L210.211 135.389H216.553V143.285H217.421V146.449H215.783V144.727H209.455V146.449H207.817ZM211.289 140.303C211.13 141.685 210.719 142.679 210.057 143.285H214.915V136.831H211.681L211.289 140.303ZM237.447 144.727H235.809V140.653H230.951V144.727H229.313V135.389H230.951V139.211H235.809V135.389H237.447V144.727ZM251.54 144.727H249.65L251.932 141.059C251.316 140.957 250.793 140.672 250.364 140.205C249.935 139.729 249.72 139.099 249.72 138.315C249.72 137.447 250 136.743 250.56 136.201C251.12 135.66 251.857 135.389 252.772 135.389H256.874V144.727H255.236V141.241H253.612L251.54 144.727ZM252.996 139.799H255.236V136.831H252.996C252.529 136.831 252.147 136.967 251.848 137.237C251.549 137.508 251.4 137.867 251.4 138.315C251.4 138.763 251.549 139.123 251.848 139.393C252.147 139.664 252.529 139.799 252.996 139.799Z" fill="#58C889"/>
</svg>
