<svg width="64" height="36" viewBox="0 0 64 36" fill="none" xmlns="http://www.w3.org/2000/svg">
<path d="M38.4504 28.3806H23.6554C23.3655 28.3806 23.0878 28.2624 22.8859 28.0544C22.684 27.8463 22.575 27.5656 22.5837 27.275C22.8533 18.5417 17.8812 13.2021 7.38418 10.9527C7.1047 10.893 6.86093 10.7237 6.70642 10.483C6.5519 10.2423 6.50019 9.95054 6.56237 9.67107C6.82215 8.50637 7.5547 7.41679 8.80311 6.34073C8.97794 6.18992 9.19647 6.10004 9.4267 6.08342C11.6096 5.92891 14.7491 6.13513 18.7652 6.69839C18.9351 6.7224 19.097 6.78704 19.2373 6.88615C23.8727 10.1802 25.93 10.5975 26.8485 10.3673C27.0916 10.3057 27.4031 10.1678 27.661 9.64521C28.7328 7.53867 30.473 5.92029 32.6984 4.95381C33.8877 4.45395 35.5806 4.36039 38.3101 4.69711C38.2731 4.62201 38.2448 4.5426 38.2264 4.45888C38.1537 4.14185 38.2301 3.80882 38.4332 3.55459C40.1975 1.34031 42.7497 0.280277 46.0296 0.399697C46.2561 0.407703 46.474 0.487723 46.6525 0.627465C49.8314 3.12491 51.9084 6.34258 52.8232 10.1925C52.8749 10.4067 52.8577 10.6314 52.7764 10.8358C48.0918 22.6421 43.4047 28.3806 38.4504 28.3806ZM24.7358 26.2359H38.4504C42.2757 26.2359 46.4937 20.7498 50.6563 10.3642C49.8474 7.25119 48.1484 4.62016 45.6036 2.53456C43.7199 2.52286 42.2018 2.99071 41.0224 3.95903C41.9445 4.52845 42.6611 5.13911 43.1585 5.78179C43.4305 6.13452 43.4576 6.6196 43.2237 6.99941C42.991 7.37861 42.5527 7.57745 42.1083 7.49065C38.938 6.88307 35.1004 6.27056 33.543 6.92492C31.7898 7.68641 30.4152 8.96068 29.578 10.6055C29.1077 11.5603 28.3437 12.2005 27.3736 12.4461C25.3618 12.9515 22.527 11.8269 18.2099 8.78646C14.7355 8.30754 11.8921 8.10624 9.93949 8.20043C9.5923 8.52484 9.31406 8.84002 9.10414 9.14967C19.3414 11.6896 24.5929 17.4312 24.7358 26.2359Z" fill="#58C889"/>
<path d="M25.1433 15.8922C24.6662 15.8922 24.1325 15.822 23.5391 15.6527C20.6852 14.874 18.6864 13.5111 17.7723 11.7136C17.0963 10.3858 17.0415 8.8868 17.614 7.37984C17.8246 6.82581 18.4476 6.5488 18.9967 6.7581C19.5507 6.96801 19.8289 7.5873 19.6184 8.14071C19.2614 9.08071 19.2829 9.95546 19.683 10.7416C20.3159 11.9851 21.8487 12.9688 24.1159 13.5874C25.0479 13.854 25.7854 13.7875 26.324 13.3935C27.0646 12.8537 27.5004 11.6785 27.5509 10.0847C27.57 9.49254 28.0938 9.04686 28.6565 9.04747C29.2487 9.06655 29.7128 9.56149 29.6943 10.1537C29.6211 12.4548 28.8922 14.1741 27.5872 15.1258C27.0584 15.5124 26.2544 15.8922 25.1433 15.8922Z" fill="#58C889"/>
<path d="M10.8611 35.0635C5.24504 35.0635 0.676147 30.4946 0.676147 24.878C0.676147 19.2626 5.24504 14.6931 10.8611 14.6931C15.4515 14.6931 19.4922 17.7821 20.6877 22.2051C20.8422 22.7763 20.5042 23.3648 19.9324 23.52C19.3586 23.6702 18.7726 23.3353 18.6181 22.764C17.675 19.2749 14.485 16.8378 10.8611 16.8378C6.42759 16.8378 2.82086 20.4445 2.82086 24.878C2.82086 29.3114 6.42759 32.9188 10.8611 32.9188C14.509 32.9188 17.7132 30.4687 18.6532 26.9599C18.8064 26.3886 19.3906 26.0488 19.9662 26.2015C20.5381 26.3541 20.8773 26.9426 20.724 27.5139C19.5334 31.9584 15.4773 35.0635 10.8611 35.0635Z" fill="#58C889"/>
<path d="M53.1384 35.0635C47.5218 35.0635 42.9529 30.4946 42.9529 24.878V24.3067C42.9529 23.7145 43.4331 23.2343 44.0253 23.2343C44.6175 23.2343 45.0976 23.7145 45.0976 24.3067V24.878C45.0976 29.3114 48.705 32.9188 53.1384 32.9188C57.5719 32.9188 61.1792 29.3114 61.1792 24.878C61.1792 20.4445 57.5719 16.8378 53.1384 16.8378C52.0402 16.8378 50.9777 17.0501 49.9792 17.4687C49.4363 17.6959 48.8059 17.4423 48.5757 16.895C48.3467 16.349 48.604 15.7205 49.1494 15.4915C50.4126 14.9621 51.7546 14.6931 53.1384 14.6931C58.7551 14.6931 63.3239 19.2626 63.3239 24.878C63.3239 30.4946 58.7551 35.0635 53.1384 35.0635Z" fill="#58C889"/>
<path d="M23.6554 28.3806H11.183C9.27159 28.3806 7.716 26.8096 7.716 24.8779C7.716 22.9671 9.27159 21.4122 11.183 21.4122H23.0121C23.6043 21.4122 24.0845 21.8923 24.0845 22.4845C24.0845 23.0767 23.6043 23.5569 23.0121 23.5569H11.183C10.4535 23.5569 9.86071 24.1491 9.86071 24.8779C9.86071 25.6142 10.4658 26.2359 11.183 26.2359H23.6554C24.2476 26.2359 24.7278 26.7161 24.7278 27.3083C24.7278 27.9005 24.2476 28.3806 23.6554 28.3806Z" fill="#58C889"/>
<path d="M53.1384 29.7029C50.4778 29.7029 48.3134 27.5385 48.3134 24.8779C48.3134 22.2186 50.4778 20.0542 53.1384 20.0542C55.799 20.0542 57.9634 22.2186 57.9634 24.8779C57.9634 27.5385 55.799 29.7029 53.1384 29.7029ZM53.1384 22.1989C51.6598 22.1989 50.4582 23.4005 50.4582 24.878C50.4582 26.3566 51.6598 27.5582 53.1384 27.5582C54.6171 27.5582 55.8187 26.3566 55.8187 24.878C55.8187 23.4005 54.6171 22.1989 53.1384 22.1989Z" fill="#58C889"/>
<path d="M53.1384 25.9503C52.7222 25.9503 52.3258 25.7053 52.1522 25.2978L48.5781 16.8999C48.3454 16.3551 48.599 15.7254 49.1444 15.4933C49.6861 15.2649 50.319 15.5142 50.5504 16.0603L54.1245 24.4581C54.3572 25.0035 54.1036 25.6327 53.5582 25.8641C53.4215 25.9232 53.2787 25.9503 53.1384 25.9503Z" fill="#58C889"/>
<path d="M30.3684 24.7979C30.0009 24.7991 29.6273 24.7893 29.2468 24.7696C28.8258 24.7474 28.4564 24.4815 28.3031 24.0887C28.1499 23.6972 28.2403 23.2503 28.5346 22.9499C29.8606 21.5919 30.6645 19.9249 30.9939 17.8516C31.5953 13.8435 35.5769 12.3298 42.8162 13.3455C43.1265 13.3892 43.401 13.5659 43.5697 13.8293C43.7384 14.0928 43.7839 14.4166 43.6941 14.7158C41.6823 21.4109 37.2021 24.7979 30.3684 24.7979ZM38.7447 15.1713C33.5603 15.1713 33.2346 17.3628 33.114 18.1748C33.1133 18.1778 33.1127 18.1809 33.1121 18.1846C32.8505 19.8375 32.3118 21.3198 31.5054 22.6162C36.2959 22.2937 39.497 19.8867 41.2305 15.3111C40.2972 15.215 39.4736 15.1713 38.7447 15.1713Z" fill="#58C889"/>
<path d="M41.3807 18.6605H37.6995C37.1073 18.6605 36.6271 18.1804 36.6271 17.5882C36.6271 16.996 37.1073 16.5158 37.6995 16.5158H41.3807C41.9729 16.5158 42.453 16.996 42.453 17.5882C42.453 18.1804 41.9729 18.6605 41.3807 18.6605Z" fill="#58C889"/>
<path d="M38.4148 22.306H34.6978C34.1056 22.306 33.6255 21.8259 33.6255 21.2337C33.6255 20.6415 34.1056 20.1613 34.6978 20.1613H38.4148C39.007 20.1613 39.4871 20.6415 39.4871 21.2337C39.4871 21.8259 39.007 22.306 38.4148 22.306Z" fill="#58C889"/>
<path d="M51.7804 11.5129C51.6413 11.5129 51.4997 11.4858 51.363 11.4279L41.8928 7.42536C41.3474 7.19513 41.0926 6.566 41.3228 6.02059C41.5518 5.47518 42.1809 5.21971 42.7276 5.45056L52.1978 9.45311C52.7432 9.68334 52.998 10.3125 52.7678 10.8579C52.5954 11.2672 52.1978 11.5129 51.7804 11.5129Z" fill="#58C889"/>
</svg>
