<svg width="50" height="46" viewBox="0 0 50 46" fill="none" xmlns="http://www.w3.org/2000/svg">
<path d="M48.5976 0.227051H43.1097H43.0549C43 0.227051 43 0.227051 42.9451 0.227051H42.8902H42.8354C42.7805 0.227051 42.7805 0.227051 42.7256 0.281929H42.6707C42.6707 0.281929 42.6158 0.281929 42.6158 0.336807C42.561 0.336807 42.561 0.391685 42.5061 0.391685C42.5061 0.391685 42.5061 0.391685 42.4512 0.391685L42.3963 0.446563C42.3963 0.446563 42.3415 0.446563 42.3415 0.501441L25.878 14.8795L21.5976 5.44047C21.0488 4.28803 19.8963 3.51973 18.5793 3.51973H11.2805C9.4695 3.51973 7.9878 5.00144 7.9878 6.81242V15.5929H3.59755C1.78658 15.5929 0.304871 17.0746 0.304871 18.8856V25.471C0.304871 27.2819 1.78658 28.7636 3.59755 28.7636H14.5732V32.0563H7.9878C4.36585 32.0563 1.40243 35.0197 1.40243 38.6417C1.40243 42.2636 4.36585 45.2271 7.9878 45.2271H29.939C33.561 45.2271 36.5244 42.2636 36.5244 38.6417C36.5244 35.0197 33.561 32.0563 29.939 32.0563H23.3537V28.7636H25.5488C25.6585 28.7636 25.7134 28.7636 25.7683 28.7088H25.8232C25.878 28.7088 25.9329 28.6539 25.9878 28.6539C25.9878 28.6539 26.0427 28.6539 26.0427 28.599C26.0976 28.5441 26.1524 28.5441 26.2073 28.4892L26.2622 28.4344C26.3171 28.3795 26.3719 28.3246 26.4268 28.2697L43.7134 2.42217H47.5V24.3734H40.9146V22.1783C40.9146 21.5746 40.4207 21.0807 39.8171 21.0807C39.2134 21.0807 38.7195 21.5746 38.7195 22.1783V25.471V28.7636C38.7195 31.7819 41.189 34.2514 44.2073 34.2514C47.2256 34.2514 49.6951 31.7819 49.6951 28.7636V25.471V1.32461C49.6951 0.720953 49.2012 0.227051 48.5976 0.227051ZM26.6463 17.1844L37.6219 7.58071L26.6463 24.0441V17.1844ZM19.6219 6.37339L23.8476 15.5929H15.6707V5.71486H18.6341C19.0732 5.71486 19.4573 5.98925 19.6219 6.37339ZM10.1829 6.81242C10.1829 6.20876 10.6768 5.71486 11.2805 5.71486H13.4756V15.5929H10.1829V6.81242ZM2.49999 25.471V23.2758H6.89024C7.4939 23.2758 7.9878 22.7819 7.9878 22.1783C7.9878 21.5746 7.4939 21.0807 6.89024 21.0807H2.49999V18.8856C2.49999 18.2819 2.9939 17.788 3.59755 17.788H9.08536H24.4512V26.5685H22.2561H15.6707H3.59755C2.9939 26.5685 2.49999 26.0746 2.49999 25.471ZM34.3293 38.6417C34.3293 41.0563 32.3537 43.0319 29.939 43.0319H7.9878C5.57316 43.0319 3.59755 41.0563 3.59755 38.6417C3.59755 36.2271 5.57316 34.2514 7.9878 34.2514H15.6707H22.2561H29.939C32.3537 34.2514 34.3293 36.2271 34.3293 38.6417ZM21.1585 32.0563H16.7683V28.7636H21.1585V32.0563ZM47.5 28.7636C47.5 30.5746 46.0183 32.0563 44.2073 32.0563C42.3963 32.0563 40.9146 30.5746 40.9146 28.7636V26.5685H47.5V28.7636ZM20.061 38.4222C20.061 38.4771 20.061 38.5868 20.061 38.6417C20.061 38.8063 20.0061 38.9161 19.9512 39.0807C19.8963 39.1905 19.8415 39.3551 19.7317 39.41C19.5122 39.6295 19.2378 39.7392 18.9634 39.7392C18.689 39.7392 18.4146 39.6295 18.1951 39.41C18.0854 39.3002 18.0305 39.1905 17.9756 39.0807C17.8658 38.9161 17.8658 38.8063 17.8658 38.6417C17.8658 38.5868 17.8658 38.4771 17.8658 38.4222C17.8658 38.3673 17.9207 38.2575 17.9207 38.2027C17.9207 38.1478 17.9756 38.0929 18.0305 38.038C18.0854 37.9832 18.0854 37.9283 18.1402 37.8734C18.5244 37.4344 19.2927 37.4344 19.6768 37.8734C19.7317 37.9283 19.7866 37.9832 19.7866 38.038C19.8415 38.0929 19.8415 38.1478 19.8963 38.2027C20.0061 38.2575 20.0061 38.3673 20.061 38.4222ZM14.2439 37.8734C14.4634 38.0929 14.5732 38.3673 14.5732 38.6417C14.5732 38.8063 14.5183 38.9161 14.4634 39.0807C14.4085 39.1905 14.3537 39.3551 14.2439 39.41C14.189 39.4649 14.1341 39.5197 14.0793 39.5197C14.0244 39.5746 13.9695 39.5746 13.9146 39.6295C13.8597 39.6295 13.8049 39.6844 13.6951 39.6844C13.6402 39.6844 13.5305 39.6844 13.4756 39.6844C13.311 39.6844 13.2012 39.6844 13.0366 39.5746C12.9268 39.5197 12.7622 39.4649 12.6524 39.3551C12.5427 39.2453 12.4878 39.1356 12.4329 39.0258C12.378 38.9161 12.378 38.8063 12.378 38.6417C12.378 38.3673 12.4878 38.0929 12.7073 37.8734C12.7622 37.8185 12.8171 37.7636 12.8719 37.7636C12.9268 37.7088 12.9817 37.7088 13.0366 37.6539C13.0915 37.6539 13.1463 37.599 13.2561 37.599C13.4207 37.599 13.5305 37.599 13.6951 37.599C13.75 37.599 13.8049 37.6539 13.9146 37.6539C13.9695 37.7088 14.0244 37.7088 14.1341 37.7636C14.2439 37.8185 14.189 37.8185 14.2439 37.8734ZM8.75609 37.8734C8.9756 38.0929 9.08536 38.3673 9.08536 38.6417C9.08536 38.9161 8.9756 39.1905 8.75609 39.41C8.64633 39.5197 8.53658 39.5746 8.42682 39.6295C8.26219 39.7393 8.15243 39.7392 7.9878 39.7392C7.93292 39.7392 7.82316 39.7392 7.76829 39.7392C7.71341 39.7392 7.60365 39.6844 7.54877 39.6844C7.4939 39.6844 7.43902 39.6295 7.38414 39.5746C7.32926 39.5197 7.27438 39.4649 7.21951 39.4649C7.10975 39.3551 7.05487 39.2453 6.99999 39.1356C6.89024 38.9161 6.89024 38.8063 6.89024 38.6417C6.89024 38.3673 6.99999 38.0929 7.21951 37.8734C7.27438 37.8185 7.32926 37.7636 7.38414 37.7636C7.43902 37.7088 7.4939 37.7088 7.60365 37.6539C7.65853 37.6539 7.71341 37.599 7.82316 37.599C7.9878 37.599 8.09755 37.599 8.26219 37.599C8.31707 37.599 8.37194 37.6539 8.4817 37.6539C8.53658 37.7088 8.59146 37.7088 8.64633 37.7636C8.70121 37.8185 8.70121 37.8185 8.75609 37.8734ZM23.4085 39.0807C23.3537 38.9161 23.3537 38.8063 23.3537 38.6417C23.3537 38.5868 23.3537 38.4771 23.3537 38.4222C23.3537 38.3673 23.4085 38.2575 23.4085 38.2027C23.4085 38.1478 23.4634 38.0929 23.5183 38.038C23.5732 37.9832 23.5732 37.9283 23.628 37.8734C24.0122 37.4344 24.7805 37.4344 25.1646 37.8734C25.2195 37.9283 25.2744 37.9832 25.2744 38.038C25.3293 38.0929 25.3293 38.1478 25.3841 38.2027C25.439 38.2575 25.439 38.3124 25.439 38.4222C25.439 38.4771 25.439 38.5868 25.439 38.6417C25.439 38.8063 25.3841 38.9161 25.3293 39.0807C25.2744 39.1905 25.2195 39.3551 25.1097 39.41C25 39.6295 24.7256 39.7392 24.4512 39.7392C24.1768 39.7392 23.9024 39.6295 23.6829 39.41C23.5732 39.3002 23.4634 39.1905 23.4085 39.0807ZM28.8963 39.0807C28.8415 38.9161 28.8415 38.8063 28.8415 38.6417C28.8415 38.3673 28.9512 38.0929 29.1707 37.8734C29.2256 37.8185 29.2805 37.7636 29.3354 37.7636C29.3902 37.7088 29.4451 37.7088 29.5549 37.6539C29.6097 37.6539 29.6646 37.599 29.7744 37.599C29.939 37.599 30.0488 37.599 30.2134 37.599C30.2683 37.599 30.3232 37.6539 30.4329 37.6539C30.4878 37.7088 30.5427 37.7088 30.5976 37.7636C30.6524 37.8185 30.7073 37.8734 30.7622 37.8734C30.9268 38.0929 31.0366 38.3673 31.0366 38.6417C31.0366 38.8063 31.0366 38.9161 30.9268 39.0807C30.8719 39.1905 30.8171 39.3551 30.7073 39.41C30.4878 39.6295 30.2134 39.7392 29.939 39.7392C29.6646 39.7392 29.3902 39.6295 29.1707 39.41C29.061 39.3002 28.9512 39.1905 28.8963 39.0807Z" fill="#58C889"/>
</svg>
