<svg width="48" height="34" viewBox="0 0 48 34" fill="none" xmlns="http://www.w3.org/2000/svg">
<path d="M42.7989 11.8471C43.2648 11.565 43.6253 11.138 43.8253 10.6315C44.0253 10.1249 44.0537 9.5668 43.9062 9.04257C43.7587 8.51834 43.4434 8.05693 43.0086 7.72902C42.5738 7.40111 42.0435 7.22478 41.4989 7.22705H40.4989C40.1238 7.23024 39.7544 7.31917 39.4189 7.48705C38.2989 3.55705 33.6889 0.227051 29.9989 0.227051H17.9989C14.3089 0.227051 9.69894 3.55705 8.57894 7.48705C8.24347 7.31917 7.87405 7.23024 7.49894 7.22705H6.49894C5.95435 7.22478 5.42404 7.40111 4.98925 7.72902C4.55445 8.05693 4.23915 8.51834 4.09163 9.04257C3.94412 9.5668 3.97254 10.1249 4.17254 10.6315C4.37254 11.138 4.73308 11.565 5.19894 11.8471C3.91326 12.6987 2.85739 13.8541 2.12481 15.2112C1.39222 16.5682 1.00552 18.0849 0.998936 19.6271V25.6271C0.998936 25.7571 0.998936 25.8871 0.998936 26.0171C0.991566 26.0869 0.991566 26.1572 0.998936 26.2271V32.2271C0.998936 32.4923 1.10429 32.7466 1.29183 32.9342C1.47937 33.1217 1.73372 33.2271 1.99894 33.2271H9.99894C10.2642 33.2271 10.5185 33.1217 10.706 32.9342C10.8936 32.7466 10.9989 32.4923 10.9989 32.2271V30.2271H36.9989V32.2271C36.9989 32.4923 37.1043 32.7466 37.2918 32.9342C37.4794 33.1217 37.7337 33.2271 37.9989 33.2271H45.9989C46.2642 33.2271 46.5185 33.1217 46.706 32.9342C46.8936 32.7466 46.9989 32.4923 46.9989 32.2271V26.2271C47.0035 26.1738 47.0035 26.1203 46.9989 26.0671C47.0093 25.9339 47.0093 25.8002 46.9989 25.667V19.667C46.9989 18.1181 46.6154 16.5933 45.8825 15.2288C45.1496 13.8642 44.0902 12.7024 42.7989 11.8471ZM40.4989 9.22705H41.4989C41.6315 9.22705 41.7587 9.27973 41.8525 9.3735C41.9463 9.46727 41.9989 9.59444 41.9989 9.72705C41.9989 9.85966 41.9463 9.98684 41.8525 10.0806C41.7587 10.1744 41.6315 10.2271 41.4989 10.2271H40.4989C40.3663 10.2271 40.2392 10.1744 40.1454 10.0806C40.0516 9.98684 39.9989 9.85966 39.9989 9.72705C39.9989 9.59444 40.0516 9.46727 40.1454 9.3735C40.2392 9.27973 40.3663 9.22705 40.4989 9.22705ZM10.3289 9.22705C10.3289 6.08705 14.5589 2.22705 17.9989 2.22705H29.9989C33.4389 2.22705 37.6689 6.08705 37.6689 9.22705V10.2271H10.3289V9.22705ZM6.49894 9.22705H7.49894C7.63154 9.22705 7.75872 9.27973 7.85249 9.3735C7.94626 9.46727 7.99894 9.59444 7.99894 9.72705C7.99894 9.85966 7.94626 9.98684 7.85249 10.0806C7.75872 10.1744 7.63154 10.2271 7.49894 10.2271H6.49894C6.36633 10.2271 6.23915 10.1744 6.14538 10.0806C6.05161 9.98684 5.99894 9.85966 5.99894 9.72705C5.99894 9.59444 6.05161 9.46727 6.14538 9.3735C6.23915 9.27973 6.36633 9.22705 6.49894 9.22705ZM10.5589 12.2271H37.4389C39.422 12.2084 41.3315 12.9769 42.7488 14.3642C44.166 15.7514 44.9752 17.644 44.9989 19.6271V20.2271H38.6689C38.4037 20.2271 38.1494 20.3324 37.9618 20.5199C37.7743 20.7075 37.6689 20.9618 37.6689 21.2271C37.6689 21.4923 37.7743 21.7466 37.9618 21.9342C38.1494 22.1217 38.4037 22.2271 38.6689 22.2271H44.9989V25.667C45.0088 25.8002 45.0088 25.9339 44.9989 26.0671C44.8895 26.6813 44.5645 27.2363 44.0824 27.6322C43.6003 28.0282 42.9927 28.2391 42.3689 28.2271H5.62894C5.47264 28.2423 5.31523 28.2423 5.15894 28.2271C4.61704 28.141 4.11626 27.8857 3.72828 27.4977C3.34029 27.1097 3.085 26.6089 2.99894 26.0671C2.98908 25.9339 2.98908 25.8002 2.99894 25.667V22.397H9.32894C9.59415 22.397 9.84851 22.2917 10.036 22.1042C10.2236 21.9166 10.3289 21.6623 10.3289 21.397C10.3289 21.1318 10.2236 20.8775 10.036 20.6899C9.84851 20.5024 9.59415 20.397 9.32894 20.397H2.99894V19.6271C3.02268 17.644 3.83189 15.7514 5.24911 14.3642C6.66633 12.9769 8.57587 12.2084 10.5589 12.2271ZM8.99894 31.2271H2.99894V29.4271C3.05006 29.4608 3.10353 29.4909 3.15894 29.5171L3.40894 29.667L3.83894 29.8671L4.09894 29.9671C4.26248 30.0242 4.42948 30.071 4.59894 30.1071H4.84894C5.10666 30.1511 5.36749 30.1745 5.62894 30.1771H8.99894V31.2271ZM44.9989 31.2271H38.9989V30.2271H42.3689C42.6304 30.2245 42.8912 30.2011 43.1489 30.1571H43.3989C43.5684 30.121 43.7354 30.0742 43.8989 30.0171L44.1689 29.917L44.5889 29.7171L44.8389 29.5671L44.9989 29.4271V31.2271ZM15.3289 25.897H32.6689C33.5219 25.8503 34.3245 25.4786 34.9117 24.8583C35.499 24.238 35.8262 23.4162 35.8262 22.562C35.8262 21.7079 35.499 20.8861 34.9117 20.2658C34.3245 19.6455 33.5219 19.2738 32.6689 19.2271H15.3289C14.476 19.2738 13.6734 19.6455 13.0862 20.2658C12.4989 20.8861 12.1716 21.7079 12.1716 22.562C12.1716 23.4162 12.4989 24.238 13.0862 24.8583C13.6734 25.4786 14.476 25.8503 15.3289 25.897ZM15.3289 21.2271H32.6689C33.0031 21.256 33.3142 21.4092 33.5409 21.6563C33.7675 21.9035 33.8933 22.2267 33.8933 22.562C33.8933 22.8974 33.7675 23.2206 33.5409 23.4678C33.3142 23.7149 33.0031 23.8681 32.6689 23.897H15.3289C14.9948 23.8681 14.6837 23.7149 14.457 23.4678C14.2303 23.2206 14.1046 22.8974 14.1046 22.562C14.1046 22.2267 14.2303 21.9035 14.457 21.6563C14.6837 21.4092 14.9948 21.256 15.3289 21.2271Z" fill="#58C889"/>
</svg>
