<svg width="68" height="39" viewBox="0 0 68 39" fill="none" xmlns="http://www.w3.org/2000/svg">
<path d="M49.2728 17.6546H47.0909V22.0182H49.2728V17.6546Z" fill="#58C889"/>
<path d="M45.4546 17.6546H43.2728V22.0182H45.4546V17.6546Z" fill="#58C889"/>
<path d="M41.6364 17.6546H39.4546V22.0182H41.6364V17.6546Z" fill="#58C889"/>
<path d="M3.07275 32.1637C2.96366 32.6001 2.90911 33.0364 2.90911 33.4728C2.90911 36.4728 5.36366 38.9273 8.36366 38.9273H46.5455C49.1637 38.9273 51.4 37.0728 51.8909 34.5637H58.7091C60.6727 37.1819 63.7818 38.9273 67.2727 38.9273V36.7455C62.6364 36.7455 58.8182 32.9273 58.8182 28.291V17.1092H56.6364V28.291C56.6364 29.7637 56.9091 31.1273 57.4546 32.3819H51.8909C51.8909 32.3273 51.8364 32.2182 51.8364 32.1637C53.2 31.6728 54.1818 30.3637 54.1818 28.8364V26.3819C54.1818 25.5637 53.7455 24.9092 53.0909 24.5273V17.6546C53.0909 15.5273 51.4 13.8364 49.2727 13.8364H33.3455V3.58189L30.2909 0.527344L28.7637 2.05462L31.1637 4.45462V13.8364H28.8182L26.8 5.81825C26.3637 4.12735 24.8364 2.92734 23.0909 2.92734H10V10.0183H5.63638C4.43639 10.0183 3.45457 11.0001 3.45457 12.2001V15.5273C2.52729 15.7455 1.8182 16.6182 1.8182 17.6546V24.5273C1.16366 24.9092 0.727295 25.6182 0.727295 26.3819V28.8364C0.727295 30.3637 1.70911 31.6728 3.07275 32.1637ZM49.6 34.5637C49.1636 35.8182 47.9636 36.7455 46.5455 36.7455H8.36366C6.56366 36.7455 5.09093 35.2728 5.09093 33.4728C5.09093 31.6728 6.56366 30.2001 8.36366 30.2001H46.5455C47.9636 30.2001 49.1636 31.1273 49.6546 32.3819H27.4546V34.5637H49.6ZM52 28.8364C52 29.491 51.5091 30.0364 50.8546 30.2001C49.8727 28.891 48.2909 28.0182 46.5455 28.0182H8.36366C6.6182 28.0182 5.03639 28.891 4.05457 30.2001C3.40002 30.091 2.90911 29.5455 2.90911 28.8364V26.3819H52V28.8364ZM50.9091 17.6546V24.2001H29.0909V16.0183H49.2727C50.2 16.0183 50.9091 16.7273 50.9091 17.6546ZM24.7273 6.36371L26.9091 15.091V18.4728L17.7455 16.0183C17.0364 15.8546 16.5455 15.2001 16.5455 14.4364V5.10916H23.1455C23.9091 5.10916 24.5637 5.60007 24.7273 6.36371ZM12.1818 5.10916H14.3637V14.4364C14.3637 16.1819 15.5637 17.7092 17.2 18.1455L26.9091 20.6546V24.2001H4.00002V17.6546H12.1818V5.10916ZM10 12.2001V15.4728H5.63638V12.2001H10Z" fill="#58C889"/>
<path d="M8.36366 35.1092C9.2674 35.1092 10 34.3765 10 33.4728C10 32.5691 9.2674 31.8364 8.36366 31.8364C7.45992 31.8364 6.72729 32.5691 6.72729 33.4728C6.72729 34.3765 7.45992 35.1092 8.36366 35.1092Z" fill="#58C889"/>
</svg>
