<svg width="38" height="37" viewBox="0 0 38 37" fill="none" xmlns="http://www.w3.org/2000/svg">
<path d="M37.9998 35.7244V1.81562C37.9998 1.55385 37.8958 1.3028 37.7107 1.1177C37.5256 0.932601 37.2746 0.828613 37.0128 0.828613H0.986889C0.725117 0.828613 0.474067 0.932601 0.288967 1.1177C0.103866 1.3028 -0.00012207 1.55385 -0.00012207 1.81562V26.4909C-0.00012207 26.7527 0.103866 27.0037 0.288967 27.1888C0.474067 27.3739 0.725117 27.4779 0.986889 27.4779H26.7429C34.718 35.2407 36.2725 36.7361 37.0621 36.7361C37.2091 36.7299 37.352 36.6857 37.4767 36.6078C37.6365 36.5227 37.7699 36.3952 37.8621 36.2394C37.9544 36.0836 38.002 35.9054 37.9998 35.7244ZM36.0258 33.6122C34.1554 31.8898 30.844 28.7166 27.8287 25.7852C27.6452 25.6058 27.3992 25.5049 27.1427 25.5039H1.9739V2.80263H36.0258V33.6122Z" fill="#58C889"/>
<path d="M27.0933 9.69678H9.32715V11.6708H27.0933V9.69678Z" fill="#58C889"/>
<path d="M27.0933 16.6059H9.32715V18.5799H27.0933V16.6059Z" fill="#58C889"/>
</svg>
